SplineFontDB: 3.2
FontName: Kritzelei-01-Regular
FullName: Kritzelei-01 Regular
FamilyName: Kritzelei-01
Weight: Regular
Copyright: FONT_LICENSE
UComments: "FONT_COMMENT"
Version: 1.0
ItalicAngle: 0
UnderlinePosition: -204.8
UnderlineWidth: 102.4
Ascent: 1638
Descent: 410
InvalidEm: 0
LayerCount: 2
Layer: 0 0 "Back" 1
Layer: 1 0 "Fore" 0
XUID: [1021 284 -1416327918 13319263]
OS2Version: 0
OS2_WeightWidthSlopeOnly: 0
OS2_UseTypoMetrics: 1
CreationTime: 1640557525
ModificationTime: 1640557526
OS2TypoAscent: 0
OS2TypoAOffset: 1
OS2TypoDescent: 0
OS2TypoDOffset: 1
OS2TypoLinegap: 0
OS2WinAscent: 0
OS2WinAOffset: 1
OS2WinDescent: 0
OS2WinDOffset: 1
HheadAscent: 0
HheadAOffset: 1
HheadDescent: 0
HheadDOffset: 1
OS2Vendor: 'PfEd'
Lookup: 4 0 0 "extra-ligatures" { "dlig"  } ['dlig' ('latn' <'dflt' > ) ]
Lookup: 4 0 1 "ligatures" { "liga"  } ['liga' ('latn' <'dflt' > ) ]
Lookup: 1 0 0 "+ACIA-ss02+ACIA Style Set 2 lookup" { "ss02"  } ['ss02' ('latn' <'dflt' > ) ]
Lookup: 1 1 0 "+ACIA-ss01+ACIA Style Set 1 lookup" { "ss01"  } ['ss01' ('latn' <'dflt' > ) ]
DEI: 91125
Encoding: UnicodeFull
UnicodeInterp: none
NameList: AGL For New Fonts
DisplaySize: -48
AntiAlias: 1
FitToEm: 0
Grid
-2048 775.89 m 1
 3686.4 775.89 l 1025
-2048 1502.8 m 1
 3686.4 1502.8 l 1025
EndSplineSet
BeginChars: 1114112 160

StartChar: A
Encoding: 65 65 10
Width: 1745
VWidth: -272
Flags: HW
LayerCount: 2
Fore
SplineSet
1025 539 m 0
 1025 591 1015 712 988 712 c 0
 981 712 974 705 964 689 c 0
 949 655 931 615 931 577 c 0
 931 552 939 528 959 508 c 0
 977.856230995 489.143769005 999.93747285 477.543812446 1011.48873217 477.543812446 c 0
 1012.80199736 477.543812446 1013.97915762 477.693747285 1015 478 c 0
 1020 482 1025 506 1025 539 c 0
200 694 m 0
 200 584 191 441 191 339 c 0
 191 271 199 224 218 190 c 0
 258 113 281 107 396 107 c 0
 444 107 503 120 530 139 c 0
 572 165 692 331 692 393 c 0
 692 409 661 448 623 478 c 0
 545 540 481 646 481 777 c 0
 481 875 489 900 556 921 c 0
 563 923 569 924 575 924 c 0
 604 924 631 901 702 827 c 0
 758 768 808 720 814 720 c 0
 820 720 839 752 857 792 c 0
 915 936 972 1166 1007 1361 c 0
 1025 1467 1049 1566 1060 1579 c 0
 1071 1590 1095 1601 1114 1601 c 0
 1151 1601 1180 1561 1180 1515 c 0
 1180 1496 1176 1472 1170 1444 c 0
 1149 1344 1135 1088 1135 891 c 0
 1135 823 1136 763 1140 718 c 0
 1148 628 1160 541 1170 528 c 0
 1174 522 1180 518 1190 518 c 0
 1217 518 1273 542 1394 603 c 0
 1512 662 1607 698 1643 698 c 0
 1673 698 1697 682 1697 664 c 0
 1697 648 1664 617 1622 595 c 0
 1580 573 1473 514 1385 468 c 0
 1297 422 1219 375 1209 364 c 0
 1205 359 1202 347 1202 331 c 0
 1202 293 1224 225 1224 190 c 0
 1224 151 1195 88 1169 88 c 0
 1158 88 1087 148 1017 225 c 0
 938 309 886 352 864 352 c 0
 845 352 803 291 774 236 c 0
 742 180 680 102 638 64 c 0
 574 8 540 -8 452 -18 c 0
 422 -22 397 -24 375 -24 c 0
 332 -24 298 -16 252 3 c 0
 90 76 48 221 48 468 c 0
 48 610 63 779 103 804 c 0
 114 812 124.25 816 135 816 c 0
 145.75 816 157 812 170 804 c 0
 192 789 200 767 200 694 c 0
EndSplineSet
EndChar

StartChar: B
Encoding: 66 66 11
Width: 1141
VWidth: -117
Flags: HW
LayerCount: 2
Fore
SplineSet
367 1148 m 0
 367 985 343 637 343 484 c 0
 343 357 352 302 417 235 c 0
 477 179 559 97 654 97 c 0
 683 97 741 121 783 150 c 0
 863 206 958 359 958 488 c 0
 958 537 941 592 915 626 c 0
 893 658 815 712 749 746 c 0
 681 780 608 823 589 842 c 0
 569 859 552 885 552 904 c 0
 552 923 602 986 665 1047 c 0
 728 1108 788 1181 800 1210 c 0
 806 1228 810 1254 810 1280 c 0
 810 1367 788 1391 708 1430 c 0
 659 1454 602 1472 580 1472 c 0
 524 1467 397 1420 361 1394 c 0
 349.061951148 1383.6898669 343.013034957 1373.08527717 343.013034957 1356.59380724 c 0
 343.013034957 1342.69401784 347.310133099 1324.61223929 356 1299 c 0
 363 1273 367 1225 367 1148 c 0
188 641 m 0
 188 870 48 1040 48 1279 c 0
 48 1329 64 1347 120 1401 c 0
 203 1479 307 1547 421 1576 c 0
 448 1584 485 1587 526 1587 c 0
 625 1587 747 1568 790 1545 c 0
 853 1511 926 1424 948 1353 c 0
 952 1341 954 1320 954 1295 c 0
 954 1270 952 1242 948 1217 c 0
 938 1146 912 1105 834 1023 c 0
 780 967 735 914 735 904 c 0
 735 894 783 864 844 835 c 0
 986 769 1093 676 1093 481 c 0
 1093 433 1085 385 1068 330 c 0
 1044 242 1011 189 919 95 c 0
 812 -15 797 -26 710 -26 c 0
 560 -26 516 10 424 85 c 0
 378 124 314 159 280 162 c 0
 234 165 215 182 201 228 c 0
 181 299 128 449 113 524 c 0
 111.11145618 533.678787077 110.1145618 541.797187635 110.1145618 548.68409211 c 0
 110.1145618 570.970583145 120.55417528 580.360679775 145 588 c 0
 171 595 188 615 188 641 c 0
EndSplineSet
EndChar

StartChar: C
Encoding: 67 67 12
Width: 1928
VWidth: -314
Flags: HW
LayerCount: 2
Fore
SplineSet
1094 955 m 0
 1043 955 986 973 986 1002 c 0
 986 1018 1002 1034 1030 1048 c 0
 1050 1058 1126 1078 1200 1094 c 0
 1276 1108 1376 1152 1432 1192 c 0
 1488 1230 1530 1280 1530 1304 c 0
 1530 1380 1472 1406 1382 1406 c 0
 1248 1406 998 1308 918 1252 c 0
 784 1160 562 942 452 806 c 0
 392 734 314 612 278 538 c 0
 237 461 214 399 214 346 c 0
 214 281 249 228 328 172 c 0
 417 110 431 101 622 101 c 0
 858 101 1153 121 1418 154 c 0
 1593 178 1753 196 1807 196 c 0
 1817 196 1824 195 1826 194 c 0
 1843.9321375 188.022620835 1880.84533901 153.015379049 1880.84533901 124.85071372 c 0
 1880.84533901 115.320376541 1876.61875938 106.573517713 1866 100 c 0
 1854 92 1764 76 1668 64 c 0
 1436 35 1000 -30 698 -30 c 0
 670 -30 643 -29 618 -28 c 0
 362 -20 358 -18 222 76 c 0
 108 154 48 205 48 307 c 0
 48 347 58 395 76 454 c 0
 98 524 162 648 218 734 c 0
 344 930 680 1268 878 1390 c 0
 1050 1492 1168 1546 1406 1546 c 0
 1418 1546 1428 1546 1438 1546 c 0
 1547 1546 1568 1535 1630 1476 c 1
 1677 1426 1693 1405 1693 1361 c 0
 1693 1345 1692 1326 1688 1302 c 0
 1650 1088 1444 1016 1232 970 c 0
 1187 961 1135 955 1094 955 c 0
EndSplineSet
EndChar

StartChar: D
Encoding: 68 68 13
Width: 1417
VWidth: -307
Flags: HW
LayerCount: 2
Fore
SplineSet
331 712 m 0
 331 857 301 986 301 1084 c 0
 301 1140 306 1197 316 1235 c 0
 329 1287 354 1334 372 1341 c 0
 392 1348 415 1343 426 1332 c 0
 439 1319 453 1113 457 839 c 0
 461 578 469 340 478 308 c 0
 491 261 511 243 583 221 c 0
 626 209 718 200 792 200 c 0
 918 200 957 209 1026 265 c 0
 1121 341 1233 488 1233 646 c 0
 1233 842 1082 1049 961 1170 c 0
 889 1238 783 1323 720 1354 c 0
 654 1389 578 1410 526 1410 c 0
 524 1410 522 1409 520 1409 c 0
 399 1409 347 1377 271 1325 c 0
 207 1277 179 1210 179 1111 c 0
 179 988 216 850 255 761 c 0
 278 705 309 657 320 657 c 0
 328 657 331 679 331 712 c 0
388 1543 m 0
 420 1551 454 1554 487 1554 c 0
 579 1554 669 1528 738 1496 c 1
 893 1435 1045 1282 1146 1147 c 0
 1249 1014 1339 862 1364 675 c 0
 1367 649 1369 626 1369 606 c 0
 1369 554 1358 515 1335 461 c 0
 1277 337 1139 178 1015 119 c 0
 954 89 917 77 850 77 c 0
 772 77 597 97 572 106 c 0
 566.309351102 108.503885515 561.240465114 109.867872362 556.698989118 109.867872362 c 0
 541.28897945 109.867872362 531.951366397 94.163450293 525 54 c 0
 514 7 490 -27 457 -27 c 0
 441 -27 424 -19 405 -2 c 0
 382 20 353 78 340 128 c 0
 322 202 296 232 228 277 c 0
 152 329 79 421 79 520 c 0
 79 540 99 558 122 565 c 0
 145 572 165 583 165 592 c 0
 165 601 140 677 109 756 c 0
 59 883 48 969 48 1142 c 0
 48 1278 58 1308 97 1361 c 0
 155 1437 287 1520 388 1543 c 0
EndSplineSet
EndChar

StartChar: E
Encoding: 69 69 14
Width: 1588
VWidth: -319
Flags: HW
LayerCount: 2
Fore
SplineSet
978 810 m 0
 1032 810 1092 798 1092 742 c 0
 1092 718 1078 688 1062 674 c 0
 1046 660 912 638 766 626 c 0
 592 610 482 590 446 566 c 0
 418 544 366 526 336 526 c 0
 299.285119557 526 285.503777892 534.918598414 285.503777892 559.874170773 c 0
 285.503777892 566.185384923 286.385196599 573.522282144 288 582 c 0
 300 678 514 740 640 744 c 0
 712 744 808 758 854 774 c 0
 900 794 956 808 978 810 c 0
743 1469 m 0
 828 1469 1209 1493 1300 1493 c 0
 1378 1493 1407 1486 1422 1470 c 0
 1434.50792329 1457.49207671 1441.02931042 1448.1769727 1441.02931042 1438.31073123 c 0
 1441.02931042 1426.09059155 1431.02496125 1413.02496125 1410 1392 c 0
 1368 1350 1316 1342 988 1332 c 0
 764 1324 606 1308 584 1292 c 0
 568 1278 534 1200 512 1122 c 0
 484 1024 456 978 426 968 c 0
 400 958 362 922 342 884 c 0
 302 804 188 480 188 360 c 0
 188 154 372 98 584 98 c 0
 750 98 1088 194 1208 244 c 0
 1266 270 1342 310 1378 336 c 0
 1416 362 1462 384 1484 384 c 0
 1506 384 1528 368 1538 346 c 0
 1539.53485626 342.162859339 1540.25991186 337.442299772 1540.25991186 332.078432315 c 0
 1540.25991186 309.484672304 1527.39543121 275.476860877 1508 248 c 0
 1482 212 1398 164 1308 130 c 0
 1084 50 866 -30 558 -30 c 0
 544 -30 530 -30 517 -30 c 0
 368 -30 296 -20 248 8 c 0
 131 74 48 153 48 342 c 0
 48 417 63 505 88 604 c 0
 116 702 182 882 236 1004 c 0
 288 1126 330 1242 330 1258 c 0
 330 1320 200 1314 200 1377 c 0
 200 1421 241 1432 310 1432 c 0
 382 1432 410 1444 440 1492 c 0
 462 1526 494 1550 516 1550 c 0
 538 1550 576 1530 602 1506 c 0
 631 1480 652 1469 743 1469 c 0
EndSplineSet
EndChar

StartChar: F
Encoding: 70 70 15
Width: 1571
VWidth: -192
Flags: HW
LayerCount: 2
Fore
SplineSet
118 880 m 0
 145 878 195 867 227 867 c 0
 259 867 259 903 259 1145 c 0
 261 1344 267 1442 286 1478 c 0
 303 1507 325 1535 335 1543 c 0
 345 1548 355 1550 363 1550 c 0
 393 1550 412 1521 424 1492 c 0
 437 1464 444 1453 494 1453 c 0
 523 1453 566 1457 634 1463 c 0
 739 1473 962 1492 1129 1509 c 0
 1297 1526 1453 1539 1479 1539 c 0
 1510 1539 1523 1526 1523 1500 c 0
 1523 1480 1510 1454 1498 1442 c 0
 1484 1432 1330 1408 1158 1391 c 0
 986 1372 780 1354 702 1347 c 0
 626 1340 527 1327 486 1317 c 0
 410 1295 408 1295 405 1169 c 0
 404 1121 402 1063 402 1020 c 0
 402 1002 403 987 403 977 c 0
 403 941 408 907 415 900 c 0
 417 898 424 897 434 897 c 0
 462 897 516 903 575 912 c 0
 750 943 892 987 1047 1021 c 0
 1088 1032 1124 1042 1151 1042 c 0
 1180 1042 1199 1029 1199 990 c 0
 1199 970 1179 941 1153 924 c 0
 1129 905 997 870 866 844 c 0
 732 815 572 781 509 762 c 0
 393 728 393 727 381 632 c 0
 379 613 378 589 378 564 c 0
 378 518 381 466 388 426 c 0
 398 365 418 247 432 164 c 0
 443 102 450 66 450 42 c 0
 450 2 417 -25 379 -25 c 0
 342 -25 311 5 301 35 c 0
 294 55 279 141 267 224 c 0
 243 387 196 577 126 679 c 0
 104 713 75 756 61 776 c 0
 52 788 48 801 48 813 c 0
 48 849 84 880 118 880 c 0
EndSplineSet
EndChar

StartChar: G
Encoding: 71 71 16
Width: 1096
VWidth: 0
Flags: HW
LayerCount: 2
Fore
SplineSet
590 92 m 0
 590 120 590 148 582 148 c 0
 572 148 545 125 513 90 c 0
 477 52 431 -6 410 -37 c 0
 386 -73 372 -109 372 -133 c 0
 372 -183 412 -203 450 -213 c 0
 454 -214 459 -215 463 -215 c 0
 477 -215 493 -207 512 -191 c 0
 564 -145 590 -10 590 92 c 0
1038 546 m 0
 1044 546 1048 538 1048 534 c 0
 1048 505 958 453 904 419 c 0
 837 378 757 318 726 288 c 0
 672 235 671 235 664 81 c 0
 659 -35 653 -89 634 -139 c 0
 620 -175 592 -219 573 -238 c 0
 542 -268 500 -279 433 -279 c 0
 400 -279 386 -271 348 -242 c 0
 301 -207 290 -191 290 -143 c 0
 290 -81 320 -35 355 11 c 0
 379 43 438 109 487 159 c 0
 553 227 570 245 570 269 c 0
 570 302 552 342 540 368 c 0
 526 398 514 407 490 407 c 0
 471 407 426 383 377 350 c 0
 332 318 278 284 257 273 c 0
 236 261 195 253 167 253 c 0
 90 253 66 283 54 354 c 0
 50 376 48 397 48 418 c 0
 48 488 69 550 94 605 c 0
 114 649 153 699 210 756 c 0
 257 802 321 858 352 879 c 0
 413 921 499 962 592 962 c 0
 597 962 601 962 605 962 c 0
 652 962 689 953 689 915 c 0
 689 875 650 797 613 797 c 0
 602 797 597 811 597 838 c 0
 597 877 590 889 570 889 c 0
 556 889 537 883 510 876 c 0
 409 848 338 786 265 715 c 0
 185 638 124 539 124 400 c 0
 124 362 144 328 177 328 c 0
 186 328 195 331 210 336 c 0
 260 351 403 455 447 475 c 0
 465 483 495 490 515 490 c 0
 571 490 606 432 621 383 c 0
 628 358 641 329 646 329 c 0
 654 329 706 358 766 397 c 0
 826 438 912 491 956 513 c 0
 993 532 1027 546 1038 546 c 0
EndSplineSet
EndChar

StartChar: H
Encoding: 72 72 17
Width: 1886
VWidth: -462
Flags: HW
LayerCount: 2
Fore
SplineSet
971 358 m 0
 971 413 961 558 942 561 c 0
 941 561 939 561 937 561 c 0
 884 561 574 477 567 456 c 0
 566 454 566 452 566 450 c 0
 566 411 705 370 764 347 c 0
 824 321 898 303 925 303 c 0
 960 303 971 305 971 358 c 0
1131 416 m 0
 1131 379 1132 326 1132 295 c 0
 1132 194 1125 173 1094 151 c 0
 1080 142 1068 137 1050 137 c 0
 1019 137 970 152 864 190 c 0
 759 226 627 280 567 311 c 0
 507 340 455 366 448 366 c 0
 442.829710487 366 439.841616374 341.450301755 439.841616374 308.065930177 c 0
 439.841616374 296.251556023 440.215838363 283.330747836 441 270 c 0
 446 194 464 143 503 143 c 0
 520 143 542 154 568 177 c 0
 593.026793593 201.099875312 629.222894686 218.326330623 650.307521337 218.326330623 c 0
 651.969912496 218.326330623 653.538365624 218.219245156 655 218 c 0
 676 215 701 193 701 174 c 0
 701 153 665 104 618 58 c 0
 560 2 512 -26 475 -26 c 0
 436 -26 405 -7 373 39 c 0
 337 88 321 144 313 260 c 0
 303 413 303 413 179 445 c 0
 71 474 48 484 48 542 c 0
 48 569 71 571 186 571 c 0
 329 571 329 571 361 743 c 0
 397 925 437 1153 437 1350 c 0
 437 1435 456 1548 515 1548 c 0
 524 1548 533 1545 543 1540 c 0
 574 1521 582 1496 582 1411 c 0
 582 1353 557 1154 526 969 c 0
 501 805 486 689 486 639 c 0
 486 611 486 608 512 608 c 0
 549 608 630 622 743 649 c 0
 877 681 983 719 993 736 c 0
 1001 753 1020 877 1032 1013 c 0
 1046 1149 1068 1319 1080 1389 c 0
 1094 1467 1114 1520 1133 1528 c 0
 1137.93296337 1529.81740756 1143.40518717 1530.69110933 1149.10165343 1530.69110933 c 0
 1165.34592559 1530.69110933 1183.41370406 1523.58629594 1196 1511 c 0
 1210 1497 1217 1478 1217 1431 c 0
 1217 1388 1211 1323 1201 1216 c 0
 1189 1072 1179 903 1179 842 c 0
 1179 765 1182 742 1199 742 c 0
 1204 742 1209 744 1216 746 c 0
 1244 759 1513 775 1673 775 c 0
 1727 775 1769 772 1784 768 c 0
 1813 761 1838 745 1838 728 c 0
 1838 709 1787 697 1668 687 c 0
 1573 680 1428 663 1343 651 c 0
 1258 637 1175 614 1158 600 c 0
 1138 580 1131 534 1131 416 c 0
EndSplineSet
EndChar

StartChar: I
Encoding: 73 73 18
Width: 482
VWidth: -423
Flags: HW
LayerCount: 2
Fore
SplineSet
377 1533 m 0
 414 1529 434 1499 434 1451 c 0
 434 1322 312 792 296 720 c 0
 286 669 277 509 275 361 c 0
 275 125 269 85 227 32 c 0
 199 -2 157 -28 123 -28 c 0
 69 -28 48 20 48 77 c 0
 48 110 55 146 66 177 c 0
 79 225 102 361 115 481 c 0
 140 737 191 1112 246 1330 c 0
 267 1414 292 1495 305 1510 c 0
 316.282856857 1523.01868099 343.384412152 1533.77754792 366.691466968 1533.77754792 c 0
 370.238578296 1533.77754792 373.697801648 1533.52835174 377 1533 c 0
EndSplineSet
EndChar

StartChar: J
Encoding: 74 74 19
Width: 751
VWidth: 0
Flags: HW
LayerCount: 2
Fore
SplineSet
351 901 m 0
 351 917 361 931 376 931 c 0
 395 931 417 912 424 904 c 0
 429 897 457 883 480 883 c 0
 503 883 536 891 578 909 c 0
 612 922 641 934 662 934 c 0
 701 934 704 901 704 846 c 0
 704 780 701 661 696 530 c 0
 686 267 677 156 658 61 c 0
 644 -8 625 -80 615 -98 c 0
 591 -148 552 -164 473 -164 c 0
 378 -164 201 -132 144 -114 c 0
 102 -103 73 -86 61 -67 c 0
 45 -43 44 -33 56 -20 c 0
 63 -11 71 -8 80 -8 c 0
 100 -8 123 -27 140 -38 c 0
 174 -61 374 -93 450 -93 c 0
 485 -93 517 -78 534 -62 c 0
 552 -45 565 -7 578 68 c 0
 595 160 620 473 620 597 c 0
 620 627 617 616 617 649 c 0
 617 689 625 767 625 808 c 0
 625 825 624 836 622 837 c 0
 617 839 591 834 562 824 c 0
 540 816 511 812 481 812 c 0
 442 812 402 819 383 834 c 0
 373 842 351 875 351 901 c 0
EndSplineSet
EndChar

StartChar: K
Encoding: 75 75 20
Width: 1768
VWidth: -661
Flags: HW
LayerCount: 2
Fore
SplineSet
1274 1537 m 0
 1313 1537 1333 1501 1333 1452 c 0
 1333 1402 1287 1321 1146 1112 c 0
 1042 954 916 743 870 642 c 0
 827 550 794 452 794 419 c 0
 794 377 830 363 939 340 c 0
 1159 300 1347 255 1541 160 c 0
 1668 95 1716 59 1720 23 c 0
 1720.56854249 17.8831175457 1720.85424949 13.1904883376 1720.85424949 8.90488337573 c 0
 1720.85424949 -16.9610306789 1710.44660941 -28 1689 -28 c 0
 1670 -28 1594 0 1524 36 c 0
 1355 120 1208 163 984 186 c 0
 897 194 795 211 753 222 c 0
 735 228 720 232 707 232 c 0
 671 232 640 202 547 106 c 0
 420 -23 407 -28 306 -28 c 0
 111 -28 48 72 48 270 c 0
 48 292 49 313 51 331 c 0
 83 548 127 769 154 1039 c 0
 165 1181 177 1324 177 1349 c 0
 177 1390 203 1421 243 1421 c 0
 307 1421 327 1352 327 1272 c 0
 327 1104 263 695 243 633 c 0
 228 579 198 388 198 260 c 0
 198 222 201 189 207 167 c 0
 218 121 237 106 285 106 c 0
 319 106 370 125 397 148 c 0
 439 180 608 407 608 475 c 0
 608 498 654 600 707 703 c 0
 762 807 903 1038 1019 1218 c 0
 1187 1473 1238 1537 1274 1537 c 0
EndSplineSet
EndChar

StartChar: L
Encoding: 76 76 21
Width: 1464
VWidth: -418
Flags: HW
LayerCount: 2
Fore
SplineSet
1366 271 m 0
 1397 271 1416 244 1416 224 c 0
 1416 204 1374 172 1326 150 c 0
 1174 86 992 70 802 26 c 0
 697 4 526 -30 386 -30 c 0
 318 -30 258 -22 216 -0 c 0
 93 66 48 213 48 380 c 0
 48 492 68 614 98 726 c 0
 132 846 198 1044 246 1170 c 0
 294 1292 354 1430 382 1474 c 0
 408 1520 452 1556 476 1556 c 0
 511 1556 562 1524 562 1481 c 0
 562 1451 545 1407 506 1320 c 0
 414 1106 328 948 258 708 c 0
 227 616 204 488 204 416 c 0
 204 343 219 250 236 208 c 0
 252 170 280 134 294 132 c 0
 316 132 349 125 377 125 c 0
 413 125 480 130 548 138 c 0
 634 150 850 188 1026 222 c 0
 1178 251 1317 271 1366 271 c 0
EndSplineSet
EndChar

StartChar: M
Encoding: 77 77 22
Width: 1832
VWidth: -394
Flags: HW
LayerCount: 2
Fore
SplineSet
1593 1471 m 0
 1634 1471 1663 1409 1663 1359 c 0
 1663 1327 1647 1235 1627 1152 c 0
 1605 1060 1593 900 1593 733 c 0
 1593 716 1593 699 1593 683 c 0
 1593 500 1603 426 1636 322 c 0
 1659 246 1708 150 1739 101 c 0
 1765.78541948 63.3330038603 1784.16311985 24.2647212039 1784.16311985 6.08099253095 c 0
 1784.16311985 2.54098758711 1783.46660077 -0.207487945252 1782 -2 c 0
 1775 -15 1746 -27 1721 -27 c 0
 1690 -27 1654 2 1623 47 c 0
 1594 88 1551 173 1528 236 c 0
 1445 447 1478 1080 1447 1080 c 0
 1438 1080 1395 1048 1346 1008 c 0
 1224 902 1071 799 914 713 c 1
 808 659 757 646 642 646 c 0
 545 646 484 657 448 682 c 0
 417 702 379 738 365 760 c 0
 351 782 329 797 320 797 c 0
 284 797 244 364 239 292 c 0
 230 189 214 110 194 90 c 0
 176 76 149 61 135 61 c 0
 117 61 93 75 79 95 c 0
 59 117 48 201 48 338 c 0
 48 352 48 368 48 385 c 0
 48 621 70 1174 99 1328 c 0
 110 1398 123 1418 164 1422 c 0
 195 1426 222 1453 236 1494 c 0
 250 1539 274 1557 308 1557 c 0
 337 1557 364 1543 371 1523 c 0
 378 1503 383 1412 383 1318 c 0
 383 1124 402 965 479 859 c 1
 521 794 548 781 641 781 c 0
 696 781 757 793 803 814 c 0
 940 868 1196 1031 1299 1130 c 0
 1349 1180 1435 1276 1485 1346 c 0
 1537 1413 1584 1471 1593 1471 c 0
EndSplineSet
EndChar

StartChar: N
Encoding: 78 78 23
Width: 1673
VWidth: -594
Flags: HW
LayerCount: 2
Fore
SplineSet
1594 1551 m 0
 1602 1551 1625 1530 1625 1508 c 0
 1625 1485 1608 1442 1583 1401 c 0
 1558 1352 1499 1259 1456 1189 c 0
 1355 1018 1216 649 1157 429 c 0
 1132 330 1096 217 1078 176 c 0
 1049 111 948 -10 867 -10 c 0
 775 -10 667 66 624 129 c 0
 572 197 482 431 482 544 c 0
 482 585 469 750 440 750 c 0
 433 750 395 618 354 460 c 0
 314 303 263 134 241 84 c 0
 218 35 183 -12 163 -19 c 0
 150 -25 138 -27 125 -27 c 0
 84 -27 48 -1 48 35 c 0
 48 58 91 250 143 462 c 0
 195 673 253 919 275 1005 c 0
 295 1091 316 1219 323 1286 c 0
 334 1394 338 1464 426 1464 c 0
 455 1464 496 1441 525 1410 c 0
 570 1361 574 1329 592 1012 c 0
 601 821 624 585 644 482 c 0
 673 343 697 279 746 220 c 0
 780 177 829 141 851 141 c 0
 874 141 901 159 914 181 c 0
 930 208 1045 537 1045 582 c 0
 1045 596 1078 690 1119 793 c 0
 1216 1047 1247 1136 1396 1347 c 0
 1457 1435 1522 1518 1542 1529 c 0
 1562 1540 1585 1551 1594 1551 c 0
EndSplineSet
EndChar

StartChar: O
Encoding: 79 79 24
Width: 1425
VWidth: -203
Flags: HW
LayerCount: 2
Fore
SplineSet
371 1104 m 0
 356 1104 344 1129 344 1141 c 0
 344 1157 389 1203 445 1245 c 0
 501 1290 585 1341 631 1362 c 0
 677 1383 698 1393 698 1397 c 0
 698 1400 691 1401 678 1401 c 0
 671 1401 661 1400 650 1400 c 0
 442 1400 326 1262 248 1115 c 0
 189 999 156 897 156 743 c 0
 156 532 221 296 306 176 c 0
 351 115 410 82 508 82 c 0
 524 82 541 83 559 85 c 0
 613 93 714 125 783 160 c 0
 937 234 1129 426 1203 576 c 0
 1245 666 1255 711 1255 847 c 0
 1255 989 1247 1021 1202 1096 c 0
 1175 1144 1133 1198 1111 1219 c 0
 1091.47172772 1235.7385191 1079.72617826 1243.76038864 1070.89989145 1243.76038864 c 0
 1063.90706053 1243.76038864 1058.74664172 1238.72508599 1053 1229 c 0
 1042 1213 1034 1186 1034 1168 c 0
 1034 1149 1004 1105 967 1067 c 0
 903 1003 890 1000 776 1000 c 0
 685 1000 648 1007 626 1034 c 0
 609 1051 602 1062 602 1071 c 0
 602 1094 650 1096 715 1096 c 0
 832 1096 888 1125 909 1213 c 0
 912.297097168 1226.8478081 913.963566875 1239.06498875 913.963566875 1249.97412216 c 0
 913.963566875 1272.15207372 907.076095948 1288.92390405 893 1303 c 0
 881 1315 871 1321 854 1321 c 0
 833 1321 800 1311 735 1290 c 0
 665 1268 556 1212 495 1170 c 0
 441 1130 390 1104 371 1104 c 0
763 1527 m 0
 867 1519 898 1509 946 1464 c 0
 1021 1394 1160 1329 1229 1255 c 0
 1315 1169 1377 1003 1377 830 c 0
 1377 694 1338 572 1287 475 c 0
 1207 331 962 124 807 47 c 0
 682 -17 650 -24 511 -24 c 0
 501 -24 491 -24 482 -24 c 0
 379 -24 336 -15 299 10 c 0
 203 74 137 191 91 325 c 0
 56 426 48 479 48 664 c 0
 48 682 48 702 48 722 c 0
 48 925 60 1011 82 1077 c 0
 132 1200 232 1352 341 1419 c 0
 438 1483 558 1529 707 1529 c 0
 725 1529 744 1528 763 1527 c 0
EndSplineSet
EndChar

StartChar: P
Encoding: 80 80 25
Width: 1046
VWidth: -350
Flags: HW
LayerCount: 2
Fore
SplineSet
249 926 m 0
 249 974 235 1244 220 1244 c 0
 214 1244 206 1218 192 1174 c 0
 174 1116 160 1032 160 987 c 0
 160 921 162 845 208 845 c 0
 241 845 249 880 249 926 c 0
519 1459 m 0
 487 1459 442 1451 421 1443 c 0
 391 1432 386 1402 383 1154 c 0
 382 1101 381 1058 381 1023 c 0
 381 909 391 886 434 886 c 0
 445 886 460 888 476 890 c 0
 530 896 631 928 700 963 c 0
 794 1011 833 1045 860 1099 c 0
 877 1133 886 1152 886 1171 c 0
 886 1191 877 1212 858 1253 c 0
 813 1360 773 1390 663 1432 c 0
 619 1447 559 1459 525 1459 c 0
 523 1459 521 1459 519 1459 c 0
514 1569 m 0
 710 1569 835 1504 920 1395 c 0
 954 1351 998 1225 998 1126 c 0
 998 1093 993 1063 981 1040 c 0
 930 944 867 907 741 856 c 0
 675 827 570 798 506 790 c 0
 442 780 386 768 378 762 c 0
 366 747 341 453 341 372 c 0
 341 305 347 252 360 187 c 0
 372 130 378 88 378 57 c 0
 378 37 375 21 370 11 c 0
 360 -8 344 -24 336 -24 c 0
 301 -24 275 17 256 54 c 0
 240 81 200 209 165 342 c 0
 130 475 87 650 71 728 c 0
 56 798 48 886 48 974 c 0
 48 1091 62 1209 90 1288 c 0
 140 1427 252 1518 391 1558 c 0
 411 1565 460 1569 514 1569 c 0
EndSplineSet
EndChar

StartChar: Q
Encoding: 81 81 26
Width: 1550
VWidth: -35
Flags: HW
LayerCount: 2
Fore
SplineSet
1050 1005 m 0
 1050 1063 1034 1212 1015 1212 c 0
 1001 1212 954 1187 903 1154 c 0
 823 1099 733 1054 621 1054 c 0
 600 1054 578 1056 556 1059 c 0
 497 1069 433 1068 433 1111 c 0
 433 1129 462 1134 556 1134 c 0
 704 1134 783 1175 860 1238 c 0
 892 1265 908 1295 908 1323 c 0
 908 1378 863 1435 811 1435 c 0
 793 1435 751 1417 719 1393 c 0
 687 1369 656 1351 649 1351 c 0
 642 1351 635 1367 635 1385 c 0
 635 1403 625 1419 615 1419 c 0
 604 1419 555 1395 506 1368 c 0
 447 1334 395 1285 343 1211 c 0
 256 1093 209 1000 173 857 c 0
 160 815 150 735 150 676 c 0
 150 672 150 668 150 664 c 0
 150 479 200 387 320 327 c 0
 356 309 417 296 469 296 c 0
 517 296 587 304 622 315 c 0
 678 331 699 345 699 375 c 0
 699 396 688 425 672 467 c 0
 654 516 629 584 618 619 c 0
 612 641 607 660 607 675 c 0
 607 698 617 711 640 711 c 0
 682 711 706 681 720 635 c 0
 731 601 754 540 772 499 c 0
 790 458 798 440 810 440 c 0
 820 440 831 452 854 474 c 0
 930 545 1003 723 1031 849 c 0
 1044 903 1050 952 1050 1005 c 0
762 1548 m 0
 870 1548 905 1539 962 1496 c 0
 1003 1464 1042 1407 1077 1336 c 0
 1125 1235 1128 1207 1134 1038 c 0
 1135 998 1137 966 1137 938 c 0
 1137 848 1128 805 1097 712 c 0
 1045 554 1025 506 930 415 c 0
 895 380 870 339 870 317 c 0
 870 258 1028 107 1071 89 c 0
 1095 78 1199 69 1304 69 c 0
 1441 69 1495 63 1501 49 c 0
 1507 38 1490 20 1466 10 c 0
 1429 -2 1249 -21 1164 -21 c 0
 1113 -21 1074 -17 1046 -7 c 0
 1007 4 935 59 864 129 c 0
 800 193 738 245 728 245 c 0
 718 245 679 234 643 220 c 0
 607 206 531 196 475 195 c 0
 315 195 258 218 166 308 c 0
 62 407 48 466 48 656 c 0
 48 935 135 1105 254 1272 c 0
 327 1373 469 1492 588 1528 c 0
 625 1541 698 1548 762 1548 c 0
EndSplineSet
EndChar

StartChar: R
Encoding: 82 82 27
Width: 1567
VWidth: -403
Flags: HW
LayerCount: 2
Fore
SplineSet
475 849 m 0
 460 849 435 795 435 770 c 0
 435 727 489 723 550 723 c 0
 595.230860103 723 611.492437753 724.997881548 611.492437753 736.759464247 c 0
 611.492437753 741.640087578 608.692284974 748.201965673 604 757 c 0
 594 775 559 805 527 824 c 0
 500 840 485 849 475 849 c 0
331 1102 m 0
 331 1188 325 1286 313 1286 c 0
 307 1286 297 1274 282 1254 c 0
 229 1184 180 1024 180 901 c 0
 180 792 211 579 254 512 c 0
 267 492 273 480 279 480 c 0
 295 480 308 606 308 644 c 0
 308 687 301 706 301 746 c 0
 301 786 306 839 314 880 c 0
 324 928 331 1020 331 1102 c 0
729 1488 m 0
 631 1480 496 1461 466 1381 c 0
 456 1355 449 1256 449 1162 c 0
 449 991 449 991 510 978 c 0
 550 970 607 929 665 870 c 0
 724 808 746 786 768 786 c 0
 780 786 792 793 810 803 c 0
 904 863 983 997 983 1144 c 0
 983 1275 928 1372 846 1434 c 0
 804 1464 751 1488 729 1488 c 0
718 1603 m 0
 719 1603 721 1603 722 1603 c 0
 762 1603 825 1581 884 1547 c 0
 964 1501 993 1471 1041 1373 c 0
 1089 1277 1100 1229 1100 1131 c 0
 1100 1064 1087 978 1071 938 c 0
 1055 900 998 826 942 776 c 0
 904 741 880 720 880 692 c 0
 880 648 941 588 1102 432 c 0
 1244 293 1393 157 1431 130 c 0
 1469 103 1508 66 1514 48 c 0
 1517 38 1519 29 1519 21 c 0
 1519 -10 1497 -24 1460 -24 c 0
 1439 -24 1372 16 1313 66 c 0
 1254 116 1100 260 970 386 c 0
 735 618 735 618 583 618 c 0
 474 618 428 610 420 592 c 0
 414 576 410 486 410 387 c 0
 410 253 403 204 382 186 c 0
 376 181 369 178 363 178 c 0
 343 178 318 203 254 272 c 0
 128 406 100 477 65 690 c 0
 54 757 48 821 48 882 c 0
 48 1098 117 1272 239 1394 c 0
 349 1504 390 1536 548 1574 c 0
 604 1590 681 1603 718 1603 c 0
EndSplineSet
EndChar

StartChar: S
Encoding: 83 83 28
Width: 1698
VWidth: -604
Flags: HW
LayerCount: 2
Fore
SplineSet
1207 1567 m 0
 1267 1581 1328 1591 1385 1591 c 0
 1457 1591 1523 1575 1576 1533 c 0
 1629 1491 1650 1457 1650 1413 c 0
 1650 1329 1513 1111 1464 1079 c 0
 1449.78729881 1069.99862258 1438.26794262 1065.71059891 1428.05960865 1065.71059891 c 0
 1416.72031315 1065.71059891 1406.99862258 1071.00137742 1397 1081 c 0
 1390 1088 1386 1095 1386 1106 c 0
 1386 1127 1401 1159 1431 1212 c 0
 1463 1267 1490 1340 1490 1372 c 0
 1490 1434 1438 1452 1373 1452 c 0
 1332 1452 1285 1445 1243 1436 c 0
 1112 1409 912 1301 857 1212 c 0
 842 1191 835 1177 835 1161 c 0
 835 1143 845 1123 863 1087 c 0
 884 1043 1036 874 1203 709 c 0
 1385 527 1527 365 1557 306 c 1
 1582 249 1604 178 1604 148 c 0
 1604 45 1429 15 1319 -10 c 0
 1257 -24 1170 -29 1072 -29 c 0
 840 -29 548 2 401 23 c 0
 287 38 164 70 122 91 c 0
 78 114 48 146 48 171 c 0
 48 214 70 229 101 229 c 0
 132 229 171 215 208 196 c 0
 259 171 377 138 476 125 c 0
 575 112 789 97 952 97 c 0
 974 97 995 96 1014 96 c 0
 1201 96 1274 105 1336 133 c 0
 1391 158 1422 188 1422 215 c 0
 1422 238 1391 300 1355 348 c 0
 1275 452 812 903 732 1007 c 0
 696 1055 666 1125 666 1159 c 0
 666 1197 692 1255 734 1301 c 0
 810 1390 1078 1537 1207 1567 c 0
EndSplineSet
EndChar

StartChar: T
Encoding: 84 84 29
Width: 2351
VWidth: -766
Flags: HW
LayerCount: 2
Fore
SplineSet
952 1296 m 0
 953 1292 1046 1082 1065 1082 c 0
 1084 1082 1101 1217 1104 1240 c 0
 1104.44444444 1245.77777778 1104.69135802 1251.01234568 1104.69135802 1255.76406036 c 0
 1104.69135802 1293.77777778 1088.88888889 1300.88888889 1032 1308 c 0
 1021 1309 1010.5 1309.5 1000.9375 1309.5 c 0
 972.25 1309.5 952 1305 952 1296 c 0
530 1528 m 0
 574 1528 668 1512 740 1490 c 0
 806 1470 856 1460 975 1460 c 0
 1070 1460 1209 1466 1434 1478 c 0
 1653 1489 1871 1496 2009 1496 c 0
 2069 1496 2114 1495 2136 1492 c 0
 2208 1482 2280 1460 2292 1446 c 0
 2304 1432 2308 1408 2298 1394 c 0
 2272 1350 1336 1360 1274 1310 c 0
 1248 1288 1240 1212 1240 974 c 0
 1240 736 1252 618 1290 470 c 0
 1317 365 1329 288 1329 220 c 0
 1329 198 1328 178 1326 158 c 0
 1308 48 1320 -30 1218 -30 c 0
 1182 -30 1140 -16 1124 0 c 0
 1104 20 1096 116 1096 278 c 0
 1096 438 1082 574 1058 660 c 0
 1022 788 842 1186 768 1270 c 0
 746 1294 704 1312 676 1312 c 0
 576 1312 292 1210 226 1166 c 1
 182 1142 130 1120 106 1120 c 0
 82 1120 60 1138 50 1160 c 0
 48.903262505 1163.01602811 48.3703530411 1166.37035304 48.3703530411 1170.02690313 c 0
 48.3703530411 1193.04255202 69.4836874749 1228.03205622 104 1266 c 0
 168 1334 410 1528 530 1528 c 0
EndSplineSet
EndChar

StartChar: U
Encoding: 85 85 30
Width: 1469
VWidth: -499
Flags: HW
LayerCount: 2
Fore
SplineSet
304 1584 m 0
 344 1584 381 1532 381 1483 c 0
 381 1458 370 1436 345 1402 c 0
 277 1303 195 925 179 768 c 0
 175 731 174 696 174 662 c 0
 174 499 217 372 304 280 c 0
 383 194 403 185 493 185 c 0
 641 185 774 298 853 381 c 0
 938 471 1033 624 1033 790 c 0
 1033 977 1072 1245 1130 1382 c 0
 1161 1447 1198 1506 1218 1515 c 0
 1222.02381459 1516.40833511 1226.53336169 1517.08807144 1231.34947903 1517.08807144 c 0
 1250.47142958 1517.08807144 1274.42619605 1506.37261322 1292 1488 c 0
 1310 1470 1319 1458 1319 1426 c 0
 1319 1385 1303 1313 1268 1155 c 0
 1234 995 1195 788 1184 698 c 0
 1175 639 1171 595 1171 556 c 0
 1171 436 1230 273 1272 199 c 0
 1295 158 1338 109 1369 91 c 0
 1398 71 1421 43 1421 25 c 0
 1421 0 1368 -27 1326 -27 c 0
 1313 -27 1301 -25 1292 -19 c 0
 1249 10 1078 259 1065 318 c 0
 1056 352 1047 379 1040 379 c 0
 1031 379 969 325 901 260 c 0
 833 193 735 123 683 100 c 0
 631 77 548 57 494 57 c 0
 354 57 230 127 165 210 c 0
 134 251 93 345 73 422 c 0
 55 492 48 573 48 656 c 0
 48 822 77 1001 106 1144 c 0
 128 1252 169 1389 194 1447 c 0
 219 1508 253 1560 266 1569 c 0
 279 1580 292 1584 304 1584 c 0
EndSplineSet
EndChar

StartChar: V
Encoding: 86 86 31
Width: 1660
VWidth: -460
Flags: HW
LayerCount: 2
Fore
SplineSet
48 1448 m 0
 48 1493 95 1521 134 1521 c 0
 158 1521 194 1497 214 1469 c 1
 230 1437 268 1307 300 1175 c 0
 358 911 432 585 532 379 c 0
 568 309 604 253 616 253 c 0
 628 253 672 331 716 427 c 0
 846 693 866 787 1042 1041 c 0
 1124 1159 1250 1315 1324 1389 c 0
 1377 1443 1496 1562 1565 1562 c 0
 1582 1562 1612 1550 1612 1517 c 0
 1612 1495 1537 1398 1440 1301 c 0
 1342 1201 1232 1065 1198 1001 c 0
 1094 807 1046 761 948 511 c 0
 898 389 826 225 790 149 c 0
 750 65 700 -3 666 -19 c 0
 649.550004133 -26.4772708487 636.17503513 -30.32041904 623.784837652 -30.32041904 c 0
 603.034073062 -30.32041904 585.045458303 -19.5409124724 560 3 c 0
 532 27 480 111 442 187 c 0
 352 359 268 641 216 851 c 0
 170 1035 118 1187 70 1351 c 0
 55 1396 48 1426 48 1448 c 0
EndSplineSet
EndChar

StartChar: W
Encoding: 87 87 32
Width: 1578
VWidth: -410
Flags: HW
LayerCount: 2
Fore
SplineSet
100 1589 m 0
 190 1589 199 1523 221 1426 c 0
 264 1235 351 670 394 468 c 0
 417 356 447 241 458 212 c 0
 472 181 491 169 502 180 c 0
 524 202 673 799 673 846 c 0
 673 892 697 934 740 934 c 0
 780 934 837 889 847 871 c 0
 856 860 869 750 878 626 c 0
 887 504 899 376 908 344 c 0
 917.472729207 313.476761443 922.237266511 299.016765852 928.269352125 299.016765852 c 0
 933.699384626 299.016765852 940.156568344 310.734348486 952 333 c 0
 961 351 1366 1536 1380 1550 c 0
 1388.86859405 1558.86859405 1411.38752835 1565.1371233 1434.97921056 1565.1371233 c 0
 1440.64904407 1565.1371233 1446.38083887 1564.77505671 1452 1564 c 0
 1486 1560 1507 1535 1520 1490 c 0
 1526 1472 1530 1457 1530 1442 c 0
 1530 1412 1516 1385 1486 1339 c 0
 1454 1292 1353 1019 1258 731 c 0
 1148 400 1063 182 1027 135 c 0
 986 81 953 59 910 59 c 0
 878 59 838 74 824 92 c 0
 811 110 781 179 759 247 c 0
 740.713998204 306.845096788 723.809723109 342.509976304 714.60373895 342.509976304 c 0
 712.733947565 342.509976304 711.181726701 341.038725803 710 338 c 0
 688 279 633 69 597 22 c 0
 577 -7 539 -27 514 -27 c 0
 437 -27 346 62 323 121 c 0
 276 251 192 689 167 855 c 0
 149 954 114 1107 91 1193 c 0
 68 1281 48 1406 48 1471 c 0
 48 1581 53 1589 100 1589 c 0
EndSplineSet
EndChar

StartChar: X
Encoding: 88 88 33
Width: 1304
VWidth: -208
Flags: HW
LayerCount: 2
Fore
SplineSet
217 1481 m 0
 217 1511 243 1526 274 1526 c 0
 300 1526 331 1505 358 1469 c 0
 382 1436 424 1364 452 1310 c 0
 479 1256 542 1143 592 1062 c 0
 642 980 684 912 692 912 c 0
 700 912 739 958 781 1016 c 0
 865 1130 1018 1310 1078 1436 c 0
 1098 1481 1128 1529 1144 1541 c 0
 1160 1551 1184 1562 1196 1562 c 0
 1211 1562 1232 1547 1232 1527 c 0
 1232 1504 1213 1449 1187 1395 c 0
 1124 1257 905 1005 824 888 c 0
 794 846 772 802 772 785 c 0
 772 783 772 781 773 780 c 0
 797 726 1080 308 1112 263 c 0
 1138 225 1180 170 1208 137 c 0
 1235 104 1256 57 1256 33 c 0
 1256 -8 1238 -23 1211 -23 c 0
 1151 -23 1104 18 1078 66 c 0
 1060 99 964 254 866 410 c 0
 767 566 682 693 676 693 c 0
 675.836021006 693.054659665 675.654862858 693.081683299 675.456974647 693.081683299 c 0
 668.414122805 693.081683299 640.18010503 658.852147042 611 618 c 0
 581 574 457 431 335 297 c 0
 213 163 99 53 83 53 c 0
 64 53 48 78 48 111 c 0
 48 151 92 204 265 392 c 0
 387 524 510 664 538 702 c 0
 565 740 587 785 587 800 c 0
 587 815 533 913 469 1019 c 0
 401 1124 330 1231 304 1257 c 0
 267 1299 217 1403 217 1481 c 0
EndSplineSet
EndChar

StartChar: Y
Encoding: 89 89 34
Width: 951
VWidth: -50
Flags: HW
LayerCount: 2
Fore
SplineSet
321 89 m 0
 321 53 248 -20 217 -20 c 0
 185 -20 155 10 155 44 c 0
 155 58 171 100 192 138 c 0
 210 176 255 261 290 325 c 0
 325 389 393 529 441 636 c 0
 488 740 509 788 509 824 c 0
 509 855 492 878 461 918 c 0
 423 966 365 1031 334 1061 c 0
 264 1125 113 1310 70 1400 c 0
 57 1430 48 1462 48 1480 c 0
 48 1501 71 1514 88 1514 c 0
 105 1514 137 1488 160 1456 c 0
 182 1424 201 1390 201 1384 c 0
 201 1378 224 1344 250 1306 c 0
 276 1270 351 1187 417 1119 c 0
 481 1051 548 990 564 982 c 0
 570 979 575 976 580 976 c 0
 594 976 606 993 629 1040 c 0
 680 1136 735 1310 779 1410 c 0
 804 1470 819 1483 850 1483 c 0
 889 1483 903 1459 903 1426 c 0
 903 1392 890 1350 874 1313 c 0
 856 1265 758 1070 663 880 c 0
 569 690 450 449 399 344 c 0
 338 217 316 160 316 126 c 0
 316 113 321 100 321 89 c 0
EndSplineSet
EndChar

StartChar: Z
Encoding: 90 90 35
Width: 1389
VWidth: -214
Flags: HW
LayerCount: 2
Fore
SplineSet
437 96 m 0
 587 96 924 110 1123 110 c 0
 1220 110 1293 107 1307 102 c 0
 1332 94 1343 76 1340 58 c 0
 1334 33 1306 27 1116 19 c 0
 994 12 778 -2 635 -12 c 0
 543 -18 463 -21 400 -21 c 0
 348 -21 306 -18 280 -14 c 0
 219 -4 48 22 48 76 c 0
 48 95 114 173 226 285 c 0
 327 384 444 518 490 581 c 0
 539 650 558 677 558 698 c 0
 558 718.517985612 508.659282646 774.051964184 508.659282646 796.447851315 c 0
 508.659282646 799.15703121 509.381294964 801.381294964 511 803 c 0
 517 809 554 813 593 813 c 0
 664 813 664 814 749 971 c 0
 797 1055 848 1158 863 1199 c 0
 877 1240 888 1303 888 1338 c 0
 888 1412 857 1435 797 1435 c 0
 702 1435 565 1397 500 1367 c 0
 458 1349 365 1312 292 1285 c 0
 219 1258 183 1246 161 1246 c 0
 136.996811374 1246 118.474270207 1269.29275171 118.474270207 1290.92854542 c 0
 118.474270207 1295.43252952 119.276961595 1299.86470783 121 1304 c 0
 127 1318 170 1343 219 1360 c 0
 327 1398 470 1482 590 1503 c 0
 660 1518 735 1538 803 1538 c 0
 853 1538 899 1527 937 1496 c 0
 984 1455 1001 1433 1001 1383 c 0
 1001 1357 997 1324 989 1276 c 0
 975 1192 945 1110 878 984 c 0
 830 889 787 803 792 803 c 0
 806 803 993 842 1029 842 c 0
 1053.63205453 842 1068.23537997 831.971270901 1068.23537997 813.577302279 c 0
 1068.23537997 807.32854515 1066.55003747 800.114371362 1063 792 c 0
 1057 777 1031 756 1000 746 c 0
 969 736 888 719 819 708 c 0
 694 688 693 688 609 576 c 0
 563 513 459 386 376 292 c 0
 297 202 237 123 237 110 c 0
 237 101 339 96 437 96 c 0
EndSplineSet
EndChar

StartChar: Adieresis
Encoding: 196 196 36
Width: 1359
VWidth: -105
Flags: HW
LayerCount: 2
Fore
SplineSet
870 975 m 0
 870 987 867 986 861 976 c 0
 857 969 827 897 794 815 c 0
 760 734 720 643 706 614 c 0
 692 587 684 564 684 546 c 0
 684 517 702 498 742 481 c 0
 774 467 810 449 835 449 c 0
 851 449 852 473 853 612 c 0
 853 704 857 825 863 879 c 0
 867 921 870 959 870 975 c 0
1227 405 m 0
 1227 371 1153 353 1114 351 c 0
 1089 351 1041 347 1007 343 c 0
 961 338 950 337 950 315 c 0
 950 269 966 220 985 167 c 0
 997 132 1003 110 1003 90 c 0
 1003 77 1000 65 995 51 c 0
 984 20 973 10 949 10 c 0
 925 10 914 22 894 66 c 0
 865 125 723 345 682 389 c 0
 667 404 645 418 634 418 c 0
 623 418 614 412 614 404 c 0
 614 396 588 335 556 268 c 0
 524 202 479 123 457 92 c 0
 409 26 347 -16 240 -16 c 0
 178 -16 162 -11 122 24 c 0
 64 74 48 130 48 232 c 0
 48 289 54 310 82 344 c 0
 102 366 122 385 126 385 c 0
 130 385 134 336 134 274 c 0
 136 164 144 116 192 79 c 0
 204 70 225 63 243 63 c 0
 295 63 377 116 400 151 c 0
 415 174 541 413 541 458 c 0
 541 474 533 483 520 500 c 0
 502 524 479 563 470 587 c 0
 462.870325885 603.805660413 459.371526984 615.683704466 459.371526984 625.275658385 c 0
 459.371526984 634.518696459 462.620411678 641.638936552 469 649 c 0
 478 660 499 669 514 669 c 0
 529 669 558 660 573 648 c 0
 588 637 607 632 614 636 c 0
 637 651 691 770 700 801 c 0
 706 820 720 857 733 886 c 0
 746 915 778 998 804 1067 c 0
 830 1136 852 1201 852 1209 c 0
 852 1232 904 1324 920 1331 c 0
 929 1335 936 1336 942 1336 c 0
 973 1336 992 1282 992 1237 c 0
 992 1200 986 1138 972 1025 c 0
 957 893 942 717 942 617 c 0
 942 486 947 437 960 429 c 0
 967 423 1014 421 1069 421 c 0
 1097 421 1137 423 1160 423 c 0
 1215 423 1227 417 1227 405 c 0
776 1485 m 0
 796 1485 823 1473 823 1447 c 0
 823 1434 819 1414 812 1382 c 0
 803 1337 795 1273 794 1238 c 0
 793 1177 786 1170 742 1170 c 0
 722 1170 719 1182 712 1229 c 0
 710 1250 709 1272 709 1295 c 0
 709 1358 718 1423 740 1454 c 0
 751 1472 767 1485 776 1485 c 0
1221 1474 m 0
 1221 1505 1225 1525 1250 1525 c 0
 1284 1525 1311 1501 1311 1467 c 0
 1311 1452 1308 1432 1301 1404 c 0
 1292 1366 1280 1299 1276 1255 c 0
 1269 1195 1262 1174 1243 1172 c 0
 1230 1170 1212 1174 1201 1182 c 0
 1187 1194 1181 1228 1181 1294 c 0
 1181 1357 1188 1397 1201 1415 c 0
 1212 1428 1221 1455 1221 1474 c 0
EndSplineSet
EndChar

StartChar: Odieresis
Encoding: 214 214 37
Width: 1070
VWidth: -213
Flags: HW
LayerCount: 2
Fore
SplineSet
722 927 m 0
 667 950 603 962 535 962 c 0
 494 962 452 957 409 948 c 0
 299 924 269 902 215 823 c 0
 162 741 145 649 145 511 c 0
 145 419 152 384 194 282 c 0
 222 215 257 148 273 131 c 0
 311 89 393 66 476 66 c 0
 596 66 692 95 787 143 c 0
 859 178 884 200 907 244 c 0
 932 295 942 369 942 447 c 0
 942 561 920 684 891 754 c 0
 873 801 864 809 829 809 c 0
 792 809 787 815 787 853 c 0
 787 890 780 902 722 927 c 0
801 1008 m 0
 801 1034 653 1073 626 1073 c 0
 576 1073 496 1051 477 1038 c 0
 470.500901127 1034.19564944 467.695453691 1031.5220085 467.695453691 1029.71620067 c 0
 467.695453691 1027.37944141 472.393172492 1026.49586777 479.864012021 1026.49586777 c 0
 503.041322314 1026.49586777 552.909090909 1035 572 1035 c 0
 612 1035 653 1029 697 1018 c 0
 744 1005 788 995 793 995 c 0
 798 995 801 1001 801 1008 c 0
915 995 m 0
 915 977 910 942 910 922 c 0
 910 891 917 873 939 845 c 0
 957 821 983 772 996 736 c 0
 1014 689 1021 622 1022 466 c 0
 1022 443 1022 423 1022 405 c 0
 1022 267 1018 248 989 199 c 0
 915 71 776 23 597 -6 c 0
 551 -13 498 -18 446 -18 c 0
 372 -18 300 -8 261 17 c 0
 128 102 73 267 50 469 c 0
 48 487 48 506 48 526 c 0
 48 645 75 782 115 849 c 0
 174 950 309 1049 423 1105 c 0
 495 1140 519 1150 574 1150 c 0
 661 1150 763 1138 809 1114 c 0
 840 1097 877 1071 893 1054 c 0
 908 1038 915 1022 915 995 c 0
466 1484 m 0
 466 1508 480 1523 501 1523 c 0
 515 1523 533 1514 540 1506 c 0
 547 1497 552 1451 552 1399 c 0
 552 1327.05165288 547.989231932 1247.08176963 508.268923595 1247.08176963 c 0
 499.4073357 1247.08176963 488.768360248 1251.06214783 476 1260 c 0
 453 1276 445 1296 445 1338 c 0
 445 1368 453 1397 461 1403 c 0
 468 1406 469 1416 469 1429 c 0
 469 1446 466 1468 466 1484 c 0
738 1537 m 0
 766 1537 769 1521 769 1490 c 0
 769 1463 767 1422 763 1380 c 0
 751 1262 751 1259 716 1259 c 0
 686 1259 681 1263 681 1312 c 0
 681 1395 693 1467 709 1521 c 0
 714 1529 725 1537 738 1537 c 0
EndSplineSet
EndChar

StartChar: Udieresis
Encoding: 220 220 38
Width: 1067
VWidth: -195
Flags: HW
LayerCount: 2
Fore
SplineSet
949 194 m 0
 905 194 834 249 834 295 c 0
 834 327 830 339 822 339 c 0
 809 339 788 304 768 266 c 0
 688 95 549 -20 299 -20 c 0
 254 -20 239 -8 192 33 c 0
 136 80 120 108 88 215 c 0
 59 306 48 375 48 458 c 0
 48 600 103 866 138 971 c 0
 152 1014 190 1099 222 1160 c 0
 273 1252 290 1272 321 1272 c 0
 359 1272 372 1252 372 1221 c 0
 372 1167 339 1077 311 1058 c 0
 293 1046 261 980 234 894 c 0
 194 765 150 607 150 466 c 0
 150 410 159 367 175 291 c 0
 193 217 263 87 340 87 c 0
 414 87 541 134 585 170 c 0
 608 192 646 244 668 291 c 0
 717 392 794 632 820 756 c 0
 829 807 844 905 849 971 c 0
 857 1065 863 1094 885 1108 c 0
 893.719564564 1113.30756104 900.71442275 1116.31551357 907.401262616 1116.31551357 c 0
 918.352610504 1116.31551357 928.47778757 1108.24754341 944 1089 c 0
 966 1062 972 1029 972 951 c 0
 972 824 927 604 927 477 c 0
 927 425 935 365 944 343 c 0
 953 323 973 301 989 298 c 0
 1006 293 1019 277 1019 261 c 0
 1019 222 991 194 949 194 c 0
786 1212 m 0
 786 1155 778 1125 738 1125 c 0
 710 1125 687 1152 678 1177 c 0
 671 1197 664 1203 657 1203 c 0
 643 1203 627 1180 603 1180 c 0
 589 1180 563 1194 545 1211 c 0
 516 1238 511 1259 511 1349 c 0
 511 1407 517 1471 525 1491 c 0
 534 1513 548 1580 569 1580 c 0
 575 1580 590 1572 599 1563 c 0
 606 1556 611 1534 611 1503 c 0
 611 1477 606 1441 606 1415 c 0
 606 1375 612 1344 625 1314 c 0
 635.752443412 1285.32681757 652.927944563 1263.07669288 662.857672906 1263.07669288 c 0
 664.009773646 1263.07669288 665.064332559 1263.37622171 666 1264 c 0
 674 1269 681 1300 681 1331 c 0
 681 1363 690 1403 702 1420 c 0
 714 1437 726 1468 729 1488 c 0
 732 1520 753 1533 786 1533 c 0
 797 1533 801 1527 801 1508 c 0
 801 1493 798 1469 794 1431 c 0
 788 1386 784 1322 784 1274 c 0
 784 1252 786 1233 786 1212 c 0
EndSplineSet
EndChar

StartChar: uni1E9E
Encoding: 7838 7838 39
Width: 1049
VWidth: 0
Flags: HW
LayerCount: 2
Fore
SplineSet
858 1303 m 0
 858 1351 855 1362 832 1362 c 0
 816 1362 785 1357 757 1347 c 0
 667 1317 499 1221 432 1161 c 0
 348 1083 267 940 224 816 c 0
 186 696 159 534 139 403 c 0
 133 357 127 289 127 254 c 0
 127 178 140 122 176 83 c 0
 190 69 198 51 193 44 c 0
 189 37 178 31 171 31 c 0
 163 31 138 44 114 59 c 0
 76 85 70 97 57 170 c 0
 51 201 48 225 48 253 c 0
 48 288 53 330 61 400 c 0
 97 674 126 883 252 1075 c 0
 313 1168 363 1220 454 1283 c 0
 544 1343 615 1383 723 1419 c 0
 766 1434 823 1447 850 1447 c 0
 929 1447 949 1399 949 1311 c 0
 949 1199 921 1135 873 1061 c 0
 854 1032 843 1017 843 1000 c 0
 843 981 858 960 890 916 c 0
 922 872 961 812 975 782 c 0
 995 738 1001 686 1001 605 c 0
 1001 534 996 512 969 457 c 0
 928 371 831 282 739 248 c 0
 700 233 656 221 642 221 c 0
 621 221 604 237 604 256 c 0
 604 290 642 301 687 314 c 0
 781 337 843 384 883 468 c 0
 908 522 923 568 923 617 c 0
 923 655 915 694 895 741 c 0
 872 797 840 848 786 908 c 0
 741 958 717 992 717 1005 c 0
 717 1015 743 1038 761 1052 c 0
 779 1067 807 1109 825 1145 c 0
 852 1200 858 1238 858 1303 c 0
EndSplineSet
EndChar

StartChar: a
Encoding: 97 97 40
Width: 1263
VWidth: -252
Flags: HW
LayerCount: 2
Fore
SplineSet
549 454 m 0
 531 454 504 469 504 491 c 0
 504 527 572 582 572 606 c 0
 572 638 492 705 458 705 c 0
 437 705 384 677 339 643 c 0
 287 605 242 551 212 487 c 0
 184 433 161 362 161 328 c 0
 161 252 226 152 266 120 c 0
 282 108 322 97 354 97 c 0
 386 97 455 115 503 136 c 0
 621 187 705 286 720 436 c 0
 728 494 747 574 767 612 c 0
 787 650 812 691 828 703 c 0
 840.426406871 712.941125497 866.578643763 718.764501988 891.106063312 718.764501988 c 0
 896.185858225 718.764501988 901.195959493 718.514718626 906 718 c 0
 949 712 962 700 962 642 c 0
 962 601 944 533 911 456 c 0
 883 382 858 304 858 282 c 0
 858 255 880 214 912 184 c 0
 962 138 981 133 1092 133 c 0
 1202 133 1215 129 1215 99 c 0
 1215 36 1146 13 1073 13 c 0
 1041 13 1008 18 980 25 c 0
 940 37 863 75 815 109 c 0
 771 142 749 157 731 157 c 0
 714 157 699 144 672 118 c 0
 615 64 512 3 428 -15 c 0
 410 -20 390 -23 370 -23 c 0
 287 -23 198 16 158 54 c 0
 87 125 48 175 48 314 c 0
 48 319 48 325 48 330 c 0
 48 412 59 467 86 519 c 0
 119 585 325 807 405 817 c 0
 429 822 451 824 470 824 c 0
 538 824 579 795 630 741 c 0
 684 684 696 655 696 597 c 0
 696 534 689 520 639 490 c 0
 607 470 567 454 549 454 c 0
EndSplineSet
Substitution2: "ss02" a.ss02
Substitution2: "ss01" a.ss01
EndChar

StartChar: b
Encoding: 98 98 41
Width: 1044
VWidth: -236
Flags: HW
LayerCount: 2
Fore
SplineSet
734 573 m 0
 699 596 645 622 598 622 c 0
 565 622 537 607 480 565 c 0
 430 528 380 484 369 463 c 0
 359 442 350 389 350 346 c 0
 350 303 341 251 331 232 c 0
 324.96512924 221.941882067 321.740417823 213.794672487 321.740417823 206.616207458 c 0
 321.740417823 192.383713468 334.416635704 181.959317447 363 168 c 0
 415 141 569 87 667 87 c 0
 726 87 780 111 816 139 c 0
 856 169 864 193 864 275 c 0
 864 397 803 519 734 573 c 0
331 1451 m 0
 339 1451 360 1439 376 1421 c 0
 392 1405 400 1384 400 1341 c 0
 400 1321 398 1296 395 1264 c 0
 382 1107 352 891 333 749 c 0
 329 721 327 698 327 680 c 0
 327 651 332 636 345 636 c 0
 356 636 371 646 393 666 c 0
 446 711 538 746 637 746 c 0
 768 746 875 618 929 512 c 0
 966 437 996 351 996 266 c 0
 996 153 943 75 870 23 c 0
 815 -14 782 -24 688 -24 c 0
 680 -24 673 -24 664 -24 c 0
 554 -24 505 -13 406 35 c 0
 337 67 240 130 184 176 c 0
 131 222 75 280 62 304 c 0
 52.5961339477 320.568716378 47.804404006 331.723186017 47.804404006 341.414473201 c 0
 47.804404006 353.365033076 55.0906849244 363.090684924 70 378 c 0
 82.7529528017 392.347071902 92.3999752964 399.070496687 102.241882702 399.070496687 c 0
 110.921629175 399.070496687 119.752952802 393.841166299 131 384 c 0
 147 371 163 364 166 367 c 0
 169 370 184 495 195 642 c 0
 206 789 226 1010 237 1136 c 0
 248 1267 269 1384 285 1408 c 0
 301 1430 321 1451 331 1451 c 0
EndSplineSet
EndChar

StartChar: c
Encoding: 99 99 42
Width: 1392
VWidth: -276
Flags: HW
LayerCount: 2
Fore
SplineSet
796 837 m 0
 886 837 1050 781 1050 706 c 0
 1050 675 1026 651 980 625 c 0
 943 605 908 580 908 572 c 0
 908 562 887 557 861 557 c 0
 817 557 796 570 796 591 c 0
 796 606 807 625 827 645 c 0
 851 669 868 695 868 703 c 0
 868 711 837 716 796 716 c 0
 759 716 657 689 577 655 c 0
 460 607 403 569 325 482 c 0
 271 421 220 349 213 320 c 0
 210 311 209 303 209 294 c 0
 209 221 292 156 347 130 c 0
 398 104 465 92 601 92 c 0
 713 92 861 109 983 135 c 0
 1103 161 1216 183 1274 183 c 0
 1322 183 1344 170 1344 153 c 0
 1344 137 1326 117 1293 98 c 0
 1259 76 1133 39 1014 13 c 0
 878 -15 794 -25 676 -25 c 0
 642 -25 606 -25 565 -23 c 0
 380 -16 318 -6 252 30 c 1
 169 69 71 159 52 249 c 0
 50 258 48 267 48 278 c 0
 48 305 56 336 69 363 c 0
 122 477 239 585 349 665 c 1
 461 740 633 837 796 837 c 0
EndSplineSet
EndChar

StartChar: d
Encoding: 100 100 43
Width: 1472
VWidth: -229
Flags: HW
LayerCount: 2
Fore
SplineSet
527 495 m 0
 527 546 506 620 490 643 c 0
 468 668 446 679 418 679 c 0
 395 679 369 671 336 657 c 0
 241 614 204 553 168 444 c 0
 155 402 149 375 149 345 c 0
 149 322 153 297 160 262 c 0
 177 175 214 91 301 91 c 0
 339 91 370 109 427 169 c 0
 467 211 486 231 486 242 c 0
 486 251 472 254 448 260 c 0
 412 270 397 286 397 307 c 0
 397 327 417 350 446 365 c 0
 498 393 527 427 527 495 c 0
853 1235 m 0
 846 1235 835 1215 825 1190 c 0
 797 1116 699 714 686 619 c 0
 682 592 681 570 681 554 c 0
 681 534 684 522 689 522 c 0
 721 522 816 812 824 846 c 0
 839 900 857 1096 857 1192 c 0
 857 1218 856 1235 853 1235 c 0
1389 318 m 0
 1410 318 1424 299 1424 281 c 0
 1424 266 1392 242 1350 224 c 0
 1277 193 1070 148 943 148 c 0
 862 148 794 172 735 209 c 0
 704 228 686 240 667 240 c 0
 637 240 608 208 530 127 c 0
 431 22 392 -9 342 -17 c 0
 326 -20 312 -21 298 -21 c 0
 225 -21 177 17 132 62 c 0
 61 129 48 208 48 349 c 0
 48 427 59 487 79 532 c 0
 113 605 214 712 280 746 c 0
 310 761 372 782 425 782 c 0
 480 782 521 755 556 728 c 0
 571.674803886 716.80371151 580.730764722 710.621698058 586.671097749 710.621698058 c 0
 593.994832168 710.621698058 596.582812317 720.018358505 601 741 c 0
 646 922 698 1222 779 1359 c 0
 799 1395 827 1437 842 1448 c 0
 855 1458 871 1467 877 1467 c 0
 884 1467 902 1450 920 1432 c 0
 944 1405 950 1378 950 1227 c 0
 950 1205 950 1181 950 1154 c 0
 947 873 929 782 856 613 c 0
 838 568 803 503 782 469 c 0
 761 434 744 393 744 375 c 0
 744 357 769 324 798 300 c 0
 848 262 870 258 993 258 c 0
 1083 258 1175 269 1255 293 c 0
 1309 308 1364 318 1389 318 c 0
EndSplineSet
Substitution2: "ss01" d.ss01
EndChar

StartChar: e
Encoding: 101 101 44
Width: 1299
VWidth: -404
Flags: HW
LayerCount: 2
Fore
SplineSet
621 728 m 1
 492 706 337 602 267 498 c 0
 233 450 207 401 207 389 c 0
 207 377 242 367 284 367 c 0
 412 367 539 452 615 525 c 0
 656 566 690 615 690 639 c 0
 690 681 658 728 621 728 c 1
614 850 m 0
 701 850 760 813 796 750 c 0
 816 719 831 680 831 665 c 0
 831 651 821 607 811 566 c 0
 796 508 758 473 627 378 c 0
 494 283 446 260 366 252 c 0
 312 249 267 234 267 226 c 0
 267 218 278 203 292 191 c 0
 304 179 376 154 449 134 c 0
 546 108 665 97 910 95 c 0
 1150 93 1243 87 1250 68 c 0
 1253 56 1248 31 1236 17 c 0
 1212 -11 1074 -25 990 -25 c 0
 787 -25 471 6 354 38 c 0
 257 62 211 88 148 153 c 0
 93 208 48 262 48 334 c 0
 48 358 53 384 65 413 c 0
 77 445 109 502 138 539 c 0
 167 575 238 644 296 690 c 0
 357 734 439 789 481 811 c 0
 525 833 583 848 614 850 c 0
EndSplineSet
Substitution2: "ss02" e.ss02
Substitution2: "ss01" e.ss01
EndChar

StartChar: f
Encoding: 102 102 45
Width: 888
VWidth: -106
Flags: HW
LayerCount: 2
Fore
SplineSet
657 1192 m 0
 667 1234 677 1283 677 1310 c 0
 677 1322 675 1330 670 1330 c 0
 665 1330 656 1322 643 1302 c 0
 600 1240 530 1054 506 970 c 0
 502 952 471 836 471 789 c 0
 471 777 473 770 478 770 c 0
 488 770 525 840 563 925 c 0
 599 1010 642 1130 657 1192 c 0
800 551 m 0
 823 551 840 532 840 513 c 0
 840 496 829 474 815 467 c 0
 801 459 727 423 649 387 c 0
 571 351 489 307 468 287 c 0
 444 264 435 250 435 211 c 0
 435 193 437 170 440 138 c 0
 446 78 465 -43 485 -128 c 0
 503 -203 510 -251 510 -280 c 0
 510 -295 508 -304 504 -311 c 0
 494 -326 467 -350 443 -364 c 0
 423.392995634 -374.042611993 411.790281397 -379.282649907 402.28609549 -379.282649907 c 0
 391.916178505 -379.282649907 384.044509533 -373.044509533 371 -360 c 0
 356 -345 337 -298 329 -255 c 0
 321 -213 298 -158 278 -131 c 0
 257 -106 224 -81 206 -75 c 0
 163 -62 48 33 48 86 c 0
 48 110 55 136 62 144 c 0
 69 154 119 197 174 240 c 0
 278 317 278 318 285 448 c 0
 287 470 287 492 287 513 c 0
 287 558 284 595 278 606 c 0
 276 611 274 617 274 625 c 0
 274 645 282 674 296 707 c 0
 313 748 345 849 363 936 c 0
 408 1132 492 1333 605 1453 c 0
 657 1509 684 1528 707 1528 c 0
 712 1528 716 1527 721 1526 c 0
 774 1512 815 1460 815 1386 c 0
 815 1243 762 1071 713 945 c 0
 646 780 628 746 520 634 c 0
 464 575 443 540 436 488 c 0
 433.833674865 471.907298996 432.720872393 459.262490344 432.720872393 449.472775961 c 0
 432.720872393 427.629195983 438.261075328 420 450 420 c 0
 464 420 488 430 506 441 c 0
 533 458 737 551 800 551 c 0
EndSplineSet
EndChar

StartChar: g
Encoding: 103 103 46
Width: 827
VWidth: -2
Flags: HW
LayerCount: 2
Fore
SplineSet
381 439 m 0
 380.881966011 435.22291236 380.819660113 431.250776405 380.819660113 427.182259266 c 0
 380.819660113 396.78174607 384.298373876 361 394 361 c 0
 412 361 480 422 480 455 c 0
 480 461 478 466 472 470 c 0
 460 476 448 495 448 511 c 0
 448 551 507 631 507 682 c 0
 507 715 502 731 485 710 c 0
 456 672 381 509 381 439 c 0
632 726 m 0
 632 693 623 642 623 612 c 0
 623 590 631 588 654 588 c 0
 676 588 700 573 716 550 c 0
 747 507 779 294 779 192 c 0
 779 30 739 -106 688 -228 c 0
 676 -257 644 -301 617 -327 c 0
 575 -366 556 -373 465 -378 c 0
 449 -379 433 -380 419 -380 c 0
 374 -380 341 -374 321 -365 c 0
 253 -323 147 -220 99 -148 c 0
 68 -106 48 -57 48 -31 c 0
 48 5 68 47 102 47 c 0
 130 47 147 15 164 -23 c 0
 203 -109 256 -176 338 -228 c 0
 377 -253 427 -274 452 -274 c 0
 475 -274 509 -267 525 -258 c 0
 541 -250 575 -191 602 -126 c 0
 640 -37 664 64 664 169 c 0
 664 216 660 263 649 311 c 0
 639 362 625 404 619 404 c 0
 614 404 576 366 533 319 c 0
 463 244 448 235 391 235 c 0
 351 235 314 245 288 267 c 0
 253 294 248 310 248 387 c 0
 248 539 323 695 398 790 c 0
 459 867 478 881 520 881 c 0
 602 881 632 812 632 726 c 0
EndSplineSet
EndChar

StartChar: h
Encoding: 104 104 47
Width: 1056
VWidth: -278
Flags: HW
LayerCount: 2
Fore
SplineSet
139 -26 m 0
 39 -26 51 90 48 211 c 0
 48 456 109 862 135 1112 c 0
 145 1214 152 1316 152 1372 c 0
 152 1392.88888889 150.024691358 1412.98765432 150.024691358 1431.33058985 c 0
 150.024691358 1454.25925926 153.111111111 1474.44444444 167 1490 c 0
 181 1505 200 1520 208 1520 c 0
 216 1520 237 1502 257 1480 c 0
 278 1456 286 1434 286 1362 c 0
 286 1029 220 734 194 439 c 0
 190 391 188 346 188 316 c 0
 188 289 189 273 192 273 c 0
 199 273 223 305 245 346 c 0
 320 472 442 605 575 692 c 0
 643 738 720 776 752 776 c 0
 862 776 910 640 937 521 c 0
 956 446 979 324 993 249 c 0
 1003 196 1008 161 1008 136 c 0
 1008 90 972 52 937 52 c 0
 922 52 896 82 881 118 c 0
 866 155 835 272 815 381 c 0
 793 490 767 587 755 599 c 0
 745 609 716 613 696 606 c 0
 674 599 609 546 548 488 c 0
 485 430 399 318 357 242 c 0
 315 164 258 71 232 35 c 0
 198 -11 171 -26 139 -26 c 0
EndSplineSet
EndChar

StartChar: i
Encoding: 105 105 48
Width: 544
VWidth: -284
Flags: HW
LayerCount: 2
Fore
SplineSet
219 516 m 0
 254 516 266 495 266 464 c 0
 266 428 250 379 235 334 c 0
 215 274 194 195 189 158 c 0
 185.593413823 136.424954212 183.798609505 117.428759399 183.798609505 105.037909678 c 0
 183.798609505 95.6048293812 184.838821814 90 187 90 c 0
 192 90 216 97 242 107 c 0
 268 115 322 151 360 185 c 0
 400 221 442 246 462 246 c 0
 487 246 496 239 496 215 c 0
 496 195 465 155 412 103 c 0
 351 44 306 17 250 -1 c 0
 214 -12 193 -18 175 -18 c 0
 161 -18 151 -14 139 -8 c 0
 75 22 48 63 48 126 c 0
 48 160 56 202 70 250 c 0
 87 306 119 388 142 434 c 0
 176 501 190 516 219 516 c 0
183 785 m 0
 183 846 186 857 240 857 c 0
 293 857 340 768 340 708 c 0
 340 665 329 649 311 649 c 0
 293 649 269 664 241 686 c 0
 193 724 183 739 183 785 c 0
EndSplineSet
Substitution2: "ss01" i.ss01
EndChar

StartChar: j
Encoding: 106 106 49
Width: 645
VWidth: -176
Flags: HW
LayerCount: 2
Fore
SplineSet
48 -166 m 0
 48 -143 74 -119 92 -119 c 0
 102 -119 126 -148 142 -182 c 0
 175 -247 207 -288 289 -288 c 0
 415 -288 464 -178 487 -69 c 0
 495 -32 501 41 501 93 c 0
 501 145 489 232 475 289 c 0
 461 345 449 403 449 415 c 0
 449 439 468 450 492 450 c 0
 514 450 531 427 549 388 c 0
 582 321 597 209 597 96 c 0
 597 -16 582 -128 551 -200 c 0
 525 -263 448 -345 389 -366 c 0
 370 -374 321 -380 279 -380 c 0
 207 -380 200 -377 137 -320 c 0
 94 -280 66 -243 57 -210 c 0
 51 -190 48 -177 48 -166 c 0
482 845 m 0
 514 845 563 764 563 730 c 0
 563 693 527 662 493 662 c 0
 450 662 433 714 433 758 c 0
 433 792 453 845 482 845 c 0
EndSplineSet
EndChar

StartChar: k
Encoding: 107 107 50
Width: 1147
VWidth: -297
Flags: HW
LayerCount: 2
Fore
SplineSet
1037 156 m 0
 1072 156 1099 130 1099 99 c 0
 1099 76 1068 37 1030 14 c 0
 981 -17 920 -27 841 -27 c 0
 652 -27 584 54 528 185 c 0
 513 219 504 238 490 238 c 0
 473 238 448 210 390 149 c 0
 327 84 255 34 217 25 c 0
 205 22 193 21 181 21 c 0
 152 21 125 30 98 47 c 0
 60 71 48 80 48 161 c 0
 48 199 51 254 55 335 c 0
 64 472 89 729 114 905 c 0
 137 1083 164 1260 168 1301 c 0
 181 1375 172 1472 251 1472 c 0
 321 1472 328 1442 328 1370 c 0
 328 1338 321 1249 310 1172 c 0
 291 1036 206 514 206 330 c 0
 206 290 215 218 229 218 c 0
 237 218 250 230 273 250 c 0
 298 275 372 380 435 479 c 1
 494 580 557 697 571 740 c 0
 590 794 620 826 654 826 c 0
 686 826 749 777 749 736 c 0
 749 713 737 680 715 614 c 0
 690 538 670 429 670 371 c 0
 670 244 726 109 837 109 c 0
 892 109 982 156 1037 156 c 0
EndSplineSet
EndChar

StartChar: l
Encoding: 108 108 51
Width: 1097
VWidth: -116
Flags: HW
LayerCount: 2
Fore
SplineSet
579 1166 m 0
 579 1176 578 1188 572 1188 c 0
 564 1188 546 1166 512 1113 c 0
 478 1061 421 958 383 882 c 0
 345 805 316 734 316 723 c 0
 316 720.65210047 317.323031729 719.516980025 319.710233055 719.516980025 c 0
 327.490423032 719.516980025 346.574118684 731.574118684 368 753 c 0
 438 819 523 950 557 1055 c 0
 571 1096 579 1142 579 1166 c 0
627 1443 m 0
 642 1443 668 1432 685 1415 c 0
 709 1394 715 1362 715 1271 c 0
 715 1127 673 993 627 901 c 0
 572 792 540 760 445 665 c 0
 393 610 339 569 298 558 c 0
 207 527 190 454 163 355 c 0
 155 324 152 301 152 278 c 0
 152 255 155 234 163 210 c 0
 190 123 211 109 319 98 c 0
 335 96 349 95 363 95 c 0
 410 95 447 105 509 130 c 0
 562 151 683 217 774 273 c 0
 865 332 952 386 967 396 c 0
 978 403 990 406 1003 406 c 0
 1027 406 1049 394 1049 371 c 0
 1049 360 1035 337 1020 320 c 0
 1003 303 937 253 873 208 c 0
 748 119 522 -21 340 -21 c 0
 230 -21 168 12 110 70 c 0
 60 120 48 153 48 228 c 0
 48 403 61 454 135 635 c 0
 222 846 379 1180 512 1335 c 0
 561 1395 613 1443 627 1443 c 0
EndSplineSet
EndChar

StartChar: m
Encoding: 109 109 52
Width: 1570
VWidth: -237
Flags: HW
LayerCount: 2
Fore
SplineSet
766 182 m 0
 766 210 758 292 745 292 c 0
 735 292 716 265 675 206 c 0
 633 145 571 76 536 54 c 0
 501 30 453 10 431 10 c 0
 390 10 382 40 382 84 c 0
 382 110 384 142 384 174 c 0
 389 316 393 308 411 449 c 0
 415 478 417 504 417 524 c 0
 417 544 415 556 411 556 c 0
 401 556 373 531 343 497 c 0
 314 465 257 391 219 337 c 0
 167 260 144 240 111 240 c 0
 82 240 48 257 48 279 c 0
 48 300 76 364 112 425 c 0
 150 491 246 609 323 692 c 0
 400 774 480 839 499 839 c 0
 517 839 546 825 565 807 c 0
 584 788 591 768 591 703 c 0
 591 651 580 455 580 408 c 0
 580 381 582 370 586 370 c 0
 589 370 594 378 600 390 c 0
 614 419 677 490 738 554 c 0
 799 618 861 670 874 670 c 0
 887 670 914 657 933 638 c 0
 957 617 968 580 968 513 c 0
 968 472 968 450 981 450 c 0
 998 450 1036 486 1125 570 c 0
 1211 653 1316 733 1351 751 c 0
 1386 770 1429 783 1447 783 c 0
 1465 783 1483 764 1493 742 c 0
 1503 718 1514 543 1517 354 c 0
 1520 245 1522 171 1522 120 c 0
 1522 11 1512 6 1483 -9 c 0
 1465 -20 1449 -24 1436 -24 c 0
 1375 -24 1363 75 1363 153 c 0
 1363 177 1359 199 1351 199 c 0
 1327 199 1356 538 1319 538 c 0
 1306 538 1244 486 1183 422 c 0
 1121 356 1047 272 1018 234 c 0
 989 196 930 146 885 124 c 0
 845 103 808 90 784 90 c 0
 754 90 743 109 757 129 c 0
 763 136 766 156 766 182 c 0
EndSplineSet
Substitution2: "ss01" m.ss01
EndChar

StartChar: n
Encoding: 110 110 53
Width: 1045
VWidth: -94
Flags: HW
LayerCount: 2
Fore
SplineSet
946 156 m 0
 946 144 932 142 932 124 c 0
 932 101 923 91 901 87 c 0
 869 78 890 105 907 105 c 0
 917 105 925 107 925 111 c 0
 925 124 901 117 917 136 c 0
 924 144 924 148 918 148 c 0
 914 148 910 151 910 155 c 0
 910 159 918 162 928 162 c 0
 938 162 946 160 946 156 c 0
80 155 m 0
 76 160 80 175 86 175 c 0
 96 175 111 126 99 126 c 0
 95 126 91 124 91 120 c 0
 91 116 96 112 103 112 c 0
 110 112 112 107 111 103 c 0
 106 90 81 95 70 88 c 0
 69 87 68 86 67 86 c 0
 66 86 65 88 65 90 c 0
 65 95 68 104 68 111 c 0
 68 116 67 120 63 120 c 0
 59 120 55 125 56 132 c 0
 56 139 58 141 60 136 c 0
 65 122 84 148 80 155 c 0
941 270 m 0
 948 270 942 258 942 251 c 0
 942 237 961 238 961 223 c 0
 961 217 956 213 949 213 c 0
 927 213 959 187 930 195 c 0
 924 197 904 204 904 212 c 0
 904 214 905 217 908 219 c 0
 925 229 915 270 941 270 c 0
946 362 m 0
 946 375 957 377 976 376 c 0
 993 375 996 374 996 355 c 0
 996 337 993 305 988 302 c 0
 985 300 982 302 982 306 c 0
 982 310 977 311 970 308 c 0
 959 304 959 305 971 315 c 0
 982 325 982 326 974 340 c 0
 968 348 961 357 956 357 c 0
 951 357 946 359 946 362 c 0
939 420 m 0
 939 441 953 464 969 464 c 0
 976 464 981 448 990 453 c 0
 994 456 997 446 997 430 c 0
 997 412 993 399 986 397 c 0
 973 391 972 429 963 434 c 0
 956 435 953 428 953 408 c 0
 953 382 952 378 938 378 c 0
 926 378 924 380 931 387 c 0
 936 392 939 406 939 420 c 0
83 442 m 0
 95 442 96 472 115 471 c 0
 134 471 113 463 113 453 c 0
 113 447 116 442 120 442 c 0
 124 442 127 439 127 433 c 0
 127 427 117 418 105 411 c 0
 66 391 89 428 62 428 c 0
 54 428 48 432 48 442 c 0
 48 454 51 457 62 450 c 0
 70 446 79 442 83 442 c 0
395 382 m 0
 395 390 398 415 398 425 c 0
 398 439 395 444 388 448 c 0
 378 454 378 456 390 470 c 0
 398 478 406 485 409 485 c 0
 422 488 421 459 415 448 c 0
 401 427 419 413 442 426 c 0
 453 432 466 435 470 435 c 0
 477 435 475 431 467 421 c 0
 460 413 446 407 438 407 c 0
 428 407 422 404 422 400 c 0
 422 396 429 393 437 393 c 0
 446 393 449 389 449 384 c 0
 449 376 441 366 433 365 c 0
 410 359 445 383 412 375 c 0
 407 374 403 373 400 373 c 0
 396 373 395 375 395 382 c 0
545 553 m 0
 550 548 563 543 574 543 c 0
 590 543 593 541 589 531 c 0
 585 523 566 486 557 486 c 0
 551 486 541 544 539 549 c 0
 535 559 537 560 545 553 c 0
685 514 m 0
 673 514 671 487 657 487 c 0
 653 487 648 488 643 488 c 0
 639 488 633 487 629 484 c 0
 621 478 622 477 632 481 c 0
 649 486 662 449 677 455 c 0
 681.911504425 456.991150442 686.118176835 457.854569661 689.641068628 457.854569661 c 0
 699.107767508 457.854569661 703.636873216 451.619802638 703.636873216 444.27905565 c 0
 703.636873216 433.772367471 694.358675298 421 677 421 c 0
 664 421 654 414 644 398 c 0
 636 385 630 372 630 369 c 0
 630 358 666 387 640 358 c 0
 618 335 605 360 589 335 c 0
 578 319 578 319 568 331 c 0
 560 344 558 344 558 330 c 0
 558 322 565 310 575 304 c 0
 590 293 591 287 596 187 c 0
 598 128 602 67 605 51 c 0
 606 43 607 36 607 31 c 0
 607 17 584 -13 572 -9 c 0
 568 -8 558 11 550 33 c 0
 542 55 534 102 532 139 c 0
 529 188 524 205 517 209 c 0
 499 214 522 191 502 196 c 0
 501 196 l 0
 494 196 477 188 463 177 c 0
 448 165 424 132 410 104 c 0
 396 76 375 47 365 40 c 0
 355 32 344 26 340 26 c 0
 328 26 314 66 314 77 c 0
 314 84 316 91 320 93 c 0
 333 103 348 202 348 223 c 0
 348 233 345 238 340 238 c 0
 335 238 326 234 316 228 c 0
 283 205 242 147 212 118 c 0
 197 103 188 97 181 97 c 0
 169.402622768 97 164.972434263 103.099735087 164.972434263 112.372720408 c 0
 164.972434263 136.681930068 195.418048469 182.798688616 207 198 c 0
 244 250 239 247 277 277 c 0
 289.051122893 286.03834217 311.313699432 302.451623084 311.313699432 317.266755455 c 0
 311.313699432 322.121335197 308.923315661 326.804318074 303 331 c 0
 295 336 293 346 294 357 c 0
 297 374 296 375 306 354 c 0
 313 338 317 334 323 340 c 0
 325 342 326 346 326 348 c 0
 326 355 318 361 318 366 c 0
 318 369 324 374 330 374 c 0
 345 374 364 353 364 342 c 0
 364 338 361 335 357 335 c 0
 353 335 350 332 350 328 c 0
 350 319 385 327 396 327 c 0
 418 327 422 285 422 258 c 0
 422 256 422 254 422 252 c 0
 422 237 422 230 425 230 c 0
 427 230 431 234 438 240 c 0
 443 245 536 305 536 311 c 0
 536 312 533 312 529 310 c 0
 525 307 517 309 511 313 c 0
 503 320 501 320 501 310 c 0
 501 303 499 299 498 299 c 0
 497 299 488 297 481 295 c 0
 470 291 470 291 483 301 c 0
 493 309 494 312 487 313 c 0
 479 313 481 318 492 330 c 0
 511 349 498 350 498 370 c 0
 498 380 501 390 508 390 c 0
 515 390 523 388 529 394 c 0
 531 396 533 398 537 398 c 0
 547 398 594 372 603 372 c 0
 609 372 610 387 610 399 c 0
 611 416 615 421 625 421 c 0
 637 421 642 427 642 434 c 0
 642 441 638 449 631 456 c 0
 616 471 616 471 616 454 c 0
 616 439 612 433 607 433 c 0
 598 433 581 462 574 462 c 0
 561 462 541 423 525 436 c 0
 509 449 512 421 501 421 c 0
 495 421 490 449 490 466 c 0
 490 499 532 475 494 513 c 0
 481 525 466 536 460 536 c 0
 450 536 450 537 460 547 c 0
 467 553 473 563 473 567 c 0
 474 572 476 566 477 555 c 0
 480 537 483 535 502 539 c 0
 513 541 522 540 522 536 c 0
 522 525 503 524 520 511 c 0
 530 503 531 499 524 481 c 0
 510 443 538 464 557 474 c 0
 576 484 582 485 592 478 c 0
 600 470 602 472 601 480 c 0
 601 481 600 482 600 483 c 0
 600 497 610 519 613 528 c 0
 617 542 635 533 632 518 c 0
 629 501 649 511 646 525 c 0
 644 535 646 537 660 533 c 0
 670 531 681 529 686 529 c 0
 690 529 695 526 695 522 c 0
 695 518 691 514 685 514 c 0
914 563 m 0
 914 586 937 596 956 600 c 0
 960 600 955 588 961 583 c 0
 965 581 968 572 968 564 c 0
 968 556 972 550 982 550 c 0
 990 550 997 548 997 544 c 0
 997 538 972 531 956 531 c 0
 928 531 955 550 932 550 c 0
 918 550 914 556 914 563 c 0
841 569 m 0
 847 569 853 578 859 578 c 0
 868 578 874 560 874 553 c 0
 874 548 869 543 863 543 c 0
 857 543 853 547 853 551 c 0
 853 559 845 554 838 554 c 0
 823 554 781 569 781 576 c 0
 781 586 795 608 806 608 c 0
 812 608 817 602 817 594 c 0
 817 584 829 569 841 569 c 0
982 648 m 0
 982 638 951 615 939 615 c 0
 931 615 925 610 925 604 c 0
 925 598 920 594 914 594 c 0
 908 594 903 589 903 583 c 0
 903 577 899 572 895 572 c 0
 891 572 889 577 890 584 c 0
 894 601 937 622 941 639 c 0
 943 646 953 651 964 651 c 0
 974 651 982 650 982 648 c 0
844 888 m 0
 857 888 867 870 867 854 c 0
 867 844 864 838 859 841 c 0
 855 844 845 838 835 828 c 0
 825 818 812 809 805 810 c 0
 797 810 795 812 801 814 c 0
 805 815 810 823 810 830 c 0
 810 837 814 848 820 856 c 0
 830 868 830 869 831 858 c 0
 831 851 835 845 839 845 c 0
 842 845 844 848 844 853 c 0
 844 861 841 874 841 882 c 0
 841 886 842 888 844 888 c 0
590 888 m 0
 627 888 636 887 636 879 c 0
 636 869 628 862 617 861 c 0
 609 860 601 862 601 866 c 0
 601 870 599 874 595 874 c 0
 592 874 591 866 592 856 c 0
 595 843 592 838 580 834 c 0
 539 821 577 855 570 871 c 0
 566 883 547 871 547 882 c 0
 547 886 562 888 590 888 c 0
362 850 m 0
 358 850 350 844 350 850 c 0
 350 854 353 860 358 865 c 0
 372 879 357 882 344 871 c 0
 330 857 314 869 314 882 c 0
 314 885 336 888 364 888 c 0
 393 888 415 885 415 881 c 0
 415 877 410 874 404 874 c 0
 389 874 407 840 388 840 c 0
 380 840 370 850 362 850 c 0
EndSplineSet
Substitution2: "ss01" n.ss01
EndChar

StartChar: o
Encoding: 111 111 54
Width: 827
VWidth: 158
Flags: HW
LayerCount: 2
Fore
SplineSet
300 4 m 0
 283 4 285 -6 273 -6 c 0
 269 -6 266 -3 266 1 c 0
 266 7 273 12 281 12 c 0
 287 12 294 7 297 12 c 0
 298 13 300 14 303 14 c 0
 315 14 340 4 340 1 c 0
 340 -2 333 -4 327 -4 c 0
 320 -4 315 -2 315 0 c 0
 315 2 308 4 300 4 c 0
505 8 m 0
 505 17 521 25 533 25 c 0
 543 25 541 11 550 15 c 0
 551 15 552 16 553 16 c 0
 563 16 581 4 581 -2 c 0
 581 -4 577 -6 572 -6 c 0
 563 -6 554 8 546 0 c 0
 543 -3 535 -6 528 -6 c 0
 519 -6 505 0 505 8 c 0
77 60 m 0
 85 60 96 55 96 52 c 0
 96 51 81 33 86 33 c 0
 89 33 92 29 92 25 c 0
 92 16 83 22 76 22 c 0
 66 22 58 12 58 3 c 0
 58 -2 56 -6 53 -6 c 0
 51 -6 49 4 49 16 c 0
 50 35 60 60 77 60 c 0
496 59 m 0
 505 59 518 66 518 56 c 0
 518 43 491 44 483 51 c 0
 477 56 473 58 469 54 c 0
 463 48 447 50 456 60 c 0
 459 64 467 67 473 67 c 0
 486 67 486 59 496 59 c 0
253 69 m 0
 263 66 274 59 274 47 c 0
 274 23 260 36 258 17 c 0
 257 8 249 -5 241 -5 c 0
 240 -5 239 -4 239 -2 c 0
 239 4 246 18 246 27 c 0
 246 34 232 76 253 69 c 0
188 57 m 0
 188 66 200 81 208 81 c 0
 214 81 211 65 212 60 c 0
 212 54 227 69 227 65 c 0
 227 53 219 44 204 46 c 0
 193 48 188 51 188 57 c 0
316 85 m 0
 321 85 325 82 325 79 c 0
 325 73 305 73 305 68 c 0
 305 64 332 50 332 44 c 0
 332 43 331 42 331 41 c 0
 331 35 343 24 343 21 c 0
 343 20 342 21 341 21 c 0
 327 21 286 26 286 39 c 0
 286 46 291 53 298 50 c 0
 308 47 302 55 302 62 c 0
 302 72 308 85 316 85 c 0
146 90 m 0
 148 90 150 89 150 86 c 0
 150 84 144 81 137 81 c 0
 116 81 131 77 146 76 c 0
 174 75 149 60 171 52 c 0
 180 49 188 43 188 34 c 0
 188 27 180 26 168 26 c 0
 166 26 165 26 163 26 c 0
 161 26 158 26 156 26 c 0
 144 26 143 28 143 39 c 0
 143 41 143 43 143 46 c 0
 143 64 142 67 132 67 c 0
 126 67 121 70 121 72 c 0
 121 75 116 76 112 76 c 0
 107 76 106 78 108 81 c 0
 114 85 138 88 146 90 c 0
625 36 m 0
 620 36 615 31 615 28 c 0
 615 26 619 23 623 23 c 0
 633 23 625 13 620 13 c 0
 614 13 607 47 598 47 c 0
 594 47 591 45 591 42 c 0
 591 40 589 39 586 39 c 0
 582 39 575 40 571 40 c 0
 568 40 567 40 567 38 c 0
 567 36 564 33 560 33 c 0
 555 33 550 45 550 53 c 0
 550 57 551 61 555 61 c 0
 562 61 574 47 578 47 c 0
 581 47 577 80 577 87 c 0
 577 93 578 95 581 95 c 0
 590 95 614 89 614 78 c 0
 614 73 611 56 611 51 c 0
 611 46 613 44 618 44 c 0
 627 44 644 46 647 42 c 0
 649 40 652 38 655 38 c 0
 661 38 651 67 671 52 c 0
 675 49 682 47 686 49 c 0
 696 53 690 44 690 37 c 0
 690 32 693 29 696 29 c 0
 701 29 708 39 708 44 c 0
 708 51 698 52 698 59 c 0
 698 61 700 62 704 62 c 0
 712 62 727 38 735 38 c 0
 738 38 741 36 741 33 c 0
 741 31 735 28 727 28 c 0
 715 28 709 26 709 19 c 0
 709 15 714 8 714 3 c 0
 714 -2 709 -4 704 -4 c 0
 681 -4 662 13 647 25 c 0
 639 31 630 36 625 36 c 0
434 63 m 0
 428 63 427 84 427 95 c 0
 427 103 428 104 431 104 c 0
 435 104 441 101 448 101 c 0
 456 101 456 74 456 74 c 2
 455 74 l 0
 451 74 439 63 434 63 c 0
652 103 m 0
 658 103 687 96 693 96 c 0
 702 96 706 114 712 105 c 0
 714 101 717 97 717 95 c 0
 717 93 713 91 708 91 c 0
 703 91 697 87 696 83 c 0
 694 75 683 73 664 73 c 0
 648 73 639 76 639 88 c 0
 639 95 644 103 652 103 c 0
615 118 m 0
 615 110 586 106 574 106 c 0
 557 106 538 115 559 115 c 0
 566 115 572 118 572 121 c 0
 572 126 587 115 590 115 c 0
 593 115 596 118 596 122 c 0
 596 131 581 134 581 140 c 0
 581 142 582 144 584 144 c 0
 586 144 615 122 615 118 c 0
216 113 m 0
 203 113 196 125 182 125 c 0
 172 125 169 122 169 114 c 0
 169 103 169 103 162 112 c 0
 157 119 151 120 140 118 c 0
 132 116 125 118 123 120 c 0
 119 126 135 129 135 135 c 0
 135 137 131 140 126 140 c 0
 108 140 131 159 135 159 c 0
 144 159 157 130 165 130 c 0
 168 130 168 132 168 136 c 0
 168 141 167 148 167 154 c 0
 167 159 167 164 172 164 c 0
 173 164 177 159 179 152 c 0
 183 141 196 132 211 132 c 0
 222 132 232 138 232 126 c 0
 232 118 224 113 216 113 c 0
549 164 m 0
 562 161 564 159 566 146 c 0
 567 129 552 117 552 140 c 0
 552 161 544 145 528 150 c 0
 512 154 533 153 533 161 c 0
 533 166 537 166 549 164 c 0
412 124 m 0
 412 117 425 111 415 111 c 0
 414 111 l 0
 403 111 404 130 394 130 c 0
 387 130 380 119 380 109 c 0
 380 91 402 87 390 69 c 0
 384 59 384 57 391 50 c 0
 398 43 399 42 391 42 c 0
 387 42 382 45 382 47 c 0
 382 50 376 52 369 52 c 0
 355 52 345 55 345 67 c 0
 345 83 364 102 352 115 c 0
 338 130 364 129 345 144 c 0
 339 149 336 154 338 156 c 0
 343 158 355 149 360 149 c 0
 362 149 363 157 363 166 c 0
 363 180 365 182 374 184 c 0
 390 186 392 173 409 173 c 0
 416 173 421 171 421 168 c 0
 421 166 426 164 431 164 c 0
 436 164 441 163 441 162 c 0
 441 155 452 144 435 144 c 0
 422 144 412 136 412 124 c 0
634 188 m 0
 634 193 645 197 650 197 c 0
 652 197 654 194 654 190 c 0
 654 186 658 183 666 183 c 0
 685 183 681 159 700 162 c 0
 707 164 715 168 718 172 c 0
 721 176 726 178 728 178 c 0
 730 178 730 172 730 165 c 0
 728 151 723 140 710 140 c 0
 702 140 694 132 702 124 c 0
 712 114 741 132 741 140 c 0
 741 150 749 149 749 140 c 0
 749 136 748 129 748 125 c 0
 748 114 755 115 760 124 c 0
 763 130 769 134 773 132 c 0
 777 130 779 122 779 109 c 0
 779 98 772 62 765 77 c 0
 759 87 741 79 732 86 c 0
 722 93 738 99 739 110 c 0
 740 119 738 120 727 118 c 0
 720 116 707 114 698 112 c 0
 682 109 681 109 688 117 c 0
 694 125 693 127 686 132 c 0
 675 139 687 141 679 150 c 0
 670 161 683 162 666 169 c 0
 659 172 654 177 654 179 c 0
 654 181 649 183 644 183 c 0
 639 183 634 186 634 188 c 0
487 189 m 0
 487 195 474 202 489 202 c 0
 504 202 491 195 499 190 c 0
 501 188 504 185 504 183 c 0
 504 177 477 177 477 168 c 0
 477 158 460 153 460 170 c 0
 460 180 462 183 471 183 c 0
 480 183 487 184 487 189 c 0
639 232 m 0
 653 232 640 217 648 217 c 0
 651 217 654 215 654 212 c 0
 654 209 649 208 639 210 c 0
 610 217 640 193 620 193 c 0
 613 193 610 196 610 206 c 0
 610 222 614 211 623 222 c 0
 627 227 634 232 639 232 c 0
574 242 m 0
 570 242 567 239 563 239 c 0
 555 239 547 244 547 250 c 0
 547 261 567 247 567 256 c 0
 567 261 591 258 596 263 c 0
 598 266 600 267 603 267 c 0
 611 267 618 256 618 247 c 0
 618 240 617 232 616 232 c 0
 611 232 607 245 601 245 c 0
 597 245 587 236 595 233 c 0
 598 231 600 228 600 224 c 0
 600 220 598 217 596 217 c 0
 589 217 583 242 574 242 c 0
739 261 m 0
 750 261 766 278 773 276 c 0
 775 275 766 267 766 258 c 0
 766 249 767 248 774 250 c 0
 778 252 775 246 766 237 c 0
 757 229 746 222 741 222 c 0
 725 222 743 244 728 247 c 0
 724 248 706 270 720 270 c 0
 724 270 727 269 727 266 c 0
 727 264 732 261 739 261 c 0
240 342 m 0
 252 330 227 318 227 306 c 0
 227 299 230 302 234 302 c 0
 240 302 245 293 245 286 c 0
 245 265 234 287 228 287 c 0
 223 287 219 323 219 334 c 0
 219 339 221 340 226 340 c 0
 229 340 232 341 232 344 c 0
 232 347 236 346 240 342 c 0
685 349 m 0
 695 351 707 349 696 342 c 0
 690 339 668 302 658 302 c 0
 651 302 651 308 658 317 c 0
 662 323 669 328 673 328 c 0
 683 328 670 347 685 349 c 0
115 378 m 0
 128 381 126 371 120 364 c 0
 110 352 133 349 133 339 c 0
 133 337 131 335 128 335 c 0
 119 335 110 352 102 349 c 0
 98 347 96 349 98 353 c 0
 102 362 104 376 115 378 c 0
356 299 m 0
 389 299 409 334 409 370 c 0
 409 374 407 375 404 375 c 0
 398 375 379 368 384 376 c 0
 386 379 385 382 382 382 c 0
 375 382 385 392 378 392 c 0
 375 392 367 386 361 380 c 0
 351 370 344 342 344 316 c 0
 344 305 346 299 356 299 c 0
301 305 m 0
 301 371 322 440 384 440 c 0
 412 440 436 433 450 418 c 0
 456 411 467 406 474 406 c 0
 491 406 527 396 527 377 c 0
 527 367 521 355 519 346 c 0
 519 344 514 346 510 350 c 0
 497 363 491 339 473 348 c 0
 467 351 463 352 459 352 c 0
 449 352 446 343 442 327 c 0
 437 308 405 261 383 261 c 0
 375 261 375 259 375 256 c 0
 375 250 314 236 316 246 c 0
 317 249 312 254 307 255 c 0
 292 258 278 278 274 294 c 0
 272 302 267 309 263 309 c 0
 259 309 256 311 256 313 c 0
 256 316 270 328 260 328 c 0
 255 328 253 332 253 337 c 0
 253 348 258 359 267 359 c 0
 275 359 286 352 286 347 c 0
 286 340 259 361 265 344 c 0
 270 331 276 359 276 337 c 0
 276 318 286 334 286 319 c 0
 286 313 283 309 281 311 c 0
 279 313 279 307 281 296 c 0
 285 282 290 270 301 270 c 0
 305 270 301 295 301 305 c 0
732 425 m 0
 732 440 705 432 705 447 c 0
 705 455 725 467 732 458 c 0
 738 449 717 454 734 436 c 0
 741 429 746 422 746 420 c 0
 746 418 743 416 739 416 c 0
 735 416 732 420 732 425 c 0
237 470 m 1
 237 470 259 479 263 479 c 0
 265 479 266 477 266 474 c 0
 266 472 264 469 261 469 c 0
 253 469 265 455 270 454 c 0
 278 454 266 447 266 442 c 0
 266 438 262 433 258 431 c 0
 250 427 250 426 260 426 c 0
 266 426 271 422 271 418 c 0
 271 414 269 411 267 411 c 0
 262 411 257 419 251 419 c 0
 239 419 242 408 226 418 c 0
 219 423 213 429 213 431 c 0
 213 449 255 433 255 448 c 0
 255 456 237 465 237 470 c 1
154 507 m 0
 154 515 140 517 140 525 c 0
 140 528 145 531 152 531 c 0
 171 531 168 525 172 504 c 0
 174 488 174 484 168 484 c 0
 162 484 154 499 154 507 c 0
48 520 m 0
 48 528 52 542 60 542 c 0
 64 542 66 538 64 532 c 0
 62 524 63 522 74 525 c 0
 85 527 87 527 87 516 c 0
 87 509 84 503 82 503 c 0
 80 503 74 502 69 500 c 0
 59 497 65 500 65 505 c 0
 65 511 48 513 48 520 c 0
253 525 m 0
 253 516 271 506 271 499 c 0
 271 490 242 514 235 511 c 0
 230 509 226 510 226 516 c 0
 226 518 227 523 227 528 c 0
 227 535 227 542 224 542 c 0
 215 542 212 534 198 534 c 0
 190 534 184 536 184 538 c 0
 184 540 187 542 192 542 c 0
 204 543 215 544 223 550 c 0
 229 554 234 557 239 557 c 0
 246 557 259 540 265 543 c 0
 269 545 291 537 270 537 c 0
 259 537 253 531 253 525 c 0
396 503 m 0
 396 514 442 512 442 521 c 0
 442 524 444 527 449 527 c 0
 459 527 472 545 481 537 c 0
 483 535 487 534 490 534 c 0
 494 534 497 536 497 539 c 0
 497 545 487 550 491 559 c 0
 495 570 503 563 500 552 c 0
 498 545 501 542 506 542 c 0
 510 542 513 539 513 537 c 0
 513 530 499 522 499 512 c 0
 499 507 496 503 494 503 c 0
 486 503 484 518 474 518 c 0
 456 518 460 493 473 493 c 0
 477 493 480 490 480 486 c 0
 480 482 478 479 476 479 c 0
 472 479 462 492 454 492 c 0
 439 492 457 478 457 474 c 0
 457 468 448 465 440 465 c 0
 429 465 423 470 419 459 c 0
 417 454 414 450 412 450 c 0
 402 450 410 466 393 456 c 0
 388 453 375 450 364 450 c 0
 353 450 342 446 339 442 c 0
 336 438 330 435 328 435 c 1
 328 435 332 455 332 459 c 0
 332 462 335 464 339 464 c 0
 347 464 358 459 358 458 c 0
 358 456 361 454 364 454 c 0
 374 454 421 479 421 489 c 0
 421 494 420 496 418 496 c 0
 414 496 405 488 401 488 c 0
 398 488 396 497 396 503 c 0
415 565 m 0
 436 565 440 552 458 552 c 0
 464 552 470 549 470 547 c 0
 470 541 454 540 441 540 c 0
 423 540 403 541 403 556 c 0
 403 562 408 565 415 565 c 0
160 608 m 0
 176 608 189 624 201 624 c 1
 201 624 188 609 188 602 c 0
 188 595 187 590 184 590 c 0
 182 590 179 594 179 598 c 0
 179 602 177 605 174 605 c 0
 167 605 164 585 156 585 c 0
 147 585 142 610 134 610 c 0
 130 610 130 611 135 616 c 0
 143 624 150 608 160 608 c 0
494 605 m 0
 489 605 465 624 465 630 c 0
 465 632 469 634 475 634 c 0
 489 634 478 648 483 648 c 0
 489 648 499 622 499 614 c 0
 499 609 496 605 494 605 c 0
79 693 m 0
 79 697 81 702 85 702 c 0
 87 702 91 698 94 694 c 0
 98 688 107 685 119 685 c 0
 131 685 139 682 139 676 c 0
 139 672 134 669 129 669 c 0
 122 669 112 683 108 678 c 0
 106 675 101 673 96 673 c 0
 90 673 79 684 79 693 c 0
252 726 m 0
 248 726 239 735 239 742 c 0
 239 751 247 759 247 767 c 0
 247 771 244 774 240 774 c 0
 231 774 227 760 222 774 c 0
 220 780 216 784 213 784 c 0
 211 784 208 782 208 779 c 0
 208 777 205 774 202 774 c 0
 199 774 218 803 219 805 c 0
 221 810 227 813 237 813 c 0
 245 813 252 810 252 808 c 0
 252 802 227 796 227 792 c 0
 227 790 257 774 259 774 c 1
 259 774 256 806 272 790 c 0
 275 787 281 784 286 784 c 0
 291 784 295 780 295 774 c 0
 295 769 298 765 300 765 c 0
 303 765 305 763 305 760 c 0
 305 758 302 755 298 755 c 0
 294 755 288 750 285 744 c 0
 279 733 279 733 275 744 c 0
 269 761 251 746 254 735 c 0
 256 730 254 726 252 726 c 0
EndSplineSet
Substitution2: "ss01" o.ss01
EndChar

StartChar: p
Encoding: 112 112 55
Width: 1197
VWidth: -133
Flags: HW
LayerCount: 2
Fore
SplineSet
968 -293 m 0
 974 -293 979 -297 979 -303 c 0
 979 -315 1001 -316 989 -328 c 0
 985 -333 974 -337 967 -336 c 0
 960 -336 944 -335 933 -335 c 0
 913 -334 912 -334 925 -321 c 0
 935 -311 939 -309 947 -315 c 0
 954 -322 957 -321 957 -308 c 0
 957 -299 961 -293 968 -293 c 0
540 -295 m 0
 546 -295 548 -303 546 -307 c 0
 542 -314 572 -331 572 -341 c 0
 572 -353 579 -347 587 -347 c 0
 604 -347 644 -365 644 -374 c 0
 644 -377 637 -380 629 -380 c 0
 621 -380 615 -377 615 -373 c 0
 615 -367 597 -361 584 -361 c 0
 573 -361 568 -376 562 -366 c 0
 559 -362 552 -360 548 -362 c 0
 544 -365 542 -363 545 -359 c 0
 551 -349 523 -332 522 -325 c 0
 522 -317 530 -295 540 -295 c 0
142 -347 m 0
 145 -347 150 -352 150 -348 c 0
 150 -347 146 -340 140 -334 c 0
 131 -325 130 -282 147 -290 c 0
 161 -295 155 -285 157 -276 c 0
 157 -273 160 -270 164 -270 c 0
 172 -270 175 -275 175 -281 c 0
 175 -294 162 -312 162 -326 c 0
 162 -336 172 -358 172 -362 c 0
 172 -363 166 -365 157 -365 c 0
 138 -365 154 -380 140 -380 c 0
 134 -380 133 -375 133 -369 c 0
 133 -360 138 -347 142 -347 c 0
868 -346 m 0
 868 -354 855 -358 844 -358 c 0
 828 -358 827 -356 835 -342 c 0
 852 -314 807 -326 833 -300 c 0
 841 -292 854 -285 862 -285 c 0
 872 -285 877 -280 877 -272 c 0
 877 -259 882 -249 893 -249 c 0
 904 -249 881 -273 899 -257 c 0
 904 -253 913 -249 919 -249 c 0
 934 -249 911 -267 938 -259 c 0
 955 -255 957 -257 957 -273 c 0
 957 -283 954 -294 950 -296 c 0
 946 -298 943 -297 943 -293 c 0
 943 -289 935 -285 925 -285 c 0
 903 -285 903 -260 896 -290 c 0
 893 -303 888 -314 884 -314 c 0
 873 -314 870 -300 854 -300 c 0
 847 -300 841 -304 841 -308 c 0
 841 -316 868 -335 868 -346 c 0
635 -244 m 0
 635 -259 633 -285 628 -285 c 0
 616 -285 616 -262 622 -253 c 0
 631 -243 625 -234 614 -234 c 0
 611 -234 608 -239 608 -245 c 0
 608 -251 605 -256 601 -256 c 0
 595 -256 591 -266 591 -276 c 0
 591 -282 593 -288 598 -290 c 0
 616 -296 579 -331 579 -293 c 0
 579 -286 574 -276 567 -272 c 0
 561 -269 559 -265 559 -262 c 0
 559 -255 570 -249 583 -249 c 0
 594 -249 601 -245 601 -238 c 0
 601 -231 608 -227 619 -227 c 0
 632 -227 635 -228 635 -244 c 0
289 -217 m 0
 304 -227 274 -248 268 -249 c 0
 252 -249 292 -266 292 -268 c 0
 292 -270 283 -270 261 -270 c 0
 238 -270 216 -267 216 -257 c 0
 216 -253 220 -248 227 -243 c 0
 246 -229 254 -245 270 -227 c 0
 277 -219 286 -215 289 -217 c 0
175 -212 m 0
 187 -212 222 -176 231 -176 c 0
 234 -176 235 -186 232 -199 c 0
 229 -215 223 -233 210 -233 c 0
 201 -233 190 -227 178 -227 c 0
 171 -227 164 -223 164 -219 c 0
 164 -215 169 -212 175 -212 c 0
833 -159 m 0
 853 -159 895 -204 895 -220 c 0
 895 -233 882 -245 870 -245 c 0
 860 -245 849 -241 845 -248 c 0
 842 -252 844 -256 848 -256 c 0
 858 -256 848 -273 840 -266 c 0
 836 -264 835 -255 838 -247 c 0
 842 -234 840 -234 827 -241 c 0
 818 -245 809 -249 805 -249 c 0
 801 -249 797 -244 797 -238 c 0
 797 -232 802 -227 808 -227 c 0
 814 -227 819 -223 819 -219 c 0
 819 -215 824 -212 830 -212 c 0
 836 -212 841 -215 841 -219 c 0
 841 -223 847 -227 855 -227 c 0
 863 -227 869 -222 869 -216 c 0
 869 -210 866 -205 862 -205 c 0
 850 -205 866 -183 852 -183 c 0
 841 -183 831 -201 819 -201 c 0
 807 -201 807 -191 807 -184 c 0
 807 -172 790 -154 790 -146 c 0
 790 -143 794 -140 800 -140 c 0
 813 -140 815 -164 829 -159 c 0
 830 -159 832 -159 833 -159 c 0
1026 -109 m 0
 1030 -109 1049 -90 1049 -101 c 0
 1049 -110 1019 -129 1015 -129 c 0
 1010 -129 997 -142 995 -129 c 0
 993 -117 993 -82 985 -77 c 0
 981 -75 979 -70 979 -66 c 0
 979 -62 983 -60 989 -60 c 0
 999 -60 1014 -72 1014 -85 c 0
 1014 -89 1012 -92 1012 -96 c 0
 1012 -104 1019 -109 1026 -109 c 0
1102 -89 m 0
 1102 -72 1117 -71 1117 -58 c 0
 1117 -54 1111 -52 1102 -54 c 0
 1075 -61 1102 -28 1085 -21 c 0
 1081 -19 1088 -17 1101 -17 c 0
 1120 -16 1124 -19 1124 -30 c 0
 1124 -38 1129 -48 1135 -50 c 0
 1142 -53 1146 -64 1146 -75 c 0
 1146 -86 1143 -96 1139 -96 c 0
 1135 -96 1131 -109 1132 -123 c 0
 1132 -177 1145 -97 1145 -145 c 0
 1145 -146 1145 -147 1145 -148 c 0
 1145 -162 1140 -174 1132 -174 c 0
 1122 -174 1112 -154 1100 -154 c 0
 1094 -154 1088 -159 1085 -165 c 0
 1082 -173 1070 -176 1044 -176 c 0
 1022 -176 1013 -176 1013 -173 c 0
 1013 -165 1040 -147 1044 -147 c 0
 1052 -147 1089 -122 1103 -122 c 0
 1104 -122 1105 -122 1106 -122 c 0
 1119 -127 1128 -111 1114 -106 c 0
 1107 -104 1102 -96 1102 -89 c 0
920 -17 m 0
 942 -15 904 -30 917 -32 c 0
 930 -34 945 -35 959 -36 c 0
 969 -37 971 -45 971 -68 c 0
 971 -88 968 -96 962 -94 c 0
 955 -92 955 -86 955 -80 c 0
 955 -77 953 -76 949 -76 c 0
 942 -76 930 -80 922 -80 c 0
 917 -80 913 -79 913 -74 c 0
 913 -70 919 -61 926 -56 c 0
 937 -47 937 -46 922 -45 c 0
 912 -45 872 -28 897 -21 c 0
 904 -19 914 -18 920 -17 c 0
109 -102 m 0
 109 -100 122 -81 116 -81 c 0
 112 -81 114 -79 119 -75 c 0
 130 -69 131 -29 142 -25 c 0
 146 -24 150 -16 150 -8 c 0
 150 -1 155 6 161 6 c 0
 174 6 183 35 194 35 c 0
 202 35 188 -9 174 -9 c 0
 166 -9 164 -13 167 -27 c 0
 176 -64 143 -26 143 -53 c 0
 143 -58 135 -89 140 -89 c 0
 147 -89 174 -79 157 -67 c 0
 153 -65 152 -63 152 -62 c 0
 152 -56 190 -61 190 -47 c 0
 190 -43 192 -38 196 -38 c 2
 208 -38 l 2
 212 -38 215 -44 215 -51 c 0
 215 -67 212 -85 198 -85 c 0
 194 -85 190 -83 186 -83 c 0
 174 -83 159 -92 159 -103 c 0
 159 -108 164 -118 157 -118 c 0
 153 -118 150 -114 150 -110 c 0
 150 -108 147 -106 142 -106 c 0
 136 -106 128 -107 121 -107 c 0
 114 -107 109 -106 109 -102 c 0
62 -16 m 0
 62 -25 113 -30 113 -39 c 0
 113 -43 107 -45 99 -45 c 0
 91 -45 85 -41 85 -37 c 0
 85 -33 77 -31 68 -32 c 0
 54 -34 51 -32 52 -8 c 0
 53 17 54 42 75 42 c 0
 85 42 86 41 79 36 c 0
 70 31 80 -9 71 -9 c 0
 67 -9 62 -12 62 -16 c 0
223 86 m 0
 242 86 244 83 244 66 c 0
 244 55 238 42 231 38 c 0
 220 31 218 32 219 49 c 0
 219 63 218 67 204 67 c 0
 188 67 154 59 161 71 c 0
 164 76 173 78 183 76 c 0
 193 75 200 76 200 79 c 0
 200 83 212 86 223 86 c 0
931 86 m 0
 931 73 939 71 950 71 c 0
 964 71 941 94 968 87 c 0
 978 86 986 79 986 74 c 0
 986 68 980 64 971 64 c 0
 957 64 962 60 962 51 c 0
 962 32 949 -16 943 -16 c 0
 938 -16 933 12 933 29 c 0
 933 37 935 42 937 42 c 0
 941 42 943 45 943 49 c 0
 943 53 935 57 925 57 c 0
 915 57 904 60 902 64 c 0
 900 68 901 71 905 71 c 0
 909 71 913 75 913 81 c 0
 913 87 909 94 905 96 c 0
 900 98 903 99 913 98 c 0
 924 97 931 93 931 86 c 0
1149 34 m 0
 1149 22 1145 -27 1141 -27 c 0
 1140 -27 1139 -21 1136 -10 c 0
 1132 5 1126 13 1118 13 c 0
 1111 13 1101 9 1096 4 c 0
 1089 -3 1088 -2 1088 7 c 0
 1088 20 1106 27 1096 37 c 0
 1092 41 1088 56 1088 69 c 0
 1088 108 1109 69 1109 104 c 0
 1109 124 1123 121 1123 108 c 0
 1123 103 1122 98 1122 93 c 0
 1122 87 1124 83 1132 81 c 0
 1145 78 1149 56 1149 34 c 0
197 180 m 0
 211 180 223 177 223 173 c 0
 223 169 223 163 222 160 c 0
 222 157 228 153 235 150 c 0
 246 145 246 145 232 145 c 0
 223 144 176 137 207 129 c 0
 220 126 237 116 237 102 c 0
 237 97 233 94 228 94 c 0
 225 94 221 96 217 99 c 0
 203 110 179 110 179 134 c 0
 179 144 176 151 172 151 c 0
 164 151 162 132 151 139 c 0
 146 142 143 148 143 152 c 0
 143 156 149 159 157 159 c 0
 165 159 172 163 172 169 c 0
 172 176 180 180 197 180 c 0
703 124 m 0
 695 124 687 139 677 139 c 0
 674 139 671 139 669 139 c 0
 664 139 660 141 660 156 c 0
 660 192 663 166 685 166 c 0
 709 166 691 174 699 187 c 0
 701 191 705 195 706 195 c 0
 713 195 731 187 731 179 c 0
 731 176 715 176 706 166 c 0
 695 153 694 151 704 151 c 0
 711 151 717 147 717 141 c 0
 717 132 710 124 703 124 c 0
262 205 m 0
 274 200 308 194 281 181 c 0
 268 174 268 170 274 159 c 0
 280 148 279 144 271 144 c 0
 252 144 249 161 248 184 c 0
 247 206 249 209 262 205 c 0
1073 195 m 0
 1073 205 1113 222 1123 223 c 0
 1130 224 1132 219 1130 206 c 0
 1127 193 1130 184 1138 180 c 0
 1159 168 1121 165 1115 168 c 0
 1110 169 1097 164 1084 156 c 0
 1056 137 1081 158 1081 166 c 0
 1081 169 1073 174 1064 177 c 0
 1037 185 1073 186 1073 195 c 0
71 224 m 0
 54 224 48 247 48 270 c 0
 48 303 62 297 62 276 c 0
 62 265 70 262 100 259 c 0
 120 257 140 251 143 246 c 0
 150 233 161 249 169 238 c 0
 174 228 155 217 148 217 c 0
 144 217 143 222 143 228 c 0
 143 235 136 238 126 238 c 0
 108 238 102 251 88 251 c 0
 80 251 71 247 71 240 c 0
 71 235 77 224 71 224 c 0
296 376 m 0
 300 376 302 372 302 367 c 0
 302 357 289 334 276 334 c 0
 266 334 258 339 247 330 c 0
 241 326 239 323 239 322 c 0
 239 321 240 321 241 321 c 0
 246 321 261 326 269 326 c 0
 272 326 274 326 274 324 c 0
 274 322 264 315 251 309 c 0
 232 299 229 299 222 309 c 0
 216 316 216 321 220 324 c 0
 230 331 232 353 247 353 c 0
 261 353 268 350 279 363 c 0
 286 370 293 376 296 376 c 0
163 417 m 0
 171 417 200 406 200 396 c 0
 200 387 182 373 182 361 c 0
 182 351 193 344 198 357 c 0
 200 364 208 369 215 369 c 0
 225 368 225 368 214 361 c 0
 207 357 200 350 200 345 c 0
 200 340 194 336 185 337 c 0
 172 338 165 349 165 360 c 0
 165 368 168 376 175 381 c 0
 193 394 172 400 160 390 c 0
 133 369 132 417 163 417 c 0
498 60 m 0
 524 61 557 76 557 98 c 0
 557 103 554 108 550 108 c 0
 545 108 514 76 508 81 c 0
 506 84 510 91 518 96 c 0
 534 109 531 116 509 108 c 0
 497 103 470 77 470 63 c 0
 470 61 483 60 498 60 c 0
536 280 m 0
 543 280 550 276 550 286 c 0
 550 292 545 297 538 297 c 0
 524 297 531 306 531 318 c 0
 531 333 521 355 512 355 c 0
 504 355 502 332 491 337 c 0
 487 339 482 336 480 330 c 0
 478 323 470 318 463 318 c 0
 447 318 446 341 434 325 c 0
 430 319 426 317 426 321 c 0
 426 325 421 323 415 318 c 0
 409 313 404 300 404 289 c 0
 404 278 407 268 411 268 c 0
 420 268 421 300 433 293 c 0
 437 290 446 292 453 297 c 0
 471 311 486 268 503 268 c 0
 518 268 505 247 518 247 c 0
 528 247 524 280 536 280 c 0
346 348 m 0
 362 348 372 369 386 369 c 0
 399 369 384 408 384 418 c 0
 384 428 388 435 397 435 c 0
 406 435 409 413 422 413 c 0
 428 413 433 410 433 406 c 0
 433 400 445 396 455 396 c 0
 463 396 467 401 472 401 c 0
 481 401 494 384 494 378 c 0
 494 374 507 367 520 367 c 0
 525 367 528 368 528 372 c 0
 528 376 519 386 508 393 c 0
 489 404 489 405 504 406 c 0
 513 406 526 399 535 390 c 0
 549 375 550 374 550 388 c 0
 551 399 551 400 556 391 c 0
 560 385 562 355 562 324 c 0
 562 281 560 268 553 268 c 0
 547 268 542 261 542 254 c 0
 542 246 539 237 535 235 c 0
 522 227 537 217 547 217 c 0
 553 217 557 222 557 228 c 0
 557 234 560 238 564 238 c 0
 568 238 571 231 570 222 c 0
 569 208 565 205 546 207 c 0
 535 208 523 212 522 216 c 0
 521 219 517 220 514 220 c 0
 510 220 506 219 502 219 c 0
 497 219 492 221 490 229 c 0
 487 240 486 239 485 226 c 0
 485 216 487 210 491 210 c 0
 501 210 489 187 484 187 c 0
 475 187 448 215 440 219 c 0
 428 224 446 239 450 248 c 0
 454 258 452 261 443 259 c 0
 433 257 429 245 429 233 c 0
 429 211 448 206 448 186 c 0
 448 173 456 168 465 168 c 0
 481 168 493 184 512 184 c 0
 529 184 573 176 591 176 c 0
 597 176 601 176 603 177 c 0
 608 180 610 181 607 177 c 0
 604 174 607 161 615 148 c 0
 623 136 626 122 626 109 c 0
 626 79 610 50 592 36 c 0
 584 31 579 22 581 16 c 0
 583 10 581 6 575 6 c 0
 569 6 557 -1 548 -10 c 0
 534 -24 534 -25 547 -20 c 0
 560 -15 560 -16 549 -27 c 0
 538 -38 536 -38 521 -23 c 0
 511 -13 500 -9 491 -11 c 0
 484 -13 477 -10 477 -6 c 0
 477 1 466 -8 458 -1 c 0
 451 4 447 0 442 -18 c 0
 436 -38 426 -191 422 -214 c 0
 420 -221 413 -227 407 -227 c 0
 401 -227 397 -229 397 -233 c 0
 397 -237 388 -240 375 -240 c 0
 364 -239 353 -237 353 -233 c 0
 353 -230 357 -227 361 -227 c 0
 368 -227 362 -183 362 -167 c 0
 362 -87 383 91 387 139 c 0
 389 171 396 205 401 214 c 0
 421 243 375 228 375 250 c 0
 375 256 373 260 370 258 c 0
 365 255 364 233 364 218 c 0
 364 196 359 180 342 180 c 0
 336 180 332 187 332 194 c 0
 332 202 335 210 340 211 c 0
 344 212 346 218 343 222 c 0
 340 228 332 230 319 226 c 0
 302 222 301 222 308 232 c 0
 321 247 300 255 332 248 c 0
 339 247 344 246 347 246 c 0
 350 246 351 246 351 248 c 0
 351 251 347 258 340 270 c 0
 326 296 325 297 339 297 c 0
 351 297 358 302 358 309 c 0
 358 320 332 333 332 341 c 0
 332 345 338 348 346 348 c 0
1140 366 m 0
 1129 366 1114 381 1114 386 c 0
 1114 390 1117 395 1124 402 c 0
 1142 418 1127 429 1127 450 c 0
 1127 458 1130 464 1139 464 c 0
 1143 464 1146 441 1146 413 c 0
 1146 377 1146 366 1140 366 c 0
305 464 m 0
 309 464 349 450 349 442 c 0
 349 437 345 434 353 426 c 0
 357 420 359 409 356 402 c 0
 347 377 375 404 375 392 c 0
 375 386 361 371 351 371 c 0
 334 371 344 401 344 416 c 0
 344 425 339 427 324 430 c 0
 311 432 303 438 306 442 c 0
 308 446 307 449 303 449 c 0
 299 449 295 453 295 457 c 0
 295 461 299 464 305 464 c 0
738 438 m 0
 729 438 724 430 724 423 c 0
 724 417 720 415 716 417 c 0
 701 428 741 449 751 449 c 0
 761 449 768 453 768 460 c 0
 768 466 771 471 775 471 c 0
 779 471 782 468 782 464 c 0
 782 460 790 458 800 461 c 0
 817 465 819 465 814 445 c 0
 809 426 807 417 798 417 c 0
 787 417 751 438 738 438 c 0
77 482 m 0
 77 493 83 515 95 515 c 0
 102 515 104 511 102 504 c 0
 98 496 103 493 120 493 c 0
 135 493 143 497 143 504 c 0
 143 510 146 515 150 515 c 0
 154 515 157 511 157 505 c 0
 157 489 141 490 146 471 c 0
 153 452 116 442 98 442 c 0
 91 442 85 447 85 453 c 0
 85 460 92 464 103 464 c 0
 113 464 121 468 121 472 c 0
 121 482 77 472 77 482 c 0
422 529 m 0
 436 529 438 500 448 500 c 0
 454 500 467 482 467 470 c 0
 467 457 458 458 447 468 c 0
 440 475 433 486 433 493 c 0
 433 500 422 512 407 519 c 0
 386 529 384 532 391 541 c 0
 395 547 401 551 405 551 c 0
 409 551 412 546 412 540 c 0
 412 534 416 529 422 529 c 0
620 595 m 0
 621 595 613 529 597 529 c 0
 591 529 586 524 586 517 c 0
 586 507 580 506 563 510 c 0
 550 512 536 511 531 507 c 0
 527 504 524 503 522 503 c 0
 518 503 516 508 516 515 c 0
 516 525 524 557 531 545 c 0
 534 540 546 537 557 537 c 0
 592 537 559 558 586 558 c 0
 597 558 601 563 601 574 c 0
 601 591 615 579 615 587 c 0
 615 591 618 595 620 595 c 0
986 613 m 0
 986 627 964 644 964 654 c 0
 964 658 967 660 971 660 c 0
 975 660 981 655 983 649 c 0
 986 643 994 639 1001 639 c 0
 1019 639 1004 616 1012 616 c 0
 1016 616 1019 608 1020 597 c 0
 1020 587 1018 581 1016 585 c 0
 1009 593 986 599 986 613 c 0
334 606 m 0
 334 611 337 619 337 623 c 0
 337 630 330 632 308 632 c 0
 292.987645135 632 287.419895056 633.299716255 287.419895056 635.133980073 c 0
 287.419895056 639.531080724 319.41539849 647 330 647 c 0
 346 647 353 640 334 661 c 0
 324 671 317 684 317 691 c 0
 317 698 313 704 309 704 c 0
 305 704 304 707 306 711 c 0
 309 715 316 713 323 703 c 0
 330 693 345 688 358 687 c 0
 391 686 374 667 363 657 c 0
 358 653 351 639 349 626 c 0
 345 608 348 602 361 595 c 0
 375 587 376 588 368 603 c 0
 360 617 361 618 378 615 c 0
 395 611 397 613 397 636 c 0
 397 650 400 656 403 656 c 0
 407 656 412 648 412 637 c 0
 412 628 418 615 425 607 c 0
 450 578 395 608 386 595 c 0
 380 585 404 579 404 571 c 0
 404 566 394 566 378 568 c 0
 356 571 334 584 334 606 c 0
735 741 m 0
 735 738 733 735 731 735 c 0
 726 735 724 753 719 753 c 0
 705 753 712 703 695 744 c 0
 682 775 703 761 703 784 c 0
 703 791 704 798 708 798 c 0
 714 796 735 757 735 741 c 0
1102 849 m 0
 1119 849 1130 847 1130 844 c 0
 1128 836 1131 821 1139 835 c 0
 1145 844 1146 842 1146 828 c 0
 1146 812 1143 809 1126 810 c 0
 1113 810 1105 815 1104 822 c 0
 1103 829 1096 835 1091 835 c 0
 1085 835 1079 838 1077 842 c 0
 1074 846 1085 849 1102 849 c 0
EndSplineSet
EndChar

StartChar: q
Encoding: 113 113 56
Width: 1380
VWidth: -94
Flags: HW
LayerCount: 2
Fore
SplineSet
1051 -246 m 0
 1055 -246 1060 -257 1063 -269 c 0
 1067 -283 1070 -287 1081 -287 c 0
 1085 -287 1090 -286 1097 -285 c 0
 1126 -280 1127 -280 1117 -299 c 0
 1112 -308 1105 -320 1105 -320 c 1
 1101 -320 1051 -293 1043 -293 c 0
 1034 -293 1044 -246 1051 -246 c 0
689 -234 m 0
 694 -237 697 -246 697 -255 c 0
 697 -263 701 -271 705 -271 c 0
 713 -271 717 -282 717 -293 c 0
 717 -305 702 -331 695 -312 c 0
 692 -305 676 -301 648 -301 c 0
 624 -301 604 -297 603 -293 c 0
 603 -281 634 -267 640 -260 c 0
 648 -248 667 -275 674 -266 c 0
 678 -263 680 -253 680 -245 c 0
 680 -236 685 -231 689 -234 c 0
456 -265 m 0
 456 -251 474 -213 482 -213 c 0
 494 -213 512 -223 512 -238 c 0
 512 -246 517 -255 524 -255 c 0
 531 -255 537 -260 537 -267 c 0
 537 -274 545 -280 554 -280 c 0
 563 -280 571 -285 571 -290 c 0
 572 -296 572 -303 571 -307 c 0
 571 -311 585 -314 604 -314 c 0
 623 -314 638 -317 638 -322 c 0
 638 -326 630 -331 621 -331 c 0
 612 -331 604 -334 604 -339 c 0
 604 -343 598 -348 591 -348 c 0
 583 -348 580 -344 580 -340 c 0
 580 -329 516 -263 509 -263 c 0
 505 -263 505 -268 508 -275 c 0
 514 -291 495 -300 485 -287 c 0
 470 -264 468 -314 458 -277 c 0
 457 -273 456 -269 456 -265 c 0
278 -222 m 0
 303 -222 325 -228 325 -247 c 0
 325 -254 321 -263 313 -269 c 0
 305 -275 302 -284 306 -290 c 0
 314 -306 292 -283 292 -296 c 0
 292 -301 300 -306 309 -306 c 0
 318 -306 326 -300 326 -293 c 0
 326 -282 344 -233 358 -233 c 0
 359 -233 359 -234 360 -234 c 0
 370 -242 367 -224 368 -217 c 0
 369 -212 371 -216 374 -224 c 0
 377 -232 371 -246 363 -255 c 0
 355 -263 353 -271 358 -271 c 0
 363 -271 366 -287 365 -311 c 0
 364 -354 362 -364 324 -364 c 0
 312 -364 301 -369 298 -374 c 0
 295 -382 289 -381 278 -370 c 0
 264 -357 264 -355 275 -348 c 0
 282 -344 297 -339 309 -339 c 0
 328 -338 326 -337 298 -325 c 0
 277 -317 267 -308 270 -300 c 0
 273 -293 273 -288 269 -288 c 0
 258 -288 247 -314 232 -299 c 0
 224 -291 225 -288 236 -288 c 0
 244 -288 250 -284 250 -277 c 0
 250 -259 277 -266 259 -244 c 0
 255 -239 254 -235 254 -232 c 0
 254 -224 265 -222 278 -222 c 0
1172 -145 m 0
 1193 -145 1180 -173 1189 -186 c 0
 1202 -208 1184 -204 1170 -192 c 0
 1143 -169 1153 -200 1129 -200 c 0
 1119 -200 1110 -195 1110 -186 c 0
 1110 -182 1114 -179 1118 -183 c 0
 1123 -186 1134 -178 1142 -167 c 0
 1150 -155 1164 -145 1172 -145 c 0
65 -137 m 0
 75 -137 71 -157 72 -167 c 0
 72 -173 80 -178 89 -181 c 0
 97 -182 105 -195 108 -208 c 0
 112 -228 111 -229 84 -229 c 0
 62 -229 56 -230 56 -216 c 0
 56 -201 61 -162 52 -159 c 0
 39 -153 60 -137 65 -137 c 0
1170 -120 m 0
 1170 -107 1201 -94 1212 -94 c 0
 1227 -94 1254 -116 1254 -129 c 0
 1254 -131.788130266 1243.79705762 -133.118697336 1230.50295598 -133.118697336 c 0
 1205.65220678 -133.118697336 1170 -128.469288317 1170 -120 c 0
275 -94 m 0
 287 -94 301 -99 307 -105 c 0
 314 -112 320 -111 331 -102 c 0
 343 -92 345 -93 342 -107 c 0
 337 -131 285 -125 268 -140 c 0
 259 -148 249 -150 241 -145 c 0
 231 -139 231 -136 241 -117 c 0
 249 -102 260 -94 275 -94 c 0
486 -90 m 0
 486 -74 460 -71 460 -60 c 0
 460 -51 494 -9 510 -9 c 0
 512 -9 514 -10 515 -11 c 0
 528 -24 503 -30 495 -36 c 0
 485 -44 483 -46 493 -50 c 0
 508 -56 533 -86 553 -86 c 0
 561 -86 584 -74 584 -64 c 0
 584 -58 559 -38 587 -38 c 0
 595 -38 605 -40 613 -40 c 0
 629 -40 631 -26 611 -26 c 0
 594 -25 593 -25 608 -21 c 0
 630 -14 630 4 656 -13 c 0
 676 -26 675 -27 654 -35 c 0
 640 -41 638 -43 649 -43 c 0
 657 -44 663 -48 663 -52 c 0
 663 -57 650 -60 632 -59 c 0
 605 -56 600 -59 600 -73 c 0
 600 -86 593 -91 570 -92 c 0
 554 -93 538 -100 534 -107 c 0
 530 -114 524 -120 520 -120 c 0
 515 -120 511 -112 510 -101 c 0
 510 -78 501 -103 493 -103 c 0
 489 -103 486 -97 486 -90 c 0
1207 -51 m 0
 1207 -39 1225 -27 1237 -27 c 0
 1246 -27 1253 -19 1257 -7 c 0
 1262 13 1263 14 1287 2 c 0
 1300 -6 1314 -15 1317 -20 c 0
 1321 -26 1319 -28 1314 -24 c 0
 1309 -21 1301 -26 1296 -36 c 0
 1290 -47 1281 -49 1271 -49 c 0
 1266 -49 1261 -49 1256 -49 c 0
 1243 -49 1229 -57 1217 -57 c 0
 1211 -57 1207 -56 1207 -51 c 0
261 2 m 0
 261 -17 251 -27 236 -27 c 0
 230 -27 225 -23 225 -19 c 0
 225 -14 217 -10 208 -10 c 0
 199 -10 191 -6 191 -2 c 0
 191 3 200 7 211 7 c 0
 222 7 232 12 236 19 c 0
 239 26 244 32 249 32 c 0
 257 32 261 16 261 2 c 0
887 -39 m 0
 878 -39 878 2 878 20 c 0
 878 32 880 40 889 40 c 0
 895 40 918 -7 918 -18 c 0
 918 -26 895 -39 887 -39 c 0
480 5 m 0
 480 -1 479 -8 473 -8 c 0
 462 -8 435 20 435 26 c 0
 435 29 443 32 453 35 c 0
 462 38 472 47 475 56 c 0
 478 66 487 74 495 74 c 0
 504 74 507 70 507 64 c 0
 507 54 496 40 488 40 c 0
 480 40 479 34 479 27 c 0
 479 20 480 12 480 5 c 0
87 105 m 0
 100 105 105 90 105 73 c 0
 105 54 99 34 88 34 c 0
 63 34 91 64 85 74 c 0
 81 81 76 81 68 73 c 0
 59 65 56 65 56 73 c 0
 56 86 72 105 87 105 c 0
472 88 m 0
 457 88 410 113 410 122 c 0
 410 135 443 149 456 149 c 0
 460 150 461 145 458 137 c 0
 455 130 458 115 466 104 c 0
 471 96 474 91 474 89 c 0
 474 88 473 88 472 88 c 0
236 205 m 0
 254 205 283 222 302 222 c 0
 307 222 309 220 309 216 c 0
 309 205 300 190 288 196 c 0
 280 199 272 193 265 182 c 0
 253 158 271 156 239 154 c 0
 226 153 214 157 211 164 c 0
 208 171 200 175 192 171 c 0
 185 168 191 177 204 190 c 0
 217 203 231 211 232 207 c 0
 233 206 234 205 236 205 c 0
367 167 m 0
 367 160 343 145 343 138 c 0
 343 135 348 133 355 133 c 0
 362 133 368 139 368 146 c 0
 368 153 376 162 385 168 c 0
 395 175 402 189 402 203 c 0
 402 220 408 228 421 233 c 0
 450 244 437 217 455 217 c 0
 456 217 458 216 460 216 c 0
 467 216 474 218 480 218 c 0
 488 218 493 216 493 208 c 0
 493 182 469 197 459 182 c 0
 449 164 444 195 430 186 c 0
 415 176 430 147 406 143 c 0
 397 140 385 134 380 126 c 0
 376 120 371 117 360 117 c 0
 352 117 341 118 326 121 c 0
 288 128 280 132 279 149 c 0
 278 166 280 168 299 163 c 0
 319 158 321 158 306 168 c 0
 293 179 294 180 326 179 c 0
 348 178 367 175 367 167 c 0
368 279 m 0
 368 293 376 302 389 302 c 0
 407 302 418 280 422 262 c 0
 427 246 424 242 411 242 c 0
 401 242 393 249 393 256 c 0
 393 263 388 268 381 268 c 0
 374 268 368 273 368 279 c 0
915 246 m 0
 915 254 981 310 981 310 c 2
 982 310 1025 275 1025 266 c 0
 1025 264 1022 263 1020 263 c 0
 1010 263 987 275 975 275 c 0
 971 275 968 272 968 269 c 0
 968 259 996 248 996 239 c 0
 996 236 994 233 988 231 c 0
 961 221 1001 207 983 196 c 0
 979 193 978 189 978 185 c 0
 978 179 981 173 981 168 c 0
 981 163 978 158 967 158 c 0
 939 158 964 180 945 187 c 0
 935 191 937 196 955 212 c 0
 977 231 978 233 965 246 c 0
 959 252 955 254 952 254 c 0
 944 254 939 242 923 242 c 0
 918 242 915 243 915 246 c 0
1170 193 m 0
 1170 204 1178 234 1170 234 c 0
 1159 234 1155 217 1143 217 c 0
 1139 217 1135 223 1135 230 c 0
 1135 237 1144 244 1156 248 c 0
 1176 253 1176 253 1163 273 c 0
 1156 284 1143 294 1134 294 c 0
 1107 294 1132 315 1118 323 c 0
 1113 327 1110 333 1110 338 c 0
 1110 343 1119 346 1138 346 c 0
 1165 346 1200 343 1200 334 c 0
 1200 325 1197 317 1209 311 c 0
 1241 292 1167 282 1209 271 c 0
 1219 268 1228 264 1228 260 c 0
 1228 256 1222 253 1214 254 c 0
 1198 254 1181 225 1181 205 c 0
 1181 189 1195 150 1203 150 c 0
 1217 150 1224 187 1242 162 c 0
 1248 154 1254 151 1254 156 c 0
 1254 172 1237 173 1237 193 c 0
 1237 217 1257 207 1257 189 c 0
 1256 181 1258 175 1263 175 c 0
 1267 175 1264 140 1288 154 c 0
 1294 158 1292 166 1284 175 c 0
 1275 185 1264 209 1264 228 c 0
 1264 248.865979381 1300.21383781 254.094165161 1300.21383781 272.058285936 c 0
 1300.21383781 273.895525561 1299.83505155 275.865979381 1299 278 c 0
 1296 286 1298 294 1303 294 c 0
 1308 294 1315 296 1319 296 c 0
 1324 296 1327 266 1327 241 c 0
 1327 224 1325 209 1321 209 c 0
 1313 209 1291 238 1291 211 c 0
 1291 197 1305 175 1310 172 c 0
 1316 168 1321 162 1321 156 c 0
 1321 150 1317 150 1312 158 c 0
 1305 168 1304 167 1304 151 c 0
 1304 138 1303 133 1290 133 c 0
 1277 133 1228 142 1228 133 c 0
 1228 128 1217 125 1204 125 c 0
 1181 125 1178 128 1173 162 c 0
 1171 172 1170 183 1170 193 c 0
94 337 m 0
 94 350 107 369 114 369 c 0
 131 369 129 356 117 343 c 0
 91 313 137 331 137 309 c 0
 137 303 132 294 132 285 c 0
 132 281 117 278 98 278 c 0
 79 278 64 282 64 286 c 0
 64 300 83 302 94 294 c 0
 104 286 106 285 106 293 c 0
 106 307 94 321 94 337 c 0
626 146 m 0
 644 146 654 155 654 171 c 0
 654 182 650 192 645 195 c 0
 627 201 659 220 649 228 c 0
 646 232 641 234 637 234 c 0
 627 234 604 196 604 186 c 0
 604 180 601 175 596 175 c 0
 592 175 587 172 587 167 c 0
 587 155 608 146 626 146 c 0
596 73 m 0
 566 74 512 118 512 150 c 0
 512 157 513 164 514 175 c 0
 519 213 525 225 591 298 c 0
 628 339 659 368 663 368 c 0
 663 368 l 0
 663 363 670 364 678 372 c 0
 686 380 705 386 719 386 c 0
 733 386 758 380 775 373 c 0
 800 363 805 364 809 373 c 0
 814.636009095 386.150687889 862.624816219 390.477876188 862.624816219 405.873294474 c 0
 862.624816219 406.867578219 862.424656056 407.908027286 862 409 c 0
 861 413 860 416 860 419 c 0
 860 429 867 434 873 434 c 0
 880 434 886 428 885 413 c 0
 885 407 885 401 885 396 c 0
 885 384 883 375 871 375 c 0
 866 375 855 378 850 378 c 0
 845 378 843 375 843 369 c 0
 843 361 846 343 846 330 c 0
 846 308 843 276 837 246 c 0
 826 192 816 109 816 35 c 0
 816 -36 831 -104 841 -159 c 0
 844 -173 846 -183 846 -192 c 0
 846 -217 817 -269 801 -275 c 0
 779 -285 783 -273 771 -250 c 0
 763 -233 757 -203 757 -166 c 0
 757 -162 757 -158 757 -154 c 0
 757 -86 740 -19 740 49 c 0
 740 58 741 67 741 76 c 0
 741 101 738 122 733 122 c 0
 730 122 727 117 723 105 c 0
 719 93 710 83 705 79 c 0
 690 70 719 52 710 43 c 0
 707 39 700 42 695 47 c 0
 689 53 664 57 638 58 c 0
 604 58 595 60 608 65 c 0
 622 71 620 73 596 73 c 0
1156 373 m 0
 1156 366 1160 361 1144 361 c 0
 1133 361 1127 366 1127 374 c 0
 1127 382 1121 394 1113 400 c 0
 1099 410 1099 410 1117 411 c 0
 1130 411 1135 416 1135 427 c 0
 1135 436 1140 445 1146 448 c 0
 1159 452 1168 429 1179 429 c 0
 1190 429 1172 445 1192 445 c 0
 1203 445 1209 435 1209 425 c 0
 1209 418 1205 411 1197 411 c 0
 1188 411 1156 387 1156 373 c 0
703 443 m 0
 703 456 667 461 693 476 c 0
 698 479 708 482 717 482 c 0
 729 482 739 478 739 470 c 0
 739 466 734 462 727 462 c 0
 714 462 702 440 715 431 c 0
 720 427 722 429 719 434 c 0
 715 439 722 445 731 448 c 0
 763 456 726 424 754 430 c 0
 755 430 758 431 759 431 c 0
 775 431 789 411 789 399 c 0
 789 396 780 394 769 394 c 0
 757 394 744 400 736 407 c 0
 729 414 720 420 715 420 c 0
 710 420 705 425 705 429 c 0
 705 434 704 439 703 443 c 0
975 513 m 0
 980 513 983 509 983 504 c 0
 983 500 997 496 1013 496 c 0
 1036 496 1043 492 1043 481 c 0
 1043 452 1028 444 994 443 c 0
 974 442 958 439 958 435 c 0
 958 431 953 429 946 429 c 0
 939 429 933 433 933 437 c 0
 933 442 938 445 945 445 c 0
 952 445 959 451 962 459 c 0
 968 476 983 456 983 478 c 0
 983 488 980 496 975 496 c 0
 971 496 967 500 967 504 c 0
 967 509 971 513 975 513 c 0
1110 515 m 0
 1110 539 1118 550 1144 550 c 0
 1173 550 1194 549 1179 524 c 0
 1174 516 1169 514 1169 520 c 0
 1169 525 1161 529 1151 529 c 0
 1136 529 1135 526 1139 508 c 0
 1143 496 1140 487 1136 487 c 0
 1123 487 1127 457 1116 457 c 0
 1105 457 1093 477 1093 484 c 0
 1093 491 1098 496 1102 496 c 0
 1107 496 1110 504 1110 515 c 0
340 363 m 0
 340 366 332 378 340 378 c 0
 344 379 356 381 367 382 c 0
 379 383 397 394 408 406 c 0
 435 438 431 416 466 438 c 0
 478 447 483 451 483 452 c 0
 483 452 482 452 481 452 c 0
 477 452 465 447 458 447 c 0
 455 447 452 448 452 451 c 0
 452 467 477 486 495 489 c 0
 511 490 516 497 516 513 c 0
 516 525 511 533 505 532 c 0
 487 528 513 563 515 565 c 0
 528 573 526 544 542 550 c 0
 550 553 554 549 554 538 c 0
 554 530 550 520 545 517 c 0
 541 514 537 509 537 504 c 0
 537 500 541 496 547 496 c 0
 553 496 563 485 568 471 c 0
 575 454 583 445 595 445 c 0
 605 445 612 450 612 454 c 0
 612 459 618 462 626 462 c 0
 650 462 617 431 646 441 c 0
 662 446 690 424 690 405 c 0
 690 394 676 388 659 384 c 0
 647 383 638 382 638 386 c 0
 638 393 605 431 589 431 c 0
 573 431 581 414 594 405 c 0
 604 398 609 394 609 387 c 0
 609 379.639095581 590.374623358 325.714749558 581.166973599 325.714749558 c 0
 580.367538103 325.714749558 579.639095581 326.121243576 579 327 c 0
 575 333 567 323 559 303 c 0
 550 281 543 273 532 273 c 0
 530 273 l 0
 522 273 511 276 504 280 c 0
 496 285 494 283 498 270 c 0
 502 259 498 252 489 248 c 0
 482.835771281 245.90648836 478.118945759 244.962782997 474.596223836 244.962782997 c 0
 468.148249627 244.962782997 465.700937464 248.124523931 465.700937464 253.184099992 c 0
 465.700937464 269.126885537 488.26411636 313.369662501 490 318 c 1
 490 319 489 319 489 319 c 0
 479 319 458 306 458 293 c 0
 458 282 464 274 447 278 c 0
 438 280 428 291 428 300 c 0
 428 306 432 310 443 310 c 0
 457 310 460 315 460 335 c 0
 460 348 455 366 447 373 c 0
 440 381 438 386 442 386 c 0
 451 386 477 402 477 384 c 0
 477 376 485 369 493 368 c 0
 503 367 507 356 507 336 c 0
 507 319 512 306 519 303 c 0
 527 300 528 306 524 319 c 0
 512 360 567 300 541 350 c 0
 532 368 531 375 539 380 c 0
 542 382 543 384 543 386 c 0
 543 397 514 411 509 411 c 0
 505 411 503 407 503 403 c 0
 503 394 467 402 453 402 c 0
 434.043876536 402 422.673706093 393.615525609 422.673706093 381.387637733 c 0
 422.673706093 374.263645095 426.533027989 365.835101229 435 357 c 0
 448 344 452 332 447 328 c 0
 444 325 423 313 411 313 c 0
 405 313 402 315 402 322 c 0
 402 330 400 336 397 336 c 0
 394 336 369 308 368 316 c 0
 368 330 329 316 329 336 c 0
 329 345 340 354 340 363 c 0
635 600 m 0
 624 600 601 597 590 597 c 0
 577 597 570 599 570 604 c 0
 570 609 581 614 594 614 c 0
 607 614 622 619 629 623 c 0
 636 627 645 631 649 631 c 0
 653 631 654 628 654 623 c 0
 654 619 663 614 674 614 c 0
 708 614 711 598 727 567 c 0
 733 554 737 547 737 542 c 0
 737 534 727 534 698 534 c 0
 672 534 645 537 640 541 c 0
 636 544 632 545 629 545 c 0
 612.557377049 545 606.405267401 489.805428648 594.256748362 489.805428648 c 0
 593.844934157 489.805428648 593.426229508 489.868852459 593 490 c 0
 584 492 581 500 581 509 c 0
 581 532 609 538 603 562 c 0
 602 566 601 569 601 571 c 0
 601 577 604 578 608 578 c 0
 615 578 626 573 632 573 c 0
 635 573 638 574 638 578 c 0
 638 583 646 586 657 582 c 0
 673 578 674 579 665 590 c 0
 659 597 651 600 635 600 c 0
1223 542 m 0
 1223 566 1258 560 1258 584 c 0
 1258 597 1263 600 1283 601 c 0
 1304 601 1308 605 1307 620 c 0
 1306 633 1309 638 1317 634 c 0
 1329 629 1332 605 1332 581 c 0
 1332 547 1332 514 1307 508 c 0
 1290 504 1288 499 1296 485 c 0
 1303 472 1307 472 1317 480 c 0
 1326 488 1329 486 1329 469 c 0
 1329 449 1326 447 1282 443 c 0
 1269 442 1258 441 1250 441 c 0
 1226 441 1220 448 1220 473 c 0
 1220 481 1224 487 1228 487 c 0
 1233 487 1237 484 1237 479 c 0
 1237 475 1240 471 1244 471 c 0
 1248 471 1250 480 1249 492 c 0
 1248 504 1241 519 1233 525 c 0
 1227 530 1223 536 1223 542 c 0
911 588 m 0
 895 589 869 573 853 573 c 0
 846 573 840 578 830 588 c 0
 812 608 812 607 830 602 c 0
 846 597 847 597 838 616 c 0
 833 627 816 641 803 646 c 0
 790 652 776 654 773 651 c 0
 770 650 778 645 788 641 c 0
 798 638 806 631 806 625 c 0
 806 618 801 614 794 614 c 0
 787 614 781 617 781 621 c 0
 781 624 778 625 773 625 c 0
 767 625 758 623 751 623 c 0
 744 623 739 625 739 630 c 0
 739 635 745 639 752 639 c 0
 757 639 759 642 759 646 c 0
 759 654 752 666 752 676 c 0
 752 684 757 690 771 690 c 0
 786 690 788 665 806 665 c 0
 825 665 827 648 841 648 c 0
 850 648 860 686 872 686 c 0
 876.740740741 686 878.40877915 681.61042524 878.40877915 674.938271605 c 0
 878.40877915 659.091906722 869 630.37037037 869 617 c 0
 869 604 872 599 884 599 c 0
 900 599 925 607 925 614 c 0
 925 618 916 624 906 629 c 0
 890 637 894 638 928 633 c 0
 957 629 967 630 963 638 c 0
 959 643 959 648 962 648 c 0
 969 648 985 636 985 624 c 0
 985 613 969 606 960 606 c 0
 951 606 949 599 953 580 c 0
 957 556 956 555 933 555 c 0
 917 555 908 559 908 567 c 0
 908 579 933 588 911 588 c 0
687 631 m 0
 666 631 665 665 649 665 c 0
 642 665 638 670 638 677 c 0
 638 684 626 694 612 702 c 0
 599 710 587 718 587 719 c 0
 587 722 596 722 608 718 c 0
 625 714 629 717 629 730 c 0
 629 743 633 746 650 742 c 0
 667 740 675 735 675 729 c 0
 675 724 669 718 657 711 c 0
 616 689 665 688 672 697 c 0
 675 703 683 706 691 706 c 0
 703 706 715 701 715 691 c 0
 715 682 716 673 722 669 c 0
 726 666 731 660 731 656 c 0
 731 640 690 674 713 644 c 0
 722 633 722 627 715 620 c 0
 707 612 705 612 705 620 c 0
 705 626 697 631 687 631 c 0
1325 833 m 0
 1328 833 1329 798 1329 754 c 0
 1329 744 1329 735 1329 727 c 0
 1329 686 1328 678 1317 678 c 0
 1310 678 1300 681 1284 681 c 0
 1266 682 1275 695 1286 695 c 0
 1291 695 1297 694 1302 694 c 0
 1308 694 1312 696 1314 705 c 0
 1318 716 1314 721 1306 720 c 0
 1293 720 1279 740 1299 740 c 0
 1306 740 1311 748 1311 756 c 0
 1310 764 1318 833 1325 833 c 0
709 782 m 0
 682 782 654 788 654 817 c 0
 654 830 658 842 663 842 c 0
 673 842 685 810 698 810 c 0
 705 810 714 814 716 805 c 0
 721 793 751 798 775 798 c 0
 794 798 798 791 813 765 c 0
 822 750 828 735 828 727 c 0
 828 720 820 712 834 717 c 0
 836 718 837 718 838 718 c 0
 842 718 844 715 844 711 c 0
 844 701 836 685 832 685 c 0
 828 685 820 701 815 714 c 0
 809 728 797 741 788 745 c 0
 778 748 773 756 776 763 c 0
 780 773 778 773 763 765 c 0
 736 750 733 782 709 782 c 0
EndSplineSet
EndChar

StartChar: r
Encoding: 114 114 57
Width: 767
VWidth: 189
Flags: HW
LayerCount: 2
Fore
SplineSet
116 -7 m 0
 97 -7 65 -3 65 10 c 0
 65 20 74 40 83 32 c 0
 87 28 91 28 91 31 c 0
 91 34 97 29 103 21 c 0
 115 6 115 5 115 25 c 0
 115 39 111 45 104 47 c 0
 96 49 98 50 108 50 c 0
 128 50 125 25 125 1 c 0
 125 -6 123 -7 116 -7 c 0
131 189 m 0
 119 190 123 200 133 200 c 0
 145 200 164 190 166 189 c 0
 169 185 169 184 165 184 c 0
 159 184 156 171 156 161 c 0
 156 151 164 144 160 137 c 0
 158 133 151 134 139 140 c 0
 125 147 122 151 124 161 c 0
 127 171 127 172 122 166 c 0
 111 150 98 183 92 161 c 0
 90 154 88 147 86 147 c 0
 84 147 74 154 66 160 c 0
 52 172 52 172 64 170 c 0
 72 169 82 175 90 184 c 0
 112 210 107 174 130 184 c 0
 141 188 141 189 131 189 c 0
160 220 m 0
 153 220 139 227 139 235 c 0
 139 247 126 249 126 256 c 0
 126 267 154 276 139 286 c 0
 134 289 132 292 136 292 c 0
 142 292 173 278 156 267 c 0
 150 264 145 257 145 252 c 0
 145 240 163 240 163 228 c 0
 163 223 161 220 160 220 c 0
332 547 m 0
 337 552 374 573 374 558 c 0
 374 552 362 541 362 552 c 0
 362 557 358 555 352 549 c 0
 346 543 340 530 340 520 c 0
 340 510 337 500 333 498 c 0
 328 497 331 517 326 524 c 0
 320 532 320 535 332 547 c 0
454 475 m 0
 454 489 446 504 435 504 c 0
 432 504 431 502 431 499 c 0
 431 494 434 485 434 479 c 0
 434 475 432 473 428 473 c 0
 418 473 380 510 380 521 c 0
 380 536 401 562 418 562 c 0
 440 562 463 555 474 544 c 0
 481 537 485 534 488 534 c 0
 491 534 494 537 500 543 c 0
 506 550 513 553 519 553 c 0
 540 553 558 511 576 511 c 0
 611 511 651 551 672 571 c 0
 682 580 692 587 696 587 c 0
 708 587 716 573 716 558 c 0
 716 555 716 552 716 549 c 0
 716 537 719 530 719 525 c 0
 719 507.3 661.950277778 494.434722222 661.950277778 485.453337963 c 0
 661.950277778 481.348157892 661.056844266 477.647718578 654 480 c 0
 648 482 643 478 640 468 c 0
 635 451 613 448 594 448 c 0
 591 448 545 453 532 453 c 0
 518 453 517 448 513 432 c 0
 509 420 505 382 503 348 c 0
 499 286 500 286 480 286 c 0
 458 286 441 297 441 321 c 0
 441 344 454 453 454 475 c 0
84 603 m 0
 115 603 97 598 97 586 c 0
 97 585 137 584 110 573 c 0
 108.121093873 572.060546936 55.0530083405 544.643932112 48.6336762826 544.643932112 c 0
 48.2199558904 544.643932112 48 544.757812254 48 545 c 0
 48 553 72 556 72 562 c 0
 72 564 67 570 60 574 c 0
 52 578 50 580 54 580 c 0
 58 580 60 585 60 590 c 0
 60 601 71 603 84 603 c 0
644 623 m 0
 653 623 654 619 652 598 c 0
 650 565 648 587 634 587 c 0
 620 587 636 569 624 573 c 0
 619 575 616 571 616 565 c 0
 616 559 615 554 610 552 c 0
 604 550 602 553 605 561 c 0
 607 567 607 570 605 568 c 0
 598 559 590 579 590 588 c 0
 590 597 593 605 598 605 c 0
 601 605 603 598 603 590 c 0
 603 574 603 574 618 590 c 0
 626 599 633 610 633 615 c 0
 633 619 638 623 644 623 c 0
569 646 m 0
 569 634 595 593 572 593 c 0
 562 593 579 617 564 617 c 0
 552 617 561 627 552 627 c 0
 545 625 550 617 544 617 c 0
 535 617 512 645 512 655 c 0
 512 661 514 665 516 665 c 0
 520 665 533 657 541 657 c 0
 552 657 566 663 566 670 c 0
 566 672 566 676 566 679 c 0
 566 681 571 683 576 683 c 0
 581 683 584 682 584 679 c 0
 584 673 569 654 569 646 c 0
352 635 m 0
 366 635 361 622 380 623 c 0
 382 623 385 623 388 623 c 0
 400 623 416 624 416 630 c 0
 416 637 440 638 440 653 c 0
 440 661 437 663 433 663 c 0
 430 663 426 662 422 662 c 0
 419 662 416 663 414 667 c 0
 412 673 414 675 424 673 c 0
 442 668 449 690 462 690 c 0
 474 690 474 677 492 677 c 0
 504 677 506 674 506 662 c 0
 506 654 504 647 501 647 c 0
 495 647 476 602 476 597 c 0
 476 593 498 589 498 579 c 0
 498 569 491 566 482 566 c 0
 464 566 438 580 436 586 c 0
 435 590 438 593 442 593 c 0
 449 593 462 578 468 583 c 0
 470 585 467 592 459 597 c 0
 445 607 446 606 458 617 c 0
 464 623 470 631 470 637 c 0
 470 654 448 653 448 641 c 0
 448 636 455 631 455 626 c 0
 455 621 435 613 432 607 c 0
 430 603 425 599 422 599 c 0
 418 599 416 603 416 608 c 0
 416 617 403 616 403 609 c 0
 403 601 420 589 420 584 c 0
 420 578 410 584 404 590 c 0
 392 600 384 596 369 596 c 0
 362 596 361 599 361 604 c 0
 361 607 362 611 362 614 c 0
 362 619 360 623 353 623 c 0
 348 623 344 626 344 629 c 0
 344 633 347 635 352 635 c 0
530 721 m 0
 520 721 509 753 509 765 c 0
 509 771 513 774 522 774 c 0
 525 774 569 744 565 744 c 0
 558 744 548 754 538 754 c 0
 526 754 521 743 532 735 c 0
 543 728 540 721 530 721 c 0
380 715 m 0
 371 715 362 722 362 730 c 0
 362 743 377 727 382 727 c 0
 400 727 397 776 411 776 c 0
 430 776 393 732 430 758 c 0
 438 764 449 768 455 768 c 0
 460 768 464 764 464 759 c 0
 464 753 454 739 445 739 c 0
 442 739 439 742 436 742 c 0
 430 742 422 734 416 734 c 0
 408 734 407 750 402 733 c 0
 399 724 391 715 380 715 c 0
48 786 m 0
 48 800 54 819 54 827 c 0
 54 827 57 828 60 828 c 0
 64 828 66 824 66 819 c 0
 66 814 72 810 78 810 c 0
 84 810 91 806 91 801 c 0
 91 795 87 790 83 788 c 0
 78 786 74 778 74 768 c 0
 74 757 78 750 83 750 c 0
 87 750 91 746 91 741 c 0
 91 729 123 731 125 720 c 0
 130 708 122 721 118 721 c 0
 108 721 91 701 84 701 c 0
 80 701 74 708 63 708 c 0
 51 708 48 711 48 729 c 0
 48 743 52 750 58 750 c 0
 63 750 66 752 66 756 c 0
 66 759 63 764 58 766 c 0
 53 769 48 778 48 786 c 0
EndSplineSet
Substitution2: "ss01" r.ss01
EndChar

StartChar: s
Encoding: 115 115 58
Width: 718
VWidth: -302
Flags: HW
LayerCount: 2
Fore
SplineSet
323 584 m 0
 323 561 381 521 398 521 c 0
 454 521 582 424 615 391 c 0
 644 360 670 295 670 231 c 0
 670 212 668 194 663 176 c 0
 647 106 534 9 460 -11 c 0
 430 -19 397 -23 362 -23 c 0
 268 -23 168 2 116 35 c 0
 62 68 48 90 48 130 c 0
 48 172 55 184 88 184 c 0
 109 184 154 168 182 148 c 0
 212 128 261 113 291 113 c 0
 370 113 521 158 521 247 c 0
 521 260 518 275 510 290 c 0
 501 308 431 352 356 388 c 0
 280 424 198 470 177 491 c 0
 155 511 136 542 136 560 c 0
 136 578 148 612 166 638 c 0
 204 696 342 790 422 806 c 0
 455 814 502 819 524 821 c 0
 582 821 634 760 634 698 c 0
 634 654 634 648 571 648 c 0
 557 648 535 649 518 649 c 0
 457 649 406 640 370 620 c 0
 336 603 323 594 323 584 c 0
EndSplineSet
Substitution2: "ss01" s.ss01
EndChar

StartChar: t
Encoding: 116 116 59
Width: 773
VWidth: -535
Flags: HW
LayerCount: 2
Fore
SplineSet
475 104 m 0
 523 104 643 117 680 117 c 0
 715 117 725 110 725 94 c 0
 725 90 724 86 723 80 c 0
 706 -4 577 -32 457 -32 c 0
 363 -32 297 -17 236 27 c 0
 148 86 150 88 142 317 c 0
 138 508 127 556 83 594 c 0
 59.2808419885 616.470781274 48.0292398058 633.097395753 48.0292398058 651.661946773 c 0
 48.0292398058 662.83930052 52.1079557432 674.719158011 60 689 c 0
 75 716 97 741 110 741 c 0
 123 741 144 763 159 788 c 0
 184 834 299 1399 322 1445 c 0
 335.389187695 1469.10053785 361.526488963 1483.63999052 391.166364179 1483.63999052 c 0
 394.7322471 1483.63999052 398.348825441 1483.42954995 402 1483 c 0
 446 1475 457 1462 457 1374 c 0
 457 1365 457 1356 457 1346 c 0
 457 1277 436 1134 413 1031 c 0
 394 948 381 868 381 828 c 0
 381 779 424 766 503 766 c 0
 573.55247268 766 596.72694273 760.077749671 596.72694273 735.494547657 c 0
 596.72694273 731.505787717 596.116831934 727.025743702 595 722 c 0
 582 657 461 641 390 626 c 0
 333 616 316 595 301 519 c 0
 296 485 293 444 293 402 c 0
 293 292 312 170 358 132 c 0
 383 113 416 104 475 104 c 0
EndSplineSet
Substitution2: "ss01" t.ss01
EndChar

StartChar: u
Encoding: 117 117 60
Width: 872
VWidth: -385
Flags: HW
LayerCount: 2
Fore
SplineSet
645 721 m 0
 672 721 698 692 698 657 c 0
 698 624 690 569 676 517 c 0
 659 449 645 363 645 326 c 0
 645 243 666 182 749 182 c 0
 798 182 824 167 824 145 c 0
 824 104 741 56 703 56 c 0
 681 56 635 78 599 100 c 0
 573 119 558 131 543 131 c 0
 523 131 503 110 458 60 c 0
 388 -16 372 -26 278 -26 c 0
 128 -26 93 15 62 148 c 0
 53 191 48 229 48 272 c 0
 48 393 92 612 120 687 c 0
 137 729 172 814 215 814 c 0
 225 814 236 809 246 799 c 0
 256.34042201 788.65957799 261.349437116 775.061073984 261.349437116 756.592528996 c 0
 261.349437116 741.126061038 257.83650894 722.244130395 251 699 c 0
 222 592 167 424 167 280 c 0
 167 186 178 151 215 110 c 0
 241.61355858 79.4726828048 262.100114563 67.3263734032 287.010695996 67.3263734032 c 0
 293.924485819 67.3263734032 301.179062026 68.2620137836 309 70 c 0
 392 92 506 406 533 513 c 0
 552 588 574 665 584 685 c 0
 596 704 623 721 645 721 c 0
EndSplineSet
EndChar

StartChar: v
Encoding: 118 118 61
Width: 1119
VWidth: -480
Flags: HW
LayerCount: 2
Fore
SplineSet
204 726 m 0
 204 656 196 548 196 470 c 0
 196 379 204 303 219 252 c 0
 235 190 266 104 321 104 c 0
 334 104 348 109 363 119 c 0
 385 130 424 185 451 241 c 0
 480 293 519 426 541 536 c 0
 572 685 589 738 618 742 c 0
 619.970601853 742.358291246 622.053529745 742.532046855 624.228660959 742.532046855 c 0
 646.336916387 742.532046855 677.970601853 724.58153409 698 700 c 0
 720 672 732 659 759 659 c 0
 778 659 803 666 845 677 c 0
 904 690 975 711 1002 718 c 0
 1010.10701635 719.930241989 1017.65515759 720.891767102 1024.55812256 720.891767102 c 0
 1053.41733152 720.891767102 1071 704.086007846 1071 671 c 0
 1071 604 931 562 854 547 c 0
 688 515 678 522 631 362 c 0
 584 211 553 112 447 29 c 0
 397 -9 350 -27 285 -27 c 0
 200 -27 190 -20 140 68 c 0
 102 133 78 220 62 364 c 0
 52 439 48 495 48 543 c 0
 48 593 53 633 62 673 c 0
 84 754 96 835 159 835 c 0
 177 835 192 821 199 808 c 0
 203 800 204 769 204 726 c 0
EndSplineSet
EndChar

StartChar: w
Encoding: 119 119 62
Width: 1183
VWidth: -223
Flags: HW
LayerCount: 2
Fore
SplineSet
660 571 m 0
 660 531 650 438 650 388 c 0
 650 279 670 197 718 136 c 0
 736.289026397 112.723057313 745.97779786 101.425041141 755.067010933 101.425041141 c 0
 762.378016488 101.425041141 769.301110107 108.734813476 780 123 c 0
 818 171 882 523 882 613 c 0
 882 700 892 737 949 737 c 0
 970 737 997 732 1033 723 c 0
 1094 706 1135 689 1135 667 c 0
 1135 653 1118 637 1081 615 c 0
 1048 595 1014 576 1005 574 c 0
 997 571 979 493 964 403 c 0
 949 311 926 196 910 142 c 0
 880 46 847 -11 741 -11 c 0
 666 -11 608 56 586 112 c 0
 578 136 566 146 554 146 c 0
 531 146 505 114 487 87 c 0
 455 36 341 -23 252 -23 c 0
 241 -23 232 -22 222 -20 c 0
 132 -2 116 16 78 88 c 0
 56 129 48 198 48 275 c 0
 48 393 66 531 81 615 c 0
 99 719 119 778 141 793 c 0
 157 807 179 817 187 817 c 0
 208 817 216 796 216 762 c 0
 216 709 198 624 183 544 c 0
 161 429 150 335 150 270 c 0
 150 192 171 122 199 93 c 0
 218 75 228 65 243 65 c 0
 258 65 279 75 322 96 c 0
 394 130 413 153 459 252 c 0
 486 315 521 417 531 477 c 0
 544 547 560 630 612 630 c 0
 646 630 660 616 660 571 c 0
EndSplineSet
EndChar

StartChar: x
Encoding: 120 120 63
Width: 1034
VWidth: -217
Flags: HW
LayerCount: 2
Fore
SplineSet
262 819 m 0
 310 813 318 806 338 686 c 0
 352 616 364 528 370 495 c 0
 376 463 391 425 411 425 c 0
 431 425 490 454 549 494 c 0
 613 536 728 624 806 688 c 0
 886 751 958 804 968 804 c 0
 977 804 986 788 986 770 c 0
 986 750 948 702 900 662 c 0
 850 623 738 533 646 465 c 0
 556 397 476 324 468 306 c 0
 466 301 465 296 465 291 c 0
 465 272 480 253 520 222 c 0
 575 179 635 164 740 164 c 0
 794 164 853 169 884 176 c 0
 908.302943395 182.943698113 924.507283002 186.497283012 935.80071669 186.497283012 c 0
 950.530150942 186.497283012 956.905830189 180.452415095 962 168 c 0
 963.2 164.8 963.76 161.2 963.76 157.36 c 0
 963.76 142 954.8 122.8 942 110 c 0
 918 84 876 78 740 78 c 0
 628 78 548 87 514 105 c 0
 484 119 433 157 400 189 c 0
 375 211 361 224 345 224 c 0
 319 224 289 192 213 111 c 0
 143 37 78 -22 68 -22 c 0
 58 -22 48 -4 48 22 c 0
 48 55 86 110 168 198 c 0
 234 268 286 334 286 344 c 0
 286 353 270 442 250 542 c 0
 230 641 213 747 213 774 c 0
 213 810.264327588 216.107517617 821.047010719 238.981375688 821.047010719 c 0
 245.122186887 821.047010719 252.687617693 820.269870315 262 819 c 0
EndSplineSet
EndChar

StartChar: y
Encoding: 121 121 64
Width: 766
VWidth: 45
Flags: HW
LayerCount: 2
Fore
SplineSet
266 840 m 0
 290 840 294 793 294 742 c 0
 294 647 327 575 411 575 c 0
 502 575 582 704 617 785 c 0
 639 834 663 875 671 875 c 0
 679 875 694 865 706 852 c 0
 715 843 718 823 718 792 c 0
 718 772 717 746 714 714 c 0
 692 497 629 223 567 14 c 0
 524 -122 489 -208 458 -247 c 0
 407 -309 312 -379 209 -379 c 0
 207 -379 204 -380 202 -380 c 0
 165 -380 120 -371 96 -359 c 0
 69 -346 48 -326 48 -313 c 0
 48 -298 65 -294 88 -294 c 0
 142 -294 189 -310 237 -310 c 0
 309 -310 392 -208 418 -156 c 0
 461 -70 526 158 552 265 c 0
 558 287 592 441 592 517 c 0
 592 542 588 559 578 559 c 0
 569 559 542 544 520 527 c 0
 493 506 456 495 407 495 c 0
 311 495 270 529 236 593 c 0
 223 617 218 642 218 674 c 0
 218 725 231 840 266 840 c 0
EndSplineSet
EndChar

StartChar: z
Encoding: 122 122 65
Width: 798
VWidth: -333
Flags: HW
LayerCount: 2
Fore
SplineSet
426 664 m 0
 426 693 414 721 380 721 c 0
 357 721 318 696 270 652 c 0
 225 611 173 540 155 495 c 0
 134 449 119 404 119 396 c 0
 119 388 157 380 203 380 c 0
 262 380 297 392 318 410 c 0
 336 430 426 579 426 664 c 0
48 305 m 0
 48 321 52 345 52 383 c 0
 52 395 52 407 52 419 c 0
 52 464 60 523 74 548 c 0
 112 619 236 758 316 793 c 0
 354 810 402 827 423 827 c 0
 476 827 531 743 531 690 c 0
 531 665 515 597 497 544 c 0
 482 499 474 473 474 458 c 0
 474 437 490 434 513 434 c 0
 554 434 653 454 691 454 c 0
 720 454 750 437 750 412 c 0
 750 371 634 352 560 341 c 0
 445 324 401 309 365 277 c 0
 323 235 273 173 273 103 c 0
 273 79 275 71 307 71 c 0
 390 71 509 93 563 123 c 0
 601 141 644 156 658 156 c 0
 683 156 696 144 696 128 c 0
 696 116 689 102 675 88 c 0
 611 35 502 4 384 -13 c 0
 349 -18 316 -21 287 -21 c 0
 215 -21 157 0 157 70 c 0
 157 97 168 130 186 169 c 0
 204 210 221 252 221 260 c 0
 221 268 181 278 133 281 c 0
 70 284 48 289 48 305 c 0
EndSplineSet
EndChar

StartChar: adieresis
Encoding: 228 228 66
Width: 691
VWidth: -249
Flags: HW
LayerCount: 2
Fore
SplineSet
349 331 m 0
 323 376 302 401 276 401 c 0
 259 401 239 390 213 367 c 0
 160 321 122 257 122 161 c 0
 122 117 129 98 151 76 c 0
 167 60 176 52 190 52 c 0
 201 52 214 55 235 62 c 0
 318 85 382 138 382 242 c 0
 382 270 374 291 349 331 c 0
537 429 m 0
 556 429 564 403 564 373 c 0
 564 347 546 290 523 248 c 0
 501 206 482 163 482 153 c 0
 482 123 575 104 608 104 c 0
 634 104 643 99 643 91 c 0
 643 70 587 38 559 38 c 0
 517 38 436 73 410 73 c 0
 388 73 366 63 329 36 c 0
 288 7 238 -16 188 -16 c 0
 89 -16 48 66 48 161 c 0
 48 217 62 276 85 319 c 0
 116 378 197 453 265 471 c 0
 284 476 300 478 314 478 c 0
 347 478 366 463 385 430 c 0
 397 408 414 380 421 368 c 0
 426 362 430 358 435 358 c 0
 444 358 456 368 478 391 c 0
 502 416 524 429 537 429 c 0
413 693 m 0
 413 739 418 766 443 766 c 0
 469 766 482 735 482 704 c 0
 482 683 489 650 496 629 c 0
 501 615 503 605 503 596 c 0
 503 582 497 574 487 574 c 0
 477 574 463 582 448 596 c 0
 420 622 413 641 413 693 c 0
218 690 m 0
 218 717 278 856 305 856 c 0
 321 856 327 846 327 831 c 0
 327 803 297 734 297 708 c 0
 297 687.646017699 327.491346229 648.069230167 327.491346229 622.729167778 c 0
 327.491346229 616.945023103 325.902654867 611.902654867 322 608 c 0
 314 600 291 595 273 601 c 0
 243 607 218 650 218 690 c 0
EndSplineSet
EndChar

StartChar: odieresis
Encoding: 246 246 67
Width: 776
VWidth: -325
Flags: HW
LayerCount: 2
Fore
SplineSet
139 134 m 0
 139 90 160 61 187 61 c 0
 206 61 230 70 260 84 c 0
 296 102 341 142 364 172 c 0
 384 203 402 236 402 247 c 0
 402 259 392 262 379 262 c 0
 369 262 358 261 347 261 c 0
 331 261 317 264 317 283 c 0
 317 292 320 305 328 322 c 0
 335 340.5 338.5 352.75 338.5 362.625 c 0
 338.5 372.5 335 380 328 389 c 0
 317 401 303 412 292 412 c 0
 281 412 256 398 236 384 c 0
 206 359 139 210 139 134 c 0
281 486 m 0
 311 486 358 473 384 456 c 0
 408 440 445 430 468 430 c 0
 489 430 513 429 516 418 c 0
 520 403 547 353 572 353 c 0
 582 353 596 358 619 365 c 0
 651 376 691 382 704 382 c 0
 717 382 728 369 728 350 c 0
 728 302 610 273 560 266 c 0
 511 260 500 251 469 190 c 0
 432 118 338 24 264 -1 c 0
 240 -9 206 -18 186 -18 c 0
 132 -18 63 21 53 67 c 0
 50 78 48 93 48 109 c 0
 48 190 87 315 106 353 c 0
 137 413 198 486 281 486 c 0
277 856 m 0
 290 856 311 845 319 832 c 0
 326.5 821.772727273 335.045971074 818.402376033 344.400192524 818.402376033 c 0
 362.485020661 818.402376033 383.590909091 831 406 831 c 0
 440 831 446 794 446 745 c 0
 446 742.781818182 446.002644628 740.644297521 446.002644628 738.584504884 c 0
 446.002644628 684 444.145454545 684 342 684 c 0
 260 685 235 691 223 710 c 0
 218 718 217 727 217 737 c 0
 217 770 239 810 245 830 c 0
 250 843 264 856 277 856 c 0
EndSplineSet
EndChar

StartChar: udieresis
Encoding: 252 252 68
Width: 666
VWidth: -278
Flags: HW
LayerCount: 2
Fore
SplineSet
618 107 m 0
 618 76 557 47 520 47 c 0
 496 47 469 57 432 77 c 0
 397 96 362 112 360 112 c 0
 358 112 328 88 294 58 c 0
 245 19 199 -16 140 -16 c 0
 87 -16 48 38 48 92 c 0
 48 117 54 150 68 205 c 0
 83 268 114 358 137 409 c 0
 160 457 185 502 195 508 c 0
 198.626603275 510.09227112 202.136470592 511.03663865 205.491608552 511.03663865 c 0
 226.190269793 511.03663865 241 475.094427242 241 451 c 0
 241 443 240 433 238 424 c 0
 232 399 208 333 183 280 c 0
 153 218 137 163 137 128 c 0
 137 83 142 63 162 63 c 0
 171 63 184 68 201 77 c 0
 253 105 317 179 350 227 c 0
 365 250 390 308 406 360 c 0
 424 411 446 460 458 471 c 0
 469 482 482 491 488 491 c 0
 501 491 527 469 527 447 c 0
 527 429 519 400 499 345 c 0
 478 287 463 218 463 190 c 0
 463 136 486 116 531 116 c 0
 548 116 575 122 591 122 c 0
 609 122 618 116 618 107 c 0
424 718 m 0
 424 779 440 844 486 844 c 0
 502 844 505 836 498 803 c 0
 494 780 490 737 490 712 c 0
 490 678 481 656 456 656 c 0
 433 656 424 684 424 718 c 0
334 858 m 0
 367 858 371 823 375 786 c 0
 376 762 382 728 388 712 c 0
 396 688 392 682 362 674 c 0
 353.939256416 672.072430882 346.400528419 671.127479339 339.448386348 671.127479339 c 0
 306.72695092 671.127479339 287 692.060743584 287 730 c 0
 287 740 288 751 290 766 c 0
 298 820 296 858 334 858 c 0
EndSplineSet
EndChar

StartChar: germandbls
Encoding: 223 223 69
Width: 1171
VWidth: -338
Flags: HW
LayerCount: 2
Fore
SplineSet
80 394 m 0
 62 394 48 416 48 426 c 0
 48 437 57 466 67 485 c 0
 93 531 259 618 283 661 c 0
 293 679 307 743 315 802 c 0
 334 949 415 1149 485 1250 c 0
 554 1348 628 1407 746 1445 c 0
 784 1458 835 1465 886 1465 c 0
 1007 1465 1094 1434 1094 1320 c 0
 1094 1283 1076 1219 1054 1176 c 0
 1032 1133 1016 1082 1016 1058 c 0
 1016 1036 1038 981 1070 936 c 0
 1105 881 1123 828 1123 776 c 0
 1123 716 1099 658 1054 600 c 0
 1019 552 953 485 910 451 c 0
 868 416 816 387 797 387 c 0
 778 387 758 399 758 413 c 0
 758 424 766 446 774 456 c 0
 782 467 813 495 843 519 c 0
 902 562 1016 677 1016 770 c 0
 1016 807 989 867 946 928 c 0
 909 981 877 1040 877 1056 c 0
 877 1074 901 1133 933 1191 c 0
 960 1246 972 1276 972 1298 c 0
 972 1344 927 1362 885 1362 c 0
 817 1362 729 1324 690 1299 c 0
 576 1216 493 1062 453 896 c 0
 435 819 417 637 414 488 c 0
 411 339 402 98 394 -48 c 0
 386 -194 370 -331 360 -350 c 0
 350.274914006 -369.450171988 330.38863075 -379.520777273 307.942574631 -379.520777273 c 0
 305 -379.520777273 302.013433105 -379.34770382 299 -379 c 0
 265 -373 257 -364 257 -311 c 0
 257 -249 284 265 284 405 c 0
 284 490 277 506 261 506 c 0
 243 506 200 479 165 447 c 0
 135 417 99 394 80 394 c 0
EndSplineSet
EndChar

StartChar: one
Encoding: 49 49 70
Width: 1372
VWidth: -829
Flags: HW
LayerCount: 2
Fore
SplineSet
1273 1445 m 0
 1291 1445 1324 1407 1324 1368 c 0
 1324 1240 1150 560 1140 500 c 0
 1132 458 1124 378 1124 330 c 0
 1124 322 1123 312 1123 301 c 0
 1123 248 1127 166 1136 105 c 0
 1143 59 1148 28 1148 8 c 0
 1148 -30 1132 -32 1094 -32 c 0
 983 -32 970 33 970 172 c 0
 970 252 999 458 1035 628 c 0
 1069 798 1101 968 1101 1004 c 0
 1100 1025 1097 1037 1088 1037 c 0
 1072 1037 1037 1000 958 911 c 0
 817 751 550 523 382 424 c 0
 336 401 253 382 198 382 c 0
 141 382 80 397 65 418 c 0
 54.8221067006 430.891998179 48.3273960505 451.610759489 48.3273960505 470.159739926 c 0
 48.3273960505 478.94792037 49.7852621996 487.249050619 53 494 c 0
 62 518 79 528 117 528 c 0
 145 528 199 519 229 519 c 0
 289 519 330 540 441 613 c 0
 613 729 1006 1120 1113 1292 c 0
 1155 1355 1199 1414 1214 1424 c 0
 1229 1434 1258 1445 1273 1445 c 0
EndSplineSet
EndChar

StartChar: two
Encoding: 50 50 71
Width: 1469
VWidth: -529
Flags: HW
LayerCount: 2
Fore
SplineSet
88 955 m 0
 68 955 48 1008 48 1076 c 0
 48 1203 145 1314 225 1371 c 0
 304 1431 466 1501 608 1501 c 0
 685 1501 756 1480 805 1425 c 0
 849 1375 859 1333 859 1205 c 0
 859 985 777 757 683 615 c 0
 641 545 549 423 475 337 c 0
 401 251 341 169 341 159 c 0
 341 147 371 129 405 121 c 0
 418 117 446 116 484 116 c 0
 690 116 1054 155 1221 169 c 0
 1255 171 1285 172 1310 172 c 0
 1373 172 1408 165 1417 151 c 0
 1419.60151848 147.357874134 1420.84945728 143.03895843 1420.84945728 138.324961891 c 0
 1420.84945728 124.918785219 1410.75635566 108.317266744 1393 95 c 0
 1371 77 1245 57 1111 47 c 0
 981 37 733 13 565 -5 c 0
 436 -20 301 -30 220 -30 c 0
 162 -30 54 -8 54 15 c 0
 54 34 126 120 217 213 c 0
 405 395 595 645 683 887 c 0
 715 965 735 1081 735 1167 c 0
 735 1265 725 1327 697 1351 c 0
 677 1373 635 1389 607 1389 c 0
 391 1389 203 1223 149 1049 c 0
 129 988 107 955 88 955 c 0
EndSplineSet
EndChar

StartChar: three
Encoding: 51 51 72
Width: 995
VWidth: -460
Flags: HW
LayerCount: 2
Fore
SplineSet
568 1443 m 0
 692 1443 842 1367 883 1284 c 0
 898 1250 905 1225 905 1192 c 0
 905 1079 857 932 808 855 c 0
 774 802 735 742 720 716 c 0
 711 703 706 692 706 682 c 0
 706 659 730 635 799 573 c 0
 870 510 915 447 930 394 c 0
 941 354 947 318 947 285 c 0
 947 67 722 -26 468 -26 c 0
 385 -26 268 -9 186 17 c 0
 96 46 48 72 48 92 c 0
 48 109 63 128 82 136 c 0
 85.5392676313 137.303940706 89.8766171279 137.913897182 94.8116746119 137.913897182 c 0
 116.369694783 137.913897182 149.333426288 126.274455125 177 110 c 0
 235 77 330 62 429 62 c 0
 569 62 717 94 774 155 c 0
 811 191 823 227 823 298 c 0
 823 499 636 549 495 607 c 0
 468 617 446 634 446 646 c 0
 446 658 476 687 512 706 c 0
 619 762 674 805 740 926 c 0
 784 1001 803 1060 803 1130 c 0
 803 1203 793 1237 754 1273 c 0
 715 1309 646 1333 578 1333 c 0
 540 1333 503 1326 470 1309 c 0
 406 1271 327 1191 327 1096 c 0
 327 1088 327 1079 328 1071 c 0
 330.404817355 1052.96386984 331.906018067 1039.62654622 331.906018067 1029.79286099 c 0
 331.906018067 1006.9132586 323.779526242 1003 300 1003 c 0
 248 1003 202 1071 202 1135 c 0
 202 1146 203 1156 206 1166 c 0
 220 1241 380 1387 436 1418 c 0
 460 1430 517 1443 568 1443 c 0
EndSplineSet
EndChar

StartChar: four
Encoding: 52 52 73
Width: 1159
VWidth: -508
Flags: HW
LayerCount: 2
Fore
SplineSet
218 508 m 0
 133 508 48 553 48 629 c 0
 48 646 51 666 59 689 c 0
 70 724 141 841 213 951 c 0
 285 1058 405 1217 477 1297 c 0
 555 1385 626 1445 650 1445 c 0
 677 1445 688 1433 688 1391 c 0
 688 1349 647 1294 506 1148 c 0
 399 1036 295 904 250 826 c 0
 210 756 181 683 181 664 c 0
 181 642 220 624 255 624 c 0
 293 624 370 636 437 653 c 0
 552 685 571 697 581 740 c 0
 589 777 626 875 626 935 c 0
 626 945 626 954 623 962 c 0
 621.562391868 965.833621685 620.871098259 970.298740274 620.871098259 975.120251196 c 0
 620.871098259 990.421793901 627.833621685 1009.3128244 640 1023 c 0
 653.726279779 1036.72627978 663.271847503 1042.92727786 672.756696644 1042.92727786 c 0
 681.237828208 1042.92727786 689.670412103 1037.96925708 701 1029 c 0
 717 1016 724 998 724 957 c 0
 724 924 713 840 713 805 c 0
 713 760 728 748 787 748 c 0
 834 748 944 757 991 757 c 0
 1047 757 1076 752 1090 740 c 0
 1105 728 1111 717 1111 708 c 0
 1111 675 1028 661 963 661 c 0
 856 661 722 645 690 586 c 0
 656 527 629 294 629 196 c 0
 629 132 639 89 658 73 c 0
 674 59 688 35 688 21 c 0
 688 -10 628 -24 583 -24 c 0
 573 -24 563 -24 555 -22 c 0
 526 -16 520 5 520 130 c 0
 520 210 528 343 538 423 c 0
 544 474 547 507 547 528 c 0
 547 552 543 560 530 560 c 0
 523 560 512 557 499 554 c 0
 451 544 294 508 218 508 c 0
EndSplineSet
EndChar

StartChar: five
Encoding: 53 53 74
Width: 1445
VWidth: -387
Flags: HW
LayerCount: 2
Fore
SplineSet
600 1463 m 0
 604 1463 629 1444 652 1417 c 0
 678 1391 692 1379 752 1379 c 0
 791 1379 851 1384 947 1393 c 0
 1084 1409 1237 1420 1287 1420 c 0
 1354 1420 1383 1409 1394 1386 c 0
 1401 1368 1397 1341 1386 1330 c 0
 1373 1317 1266 1300 1147 1289 c 0
 1028 1276 839 1251 729 1231 c 0
 572 1204 517 1187 479 1147 c 0
 440 1108 416 1022 416 941 c 0
 416 896 430 876 470 837 c 0
 506 805 613 727 710 666 c 0
 870 560 887 543 909 455 c 0
 916 427 920 398 920 369 c 0
 920 269 882 170 837 121 c 0
 797 74 605 -27 522 -27 c 0
 491 -27 428 -8 378 14 c 0
 281 59 143 166 98 256 c 0
 77 296 48 386 48 451 c 0
 48 481 57 502 76 524 c 0
 96 546 121 565 132 565 c 0
 141 565 150 519 150 461 c 0
 150 312 220 227 310 160 c 0
 368 115 434 86 506 86 c 0
 546 86 588 94 632 115 c 0
 729 160 791 222 796 346 c 0
 796 389 780 450 760 481 c 0
 740 512 662 575 585 616 c 0
 508 659 412 728 371 769 c 0
 307 839 285 894 285 999 c 0
 285 1054 303 1092 359 1186 c 0
 406 1260 476 1353 517 1393 c 0
 558 1431 596 1463 600 1463 c 0
EndSplineSet
EndChar

StartChar: six
Encoding: 54 54 75
Width: 984
VWidth: -483
Flags: HW
LayerCount: 2
Fore
SplineSet
587 540 m 0
 519 540 466 523 398 482 c 0
 349 448 295 408 278 389 c 0
 263 370 231 353 211 353 c 0
 180 353 172 336 172 270 c 0
 172 207 188 172 225 135 c 0
 266 91 294 84 396 84 c 0
 539 84 711 163 774 243 c 0
 796 272 815 326 815 362 c 0
 815 452 792 465 731 504 c 0
 702 524 641 540 587 540 c 0
728 1489 m 0
 747 1489 769 1460 769 1438 c 0
 769 1409 724 1324 663 1234 c 0
 603 1142 517 1045 476 1016 c 0
 350 928 301 839 235 661 c 0
 199 574 172 486 172 467 c 0
 172 450 179 436 187 436 c 0
 194 436 247 470 305 516 c 0
 363 560 444 608 485 623 c 0
 519 635 554 641 588 641 c 0
 677 641 764 606 825 564 c 0
 871 533 917 484 927 455 c 0
 933 439 936 412 936 384 c 0
 936 363 934 342 930 324 c 0
 906 210 760 93 660 42 c 0
 586 6 472 -26 360 -26 c 0
 244 -26 183 -5 116 71 c 0
 51 141 48 152 48 305 c 0
 48 523 89 640 162 788 c 0
 259 984 390 1170 550 1337 c 0
 634 1428 705 1489 728 1489 c 0
EndSplineSet
EndChar

StartChar: seven
Encoding: 55 55 76
Width: 1200
VWidth: -198
Flags: HW
LayerCount: 2
Fore
SplineSet
315 -22 m 0
 296 -22 275 -6 275 17 c 0
 275 43 287 99 306 156 c 0
 328 224 369 337 399 405 c 0
 429 471 453 546 453 566 c 0
 453 600 441 603 333 603 c 0
 227 603 213 607 213 640 c 0
 213 708 299 714 387 714 c 0
 475 714 494 719 518 758 c 0
 558 816 674 1153 674 1251 c 0
 674 1299 666 1342 656 1348 c 0
 654 1349 648 1351 639 1351 c 0
 609 1351 545 1343 477 1330 c 0
 389 1315 267 1302 210 1302 c 0
 196 1302 182 1302 169 1302 c 0
 101 1302 48 1306 48 1359 c 0
 48 1391 63 1395 201 1395 c 0
 283 1397 405 1406 471 1420 c 0
 537 1435 618 1446 652 1448 c 0
 690 1448 730 1437 750 1419 c 0
 776 1397 784 1360 784 1276 c 0
 784 1195 766 1111 720 981 c 0
 686 881 656 784 656 774 c 0
 656 758 683 750 734 750 c 0
 776 750 868 763 940 778 c 0
 1010 793 1088 806 1110 806 c 0
 1136 806 1152 794 1152 778 c 0
 1152 763 1129 740 1102 726 c 0
 1072 711 954 686 838 668 c 0
 662 641 619 629 586 591 c 0
 562 567 544 534 544 519 c 0
 544 504 528 457 508 417 c 0
 460 330 429 116 378 34 c 0
 360 2 330 -22 315 -22 c 0
EndSplineSet
EndChar

StartChar: eight
Encoding: 56 56 77
Width: 1307
VWidth: -383
Flags: HW
LayerCount: 2
Fore
SplineSet
416 675 m 0
 348 667 235 599 197 554 c 0
 173 528 155 492 155 470 c 0
 155 380 203 285 251 225 c 0
 309 156 443 68 560 68 c 0
 610 68 645 81 669 105 c 0
 689 125 707 159 707 179 c 0
 707 260 660 414 630 474 c 0
 614 508 564 570 524 608 c 0
 482 646 434 675 416 675 c 0
600 1317 m 0
 466 1317 349 1288 287 1226 c 0
 257 1200 246 1166 246 1115 c 0
 246 1075 257 1023 267 1001 c 0
 291 955 403 822 467 822 c 0
 493 822 563 851 623 885 c 0
 686 918 761 979 795 1023 c 0
 827 1065 854 1113 854 1128 c 0
 854 1144 832 1154 798 1154 c 0
 764 1154 743 1163 743 1179 c 0
 743 1194 752 1212 761 1218 c 0
 771 1224 780 1236 780 1245 c 0
 780 1254 766 1275 750 1290 c 0
 732 1310 696 1318 624 1318 c 0
 616 1318 608 1317 600 1317 c 0
1065 1473 m 0
 1065 1433 1019 1277 1019 1251 c 0
 1019 1235 1057 1227 1139 1227 c 0
 1245 1227 1259 1223 1259 1190 c 0
 1259 1133 1108 1116 1044 1116 c 0
 972 1116 965 1112 909 1025 c 0
 835 914 776 858 662 800 c 0
 623 781 572 751 572 737 c 0
 572 722 597 685 633 648 c 0
 745 531 797 381 797 148 c 0
 797 93 787 76 758 41 c 0
 719 -3 696 -13 600 -21 c 0
 581 -22 564 -23 549 -23 c 0
 492 -23 454 -13 390 17 c 0
 220 97 89 228 51 432 c 0
 49 445 48 459 48 471 c 0
 48 503 55 533 69 560 c 0
 99 623 238 708 294 741 c 0
 306 747 312 753 312 761 c 0
 312 773 296 791 257 830 c 0
 179 912 140 963 125 1095 c 0
 124 1107 123 1120 123 1131 c 0
 123 1240 186 1297 276 1335 c 1
 362 1377 477 1402 603 1402 c 0
 657 1402 802 1390 815 1383 c 0
 815 1383 815 1383 816 1383 c 0
 825 1383 867 1414 911 1457 c 0
 959 1501 1000 1530 1020 1530 c 0
 1022 1530 1024 1530 1026 1529 c 0
 1055 1518 1065 1500 1065 1473 c 0
EndSplineSet
EndChar

StartChar: nine
Encoding: 57 57 78
Width: 1145
VWidth: -506
Flags: HW
LayerCount: 2
Fore
SplineSet
732 1382 m 0
 712 1382 670 1366 638 1346 c 0
 570 1301 487 1177 487 1065 c 0
 487 995 508 966 545 966 c 0
 568 966 596 977 629 995 c 0
 687 1028 830 1161 830 1243 c 0
 830 1252 829 1261 827 1270 c 0
 811 1324 793 1382 732 1382 c 0
537 852 m 0
 416 852 356 955 356 1077 c 0
 356 1180 430 1323 489 1373 c 0
 557 1436 646 1488 768 1493 c 1
 874 1493 928 1455 928 1358 c 0
 928 1322 957 1240 993 1175 c 0
 1059 1051 1097 845 1097 643 c 0
 1097 477 1071 313 1014 199 c 0
 973 113 940 80 852 35 c 0
 772 -4 645 -27 522 -27 c 0
 440 -27 361 -17 300 6 c 0
 153 61 48 200 48 393 c 0
 48 421 50 448 55 464 c 0
 62 495 82 521 98 521 c 0
 156 521 156 433 156 352 c 0
 156 264 166 238 242 168 c 0
 321 91 383 68 524 68 c 0
 638 68 740 95 809 127 c 0
 872 158 940 298 960 375 c 0
 969 411 975 527 975 635 c 0
 975 643 975 650 975 658 c 0
 975 774 963 874 941 941 c 0
 921 1000 892 1050 876 1050 c 0
 860 1050 822 1020 784 982 c 0
 721 915 645 852 537 852 c 0
EndSplineSet
EndChar

StartChar: zero
Encoding: 48 48 79
Width: 1808
VWidth: -1112
Flags: HW
LayerCount: 2
Fore
SplineSet
210 525 m 0
 210 270 276 115 527 115 c 0
 598 115 697 133 750 154 c 0
 803 177 918 251 996 313 c 0
 1086 384 1165 481 1199 548 c 1
 1233 626 1251 729 1251 851 c 0
 1251 996 1238 1056 1199 1107 c 0
 1176 1136 1163 1151 1152 1151 c 0
 1138 1151 1127 1128 1100 1077 c 0
 1074.83927293 1031.17153283 1046.44863674 996.647747575 1025.71204613 996.647747575 c 0
 1023.37201676 996.647747575 1021.1294547 997.087376559 1019 998 c 0
 1003 1003 976 1058 964 1120 c 0
 936 1233 867 1325 745 1325 c 0
 706 1325 631 1302 573 1272 c 0
 435 1198 302 968 249 805 c 0
 226 731 210 603 210 525 c 0
727 1470 m 0
 879 1470 961 1385 1111 1385 c 0
 1175 1385 1247 1362 1293 1325 c 0
 1339 1289 1369 1275 1422 1275 c 0
 1443 1275 1469 1277 1500 1281 c 0
 1574 1293 1661 1306 1698 1318 c 0
 1711.78780621 1321.78488798 1722.65206609 1323.81564816 1731.16580386 1323.81564816 c 0
 1754.14370587 1323.81564816 1760 1309.02324122 1760 1274 c 0
 1760 1180 1590 1138 1500 1120 c 0
 1396 1100 1394 1100 1394 889 c 0
 1394 880 1394 870 1394 860 c 0
 1394 688 1380 586 1346 515 c 0
 1266 345 1049 161 874 62 c 0
 736 -14 674 -34 536 -34 c 0
 530 -34 523 -34 517 -34 c 0
 413 -34 330 -16 274 12 c 0
 134 90 101 200 67 407 c 0
 54 481 48 537 48 588 c 0
 48 639 54 687 67 743 c 0
 115 948 161 1030 274 1182 c 1
 357 1308 543 1470 727 1470 c 0
EndSplineSet
EndChar

StartChar: exclam
Encoding: 33 33 80
Width: 310
VWidth: -147
Flags: HW
LayerCount: 2
Fore
SplineSet
48 51 m 0
 48 123 69 171 147 171 c 0
 206 171 248 148 248 96 c 0
 248 58 226 25 192 3 c 0
 169 -14 154 -22 136 -22 c 0
 125 -22 113 -20 98 -14 c 0
 62 1 48 17 48 51 c 0
234 1560 m 0
 252 1560 262 1533 262 1503 c 0
 262 1455 254 1357 240 1251 c 0
 225 1128 218 1041 218 963 c 0
 218 883 226 814 242 724 c 0
 245 701 246 685 246 673 c 0
 246 649 238 646 216 646 c 0
 196 646 161 667 141 693 c 0
 108 735 104 768 104 918 c 0
 104 1016 116 1184 134 1294 c 0
 150 1405 175 1510 190 1528 c 0
 205 1544 225 1560 234 1560 c 0
EndSplineSet
EndChar

StartChar: question
Encoding: 63 63 81
Width: 714
VWidth: -31
Flags: HW
LayerCount: 2
Fore
SplineSet
317 108 m 0
 317 155 346 163 392 163 c 0
 393 163 395 163 396 163 c 0
 442 163 524 88 524 45 c 0
 524 7 505 -19 470 -19 c 0
 458 -19 445 -17 430 -10 c 0
 383 7 317 50 317 108 c 0
454 1590 m 0
 533 1590 555 1584 581 1557 c 0
 602 1534 611 1503 611 1469 c 0
 611 1417 591 1358 567 1314 c 0
 545 1271 447 1136 351 1015 c 0
 255 894 170 779 165 758 c 0
 161 741 159 728 159 716 c 0
 159 676 182 660 230 634 c 0
 283 605 322 600 481 600 c 0
 608 600 666 595 666 583 c 0
 666 574 655 556 641 543 c 0
 624 527 502 514 423 514 c 0
 280 514 172 543 100 615 c 0
 69 646 48 683 48 709 c 0
 48 731 75 788 106 834 c 0
 196 960 236 1007 343 1138 c 0
 392 1200 448 1286 469 1329 c 0
 490 1373 508 1431 508 1460 c 0
 508 1508 505 1511 454 1511 c 0
 366 1511 264 1463 207 1424 c 0
 176 1402 138 1364 122 1337 c 0
 106 1311 83 1289 70 1289 c 0
 56 1289 48 1306 48 1336 c 0
 48 1413 130 1478 186 1512 c 0
 263 1560 330 1586 454 1590 c 0
EndSplineSet
EndChar

StartChar: section
Encoding: 167 167 82
Width: 784
VWidth: 42
Flags: HW
LayerCount: 2
Fore
SplineSet
198 -17 m 0
 187.58490566 -17 176.896404414 -17.0911356355 166.254330756 -17.0911356355 c 0
 106.392666429 -17.0911356355 48 -14.2075471698 48 24 c 0
 48 45 55 49 143 49 c 0
 158 49 176 49 196 49 c 0
 302 49 365 54 412 70 c 0
 481 92 507 109 507 183 c 0
 507 218 485 247 374 356 c 0
 301 429 226 515 210 547 c 0
 193 582 185 613 185 643 c 0
 185 730 273 836 342 856 c 0
 364 863 403 872 435 872 c 0
 463 872 487 866 487 841 c 0
 487 811 440 791 408 791 c 0
 379 791 353 778 322 748 c 0
 287 714 277 695 277 654 c 0
 277 624 287 582 299 558 c 0
 311 534 380 457 454 385 c 0
 587 255 588 256 588 182 c 0
 588 125 581 99 558 70 c 0
 503 2 433 -8 290 -15 c 0
 259 -16 227 -17 198 -17 c 0
432 660 m 0
 490 660 559 717 559 768 c 0
 559 793 547 820 523 848 c 0
 500 872 434 930 374 974 c 0
 308 1024 256 1071 243 1100 c 0
 232 1124 225 1153 225 1185 c 0
 225 1255 244 1295 292 1374 c 0
 338 1448 370 1485 435 1528 c 0
 493 1569 537 1588 577 1592 c 0
 608 1594 636 1600 660 1600 c 0
 682 1600 701 1595 715 1580 c 0
 727 1569 736 1556 736 1550 c 0
 736 1514 703 1511 641 1511 c 0
 631 1511 620 1512 610 1512 c 0
 548 1512 529 1505 482 1473 c 0
 450 1450 404 1395 376 1351 c 0
 332 1280 319 1240 319 1156 c 0
 319 1115 333 1105 400 1053 c 0
 447 1017 520 954 563 912 c 0
 639 840 642 834 642 769 c 0
 642 714 635 695 605 664 c 0
 555 618 506 589 412 589 c 0
 375 589 330 596 316 603 c 0
 303 611 291 625 291 635 c 0
 291 659 314 666 345 666 c 0
 371 666 407 660 432 660 c 0
EndSplineSet
EndChar

StartChar: dollar
Encoding: 36 36 83
Width: 990
VWidth: 165
Flags: HW
LayerCount: 2
Fore
SplineSet
627 698 m 0
 616 698 592 650 567 574 c 0
 545 505 518 408 506 358 c 0
 498 319 491 282 491 264 c 0
 491 249.670315791 501.480483813 245.044783261 518.813866332 245.044783261 c 0
 529.301599208 245.044783261 542.29816018 246.738178489 557 249 c 0
 660 267 755 314 755 433 c 0
 755 508 712 609 678 656 c 0
 660 679 638 698 627 698 c 0
550 764 m 0
 550 781 539 803 530 803 c 0
 501 803 420 464 420 378 c 0
 420 365.165980424 421.567329276 359.313700351 424.217933787 359.313700351 c 0
 428.589334567 359.313700351 435.907125132 375.231260052 444 402 c 0
 452 436 482 525 507 601 c 0
 533 673 550 742 550 764 c 0
543 1306 m 0
 536 1306 515 1288 495 1268 c 0
 463 1236 448 1201 448 1154 c 0
 448 1118 464 1041 481 1041 c 1
 517 1126 l 1
 528 1176 540 1239 546 1263 c 0
 552 1286 550 1306 543 1306 c 0
706 1387 m 0
 699 1387 684 1380 672 1373 c 0
 660 1365 642 1326 632 1282 c 0
 617 1201 561 1035 561 948 c 0
 560 911 565 894 578 894 c 0
 589 894 607 926 621 969 c 0
 634 1010 660 1104 679 1180 c 0
 698 1256 715 1333 715 1352 c 0
 715 1371 712 1387 706 1387 c 0
477 55 m 0
 464 55 433 61 419 61 c 0
 397 61 390 52 375 24 c 0
 359 -5 340 -16 316 -16 c 0
 297 -16 283 -9 283 1 c 0
 283 29 309 144 316 167 c 0
 317 171 318 174 318 177 c 0
 318 195 302 207 250 232 c 0
 209 252 153 295 122 326 c 0
 91 357 59 395 52 414 c 0
 49 422 48 429 48 436 c 0
 48 461 63 483 83 483 c 0
 90 483 103 462 114 437 c 0
 139 380 210 320 268 294 c 0
 304 280 313 280 323 294 c 0
 329 304 338 345 344 387 c 0
 348 429 377 558 408 674 c 0
 435 782 448 835 448 874 c 0
 448 912 436 935 412 983 c 0
 376 1055 364 1096 364 1146 c 0
 364 1183 374 1235 386 1260 c 0
 399 1289 439 1326 491 1361 c 0
 573 1418 608 1464 632 1549 c 0
 638 1568 651 1582 662 1582 c 0
 675 1582 683 1562 685 1518 c 0
 689 1468 692 1455 709 1455 c 0
 741 1455 749 1470 760 1515 c 0
 771 1563 764 1603 808 1603 c 0
 841 1603 858 1572 858 1536 c 0
 858 1522 853 1502 853 1490 c 0
 853 1473 862 1468 893 1460 c 0
 930 1448 942 1435 942 1400 c 0
 942 1379 934 1365 920 1365 c 0
 903 1365 873 1397 856 1397 c 0
 829 1397 813 1361 801 1324 c 0
 765 1216 726 1071 686 947 c 0
 664 881 647 822 647 818 c 0
 647 814 668 788 696 759 c 0
 772 675 829 581 829 421 c 0
 829 347 810 299 762 258 c 0
 737 235 685 209 650 199 c 0
 612 190 533 175 533 146 c 0
 533 144 533 141 534 139 c 0
 540 128 532 103 519 84 c 0
 506 63 496 55 477 55 c 0
EndSplineSet
EndChar

StartChar: percent
Encoding: 37 37 84
Width: 1216
VWidth: -52
Flags: HW
LayerCount: 2
Fore
SplineSet
1093 574 m 0
 1144 574 1168 523 1168 463 c 0
 1168 370 1121 238 1097 191 c 0
 1058 108 996 40 925 -3 c 0
 900 -15 876 -21 853 -21 c 0
 766 -21 694 55 662 116 c 0
 648 141 638 188 638 223 c 0
 638 381 709 541 867 541 c 0
 962 541 996 499 1009 418 c 0
 1011 406 1012 396 1012 387 c 0
 1012 346.946272301 976.425989612 304.289568231 940.030937745 304.289568231 c 0
 937.353790339 304.289568231 934.672200459 304.520374277 932 305 c 0
 913.25 310 909.734375 329.453125 909.734375 354.814453125 c 0
 909.734375 370.03125 911 387.375 911 405 c 0
 911 433 902 438 873 438 c 0
 851 438 817 422 800 404 c 0
 777 377 762 297 762 227 c 0
 762 145 783 78 853 78 c 0
 877 78 916 96 940 120 c 0
 964 144 1003 208 1028 263 c 0
 1062 335 1072 378 1072 452 c 0
 1072 472 1071 499 1071 515 c 0
 1071 563 1076 574 1093 574 c 0
460 1386 m 0
 460 1333 378 1262 323 1262 c 0
 299 1262 292 1271 299 1293 c 0
 302 1308 313 1338 320 1356 c 0
 324.115414216 1365.81368005 326.426926568 1372.42042346 326.426926568 1375.72505325 c 0
 326.426926568 1377.3668718 325.856367116 1378.19361698 324.65299846 1378.19361698 c 0
 320.627350962 1378.19361698 309.519850856 1368.94140079 289 1350 c 0
 240 1305 156 1167 156 1079 c 0
 156 1025 175 1002 205 1002 c 0
 227 1002 256 1014 288 1034 c 0
 366 1086 474 1199 492 1308 c 0
 500 1364 512 1390 543 1404 c 0
 557.169698671 1410.39921875 568.623325868 1413.45558031 578.602362701 1413.45558031 c 0
 590.45513394 1413.45558031 600.22756697 1409.14369419 610 1401 c 0
 621 1392 626 1385 626 1373 c 0
 626 1361 620 1345 608 1317 c 0
 563 1205 525 1121 435 1034 c 0
 389 993 327 944 298 929 c 0
 269 914 227 901 205 901 c 0
 183 901 139 918 110 936 c 0
 57 968 54 976 54 1068 c 0
 54 1223 129 1333 212 1423 c 0
 274 1486 300 1503 348 1503 c 0
 396 1503 412 1492 436 1451 c 0
 452 1426 460 1405 460 1386 c 0
944 1490 m 0
 955 1504 982 1516 1003 1516 c 0
 1021 1516 1036 1508 1036 1487 c 0
 1036 1458 907 1268 751 1041 c 0
 598 818 445 591 410 536 c 0
 375 483 345 435 345 429 c 0
 345 426 317 376 285 321 c 0
 253 265 222 187 215 148 c 0
 208 102 189 65 160 43 c 0
 138 25 108 9 95 9 c 0
 82 9 63 23 55 40 c 0
 49.9828388063 48.4905804817 47.6467090681 57.4279995393 47.6467090681 67.2721261293 c 0
 47.6467090681 82.9351819337 53.5609030995 100.893677152 64 123 c 0
 148 280 326 581 439 739 c 0
 561 914 696 1120 818 1306 c 0
 873 1391 929 1473 944 1490 c 0
EndSplineSet
EndChar

StartChar: ampersand
Encoding: 38 38 85
Width: 1276
VWidth: -130
Flags: HW
LayerCount: 2
Fore
SplineSet
272 508 m 0
 259 508 235 489 220 465 c 0
 188 413 146 284 146 200 c 0
 146 164 160 120 177 99 c 0
 190 82 197 73 214 73 c 0
 260 73 495 178 513 193 c 0
 525 202 532 208 532 216 c 0
 532 228 513 246 465 287 c 0
 420 325 364 392 340 433 c 0
 316 474 286 508 272 508 c 0
707 1404 m 0
 681 1430 645 1441 605 1441 c 0
 518 1441 415 1391 375 1352 c 0
 306 1280 267 1158 267 1014 c 0
 267 990 268 963 269 932 c 0
 272 835 284 755 294 745 c 0
 298 741 303 739 309 739 c 0
 372 739 555 925 583 958 c 0
 624 1006 672 1079 693 1120 c 0
 711 1159 733 1243 733 1312 c 0
 733 1351 726 1385 707 1404 c 0
1211 651 m 0
 1219 651 1228 646 1228 637 c 0
 1228 577 925 343 885 315 c 0
 825 276 777 234 777 221 c 0
 777 186 927 132 966 132 c 0
 1013 132 1048 106 1048 62 c 0
 1048 31 1032 2 1012 -11 c 0
 1003.7584363 -16.2446314472 996.499235417 -19.1035246123 989.013223768 -19.1035246123 c 0
 976.516103306 -19.1035246123 963.38688751 -11.1361205737 944 7 c 0
 922 28 883 50 854 57 c 0
 826 64 768 87 723 109 c 0
 690 126 670 136 647 136 c 0
 614 136 574 117 475 70 c 0
 356 13 281 -12 212 -18 c 0
 191 -20 173 -21 160 -21 c 0
 119 -21 109 -12 90 18 c 0
 63 61 48 139 48 217 c 0
 48 258 52 300 60 335 c 0
 73 384 111 470 149 526 c 0
 190 587 206 612 206 645 c 0
 206 667 198 692 186 735 c 0
 166 803 157 883 157 994 c 0
 157 1161 163 1199 212 1301 c 0
 274 1426 322 1465 441 1508 c 0
 480 1521 563 1530 625 1530 c 0
 633 1530 640 1530 647 1530 c 0
 719 1530 752 1523 783 1498 c 0
 830 1460 849 1386 849 1308 c 0
 849 1224 827 1134 793 1079 c 0
 717 942 655 883 511 760 c 0
 420 684 367 628 367 606 c 0
 367 588 390 539 419 498 c 0
 447 459 504 395 549 356 c 0
 594 317 643 286 660 286 c 0
 678 286 755 328 833 377 c 0
 910 429 1026 512 1089 567 c 0
 1160 628 1192 651 1211 651 c 0
EndSplineSet
EndChar

StartChar: slash
Encoding: 47 47 86
Width: 1094
VWidth: 218
Flags: HW
LayerCount: 2
Fore
SplineSet
975 1521 m 0
 999 1521 1046 1485 1046 1461 c 0
 1046 1451 1017 1417 982 1383 c 0
 946 1349 891 1285 859 1242 c 0
 828 1199 750 1099 690 1021 c 0
 630 942 514 769 435 637 c 0
 288 385 276 377 195 163 c 0
 172 103 141 38 127 19 c 0
 113 0 85 -16 71 -16 c 0
 47 -16 44 -8 51 29 c 0
 55 52 93 144 137 233 c 0
 229 424 380 680 488 845 c 0
 528 905 629 1044 711 1153 c 0
 793 1262 873 1378 887 1412 c 0
 901 1446 923 1485 935 1498 c 0
 946 1510 964 1521 975 1521 c 0
EndSplineSet
EndChar

StartChar: parenleft
Encoding: 40 40 87
Width: 596
VWidth: 261
Flags: HW
LayerCount: 2
Fore
SplineSet
511 1580 m 0
 537 1578 545 1569 547 1537 c 0
 549 1515 545 1497 539 1497 c 0
 532 1497 499 1471 465 1441 c 0
 394 1378 272 1225 236 1131 c 0
 221 1094 192 1017 170 960 c 0
 132 861 130 847 125 662 c 0
 124 622 123 589 123 561 c 0
 123 471 129 429 146 357 c 0
 173 245 218 131 277 68 c 0
 294 51 321 33 337 29 c 0
 353 24 366 13 366 3 c 0
 366 -9 353 -15 325 -15 c 0
 258 -15 201 42 169 89 c 0
 83 215 48 379 48 601 c 0
 48 766 57 864 97 974 c 0
 129 1070 180 1197 233 1277 c 0
 259 1314 316 1386 361 1436 c 0
 405 1486 450 1539 461 1555 c 0
 473 1575 489 1582 511 1580 c 0
EndSplineSet
EndChar

StartChar: parenright
Encoding: 41 41 88
Width: 406
VWidth: 285
Flags: HW
LayerCount: 2
Fore
SplineSet
131 -15 m 0
 121 -15 78 22 78 37 c 0
 78 47 86 59 102 86 c 0
 119 114 145 186 161 247 c 0
 224 474 272 674 292 945 c 0
 296 992 297 1035 297 1075 c 0
 297 1187 283 1273 254 1368 c 0
 225 1461 184 1518 103 1552 c 0
 68 1565 48 1581 48 1594 c 0
 48 1625 61 1630 97 1630 c 0
 155 1630 248 1550 274 1510 c 0
 290 1486 315 1431 331 1387 c 0
 353 1322 358 1291 358 1141 c 0
 358 1126 358 1111 358 1094 c 0
 358 931 352 842 331 716 c 0
 315 626 277 448 244 320 c 0
 212 193 186 75 185 59 c 0
 185 33 153 -15 131 -15 c 0
EndSplineSet
EndChar

StartChar: braceleft
Encoding: 123 123 89
Width: 596
VWidth: 234
Flags: HW
LayerCount: 2
Fore
SplineSet
314 1401 m 0
 314 1449 293 1487 252 1487 c 0
 218 1487 197 1470 175 1444 c 0
 159 1424 140 1414 132 1418 c 0
 126 1422 123 1436 127 1454 c 0
 131 1470 148 1499 167 1515 c 0
 192 1538 204 1544 236 1544 c 0
 293 1544 334 1534 352 1510 c 0
 368 1489 381 1459 381 1424 c 0
 381 1363 345 1092 345 1036 c 0
 345 975 367 949 408 919 c 0
 437 899 450 891 473 891 c 0
 487 891 521 897 532 897 c 0
 548 897 548 890 548 867 c 0
 548 841 541 830 511 812 c 0
 413 751 381 648 381 481 c 0
 381 475 381 468 381 462 c 0
 381 373 392 308 392 235 c 0
 392 208 390 183 385 160 c 0
 373 105 364 91 311 41 c 0
 276 10 241 -14 227 -14 c 0
 213 -14 183 -4 159 7 c 0
 135 18 98 45 77 67 c 0
 59 85 48 105 48 114 c 0
 48 122 63 130 68 130 c 0
 73 130 99 112 124 91 c 0
 150 68 179 52 197 52 c 0
 244 52 288 99 302 136 c 0
 311 157 318 200 318 233 c 0
 318 300 299 385 299 456 c 0
 299 487 301 524 306 571 c 0
 320 707 337 737 384 806 c 0
 388 812 391 818 391 823 c 0
 391 835 378 849 339 884 c 0
 280 939 280 939 280 1030 c 0
 280 1080 290 1188 301 1267 c 0
 310 1335 314 1375 314 1401 c 0
EndSplineSet
EndChar

StartChar: braceright
Encoding: 125 125 90
Width: 857
VWidth: 212
Flags: HW
LayerCount: 2
Fore
SplineSet
288 865 m 0
 288 920 260 1077 260 1141 c 0
 260 1157 261 1171 262 1185 c 0
 283 1366 359 1525 520 1564 c 0
 546 1570 554 1575 562 1575 c 0
 590 1575 610 1551 610 1516 c 0
 610 1495 603 1474 594 1466 c 0
 575 1452 555 1459 555 1482 c 0
 555 1499 546 1506 533 1506 c 0
 526 1506 517 1504 507 1500 c 0
 493 1495 462 1470 439 1447 c 0
 417 1424 386 1379 370 1346 c 0
 346 1295 335 1222 335 1129 c 0
 335 1078 340 1034 351 986 c 0
 360 946 364 909 364 879 c 0
 364 859 360 840 360 823 c 0
 360 802 366 788 379 770 c 0
 401 738 408 714 408 683 c 0
 408 653 401 616 390 559 c 0
 374 467 364 342 364 239 c 0
 364 178 370 168 396 130 c 0
 414 102 443 74 461 65 c 0
 487 53 569 42 622 42 c 0
 662 42 683 49 721 67 c 0
 750 80 779 89 791 89 c 0
 801 89 809 79 809 68 c 0
 809 60 798 47 784 37 c 0
 736 7 653 -14 566 -14 c 0
 420 -14 354 19 312 122 c 0
 296 158 290 176 290 231 c 0
 290 305 305 533 312 561 c 0
 318 582 324 626 324 659 c 0
 324 663 324 666 324 670 c 0
 324 722 313 743 273 743 c 0
 216 743 123 705 69 705 c 0
 50 705 45 710 49 733 c 0
 53 759 62 765 130 784 c 0
 173 796 224 811 245 819 c 0
 275 829 288 840 288 865 c 0
EndSplineSet
EndChar

StartChar: bracketleft
Encoding: 91 91 91
Width: 714
VWidth: 200
Flags: HW
LayerCount: 2
Fore
SplineSet
167 1598 m 0
 181 1598 209 1590 229 1580 c 0
 298 1548 443 1533 552 1533 c 0
 638 1533 660 1530 664 1516 c 0
 668 1507 666 1492 658 1483 c 0
 647 1471 618 1466 534 1466 c 0
 474 1466 379 1473 322 1479 c 0
 281 1484 244 1487 225 1487 c 0
 218 1487 213 1486 212 1485 c 0
 208 1481 199 1379 190 1256 c 0
 175 1045 172 972 143 835 c 0
 134 786 123 470 123 351 c 0
 123 274 125 211 129 173 c 0
 135 117 147 63 155 54 c 0
 162 45 171 42 196 42 c 0
 241 42 374 55 399 56 c 0
 425 57 433 53 433 35 c 0
 433 16 421 11 345 0 c 0
 296 -6 219 -13 172 -13 c 0
 168 -13 164 -14 160 -14 c 0
 117 -14 76 -10 66 -4 c 0
 52 3 48 12 48 55 c 0
 48 69 48 86 49 108 c 0
 55 274 77 755 98 913 c 0
 125 1107 111 1226 123 1428 c 0
 128 1507 135 1577 137 1585 c 0
 141 1591 153 1598 167 1598 c 0
EndSplineSet
EndChar

StartChar: bracketright
Encoding: 93 93 92
Width: 948
VWidth: 229
Flags: HW
LayerCount: 2
Fore
SplineSet
803 1459 m 0
 747 1459 441 1408 400 1408 c 0
 360 1408 322 1408 322 1440 c 0
 322 1452 327 1463 332 1467 c 0
 337 1471 398 1475 466 1479 c 0
 536 1481 645 1495 712 1510 c 0
 779 1524 847 1537 863 1538 c 0
 883 1539 900 1532 900 1516 c 0
 900 1498 889 1452 873 1404 c 0
 854 1349 834 1261 828 1210 c 0
 807 1039 793 695 783 497 c 0
 777 392 766 273 760 233 c 0
 755 193 748 131 746 91 c 0
 744 51 739 12 735 3 c 0
 731 -9 696 -13 653 -13 c 0
 573 -13 460 0 432 4 c 0
 387 10 309 25 259 37 c 0
 209 48 147 58 124 58 c 0
 89 58 48 59 48 86 c 0
 48 113 100 125 133 125 c 0
 153 125 176 119 190 111 c 0
 205 101 262 85 317 75 c 0
 381 62 485 54 562 54 c 0
 633 54 655 57 668 70 c 0
 679 80 691 129 700 191 c 0
 709 248 722 370 728 464 c 0
 741 646 753 1134 778 1297 c 0
 788 1355 802 1413 811 1427 c 0
 825 1448 825 1453 811 1458 c 0
 810 1459 807 1459 803 1459 c 0
EndSplineSet
EndChar

StartChar: equal
Encoding: 61 61 93
Width: 940
VWidth: 0
Flags: HW
LayerCount: 2
Fore
SplineSet
725 597 m 0
 819 596 822 595 838 562 c 0
 845 547 848 535 848 527 c 0
 848 512 838 507 819 507 c 0
 805 507 786 510 762 516 c 0
 731 524 694 527 651 527 c 0
 510 527 259 471 142 449 c 0
 129 447 116 446 104 446 c 0
 73 446 48 454 48 480 c 0
 48 492 55 504 65 508 c 0
 75 512 129 522 185 529 c 0
 282 542 496 584 584 593 c 0
 604 595 654 597 702 597 c 0
 710 597 718 597 725 597 c 0
122 585 m 0
 86 585 62 594 62 621 c 0
 62 639 77 658 97 664 c 0
 114 669 179 673 242 674 c 0
 365 676 690 727 781 753 c 0
 810 763 840 770 846 771 c 0
 876 771 892 742 892 710 c 0
 892 677 881 675 823 675 c 0
 786 675 722 668 679 658 c 0
 545 631 410 615 250 596 c 0
 191 589 150 585 122 585 c 0
EndSplineSet
EndChar

StartChar: less
Encoding: 60 60 94
Width: 907
VWidth: 0
Flags: HW
LayerCount: 2
Fore
SplineSet
803 839 m 0
 793 839 781 840 771 840 c 0
 734 840 704 832 662 811 c 0
 626 794 525 730 434 667 c 0
 343 604 268 547 268 540 c 0
 268 534 306 503 354 472 c 0
 452 407 600 328 701 274 c 0
 738 256 780 240 793 240 c 0
 827 240 849 219 849 185 c 0
 849 149 826 130 789 130 c 0
 772 130 747 140 734 152 c 0
 690 189 526 287 469 314 c 0
 438 329 368 368 310 404 c 0
 220 458 195 468 126 473 c 0
 58 478 48 480 48 505 c 0
 48 509 49 514 49 520 c 0
 49 577 71 596 131 596 c 0
 212 596 370 700 426 742 c 0
 487 787 629 879 696 910 c 0
 716 920 746 935 762 945 c 0
 774 952 785 954 795 954 c 0
 831 954 859 910 859 872 c 0
 859 847 839 839 803 839 c 0
EndSplineSet
EndChar

StartChar: greater
Encoding: 62 62 95
Width: 872
VWidth: 0
Flags: HW
LayerCount: 2
Fore
SplineSet
766 632 m 0
 797 632 823 610 823 583 c 0
 823 552 798 531 768 525 c 0
 747 520 728 505 719 487 c 0
 710 467 695 456 680 456 c 0
 665 456 642 449 629 442 c 0
 616 435 567 397 523 359 c 0
 420 272 280 144 167 70 c 0
 121 37 85 21 69 21 c 0
 52 21 47 39 49 56 c 0
 51 73 77 100 112 126 c 0
 175 170 464 395 519 447 c 0
 540 468 558 491 558 497 c 0
 558 504 477 554 378 608 c 0
 279 662 172 716 142 731 c 0
 102 750 72 761 72 788 c 0
 72 806 88 821 105 821 c 0
 118 821 159 808 194 791 c 0
 231 775 293 742 333 719 c 0
 373 695 457 650 518 620 c 0
 585 587 629 570 649 570 c 0
 685 570 725 632 766 632 c 0
EndSplineSet
EndChar

StartChar: bar
Encoding: 124 124 96
Width: 280
VWidth: 278
Flags: HW
LayerCount: 2
Fore
SplineSet
125 1442 m 0
 125 1470 111 1520 111 1552 c 0
 111 1585 122 1609 150 1609 c 0
 178 1609 196 1589 214 1553 c 0
 225 1530 232 1516 232 1502 c 0
 232 1486 225 1468 209 1433 c 0
 185 1378 178 1325 167 1136 c 0
 152 838 128 544 128 233 c 0
 128 26 125 2 105 -9 c 0
 92 -16 74 -18 66 -16 c 0
 53 -10 48 46 48 207 c 0
 48 481 86 965 102 1219 c 0
 110 1323 119 1418 123 1429 c 0
 124 1432 125 1436 125 1442 c 0
EndSplineSet
EndChar

StartChar: backslash
Encoding: 92 92 97
Width: 932
VWidth: 310
Flags: HW
LayerCount: 2
Fore
SplineSet
884 44 m 0
 884 23 851 -15 837 -15 c 0
 828 -15 809 -6 794 5 c 0
 774 18 767 36 767 71 c 0
 767 154 676 388 648 449 c 0
 590 573 532 653 456 790 c 0
 334 1012 262 1155 116 1377 c 0
 78 1434 48 1486 48 1493 c 0
 48 1513 77 1534 99 1534 c 0
 114 1534 142 1502 180 1443 c 0
 320 1223 477 900 622 659 c 0
 713 510 769 396 811 235 c 0
 822 187 845 126 861 97 c 0
 877 69 884 56 884 44 c 0
EndSplineSet
EndChar

StartChar: comma
Encoding: 44 44 98
Width: 397
VWidth: 0
Flags: HW
LayerCount: 2
Fore
SplineSet
231 -27 m 0
 223 -27 214 -29 206 -29 c 0
 176 -29 156 -11 156 17 c 0
 156 22 157 27 158 33 c 0
 172 75 204 114 264 114 c 0
 291 114 319 106 330 95 c 0
 345 82 349 51 349 -25 c 0
 349 -107 344 -136 321 -180 c 0
 284 -249 210 -311 108 -311 c 0
 87 -311 76 -306 64 -293 c 0
 42 -272 42 -270 69 -249 c 0
 84 -237 112 -227 130 -227 c 0
 184 -227 250 -151 258 -102 c 0
 261 -85 264 -72 264 -60 c 0
 264 -39 256 -27 231 -27 c 0
EndSplineSet
EndChar

StartChar: semicolon
Encoding: 59 59 99
Width: 409
VWidth: 0
Flags: HW
LayerCount: 2
Fore
SplineSet
88 -191 m 0
 108 -191 136 -214 159 -214 c 0
 193 -214 226 -184 241 -166 c 0
 257 -144 275 -98 275 -61 c 0
 275 -44 266 -44 233 -44 c 0
 201 -44 192 -43 192 -29 c 0
 192 -23 193 -16 195 -5 c 0
 204 48 218 65 283 65 c 0
 323 65 339 59 349 42 c 0
 355 29 361 -6 361 -35 c 0
 361 -121 339 -176 293 -227 c 0
 253 -272 220 -285 147 -285 c 0
 103 -285 48 -267 48 -230 c 0
 48 -211 71 -191 88 -191 c 0
204 308 m 0
 204 349 255 381 291 381 c 0
 292 381 294 381 295 381 c 0
 317 381 349 355 349 334 c 0
 349 297 305 260 265 260 c 0
 232 260 204 277 204 308 c 0
EndSplineSet
EndChar

StartChar: asterisk
Encoding: 42 42 100
Width: 768
VWidth: 0
Flags: HW
LayerCount: 2
Fore
SplineSet
347 1022 m 0
 347 1042 356 1049 372 1049 c 0
 422 1049 419 966 438 934 c 0
 438 933 439 933 440 933 c 0
 448 933 475 956 504 989 c 0
 541 1031 557 1046 571 1046 c 0
 590 1046 610 1019 610 1003 c 0
 610 988 581 952 532 902 c 0
 479 848 457 820 457 804 c 0
 457 789 468 782 486 782 c 0
 496 782 510 783 530 786 c 0
 564 791 621 795 654 795 c 0
 659 795 663 795 667 795 c 0
 699 795 720 793 720 780 c 0
 720 760 646 739 631 732 c 0
 609 723 611 720 655 699 c 0
 692 681 709 665 709 638 c 0
 709 615 697 590 677 590 c 0
 647 590 493 694 459 694 c 0
 444 694 440 676 440 596 c 0
 440 519 437 495 422 490 c 0
 412 485 395 488 385 497 c 0
 375.018867925 505.245283019 372.194019224 517.633677465 372.194019224 532.203778958 c 0
 372.194019224 551.208259167 377 573.924528302 377 596 c 0
 377 612 376 627 374 639 c 0
 367 673 359 681 337 681 c 0
 319 681 284 656 239 608 c 0
 200 568 158 534 146 534 c 0
 124 534 116 547 116 564 c 0
 116 576 120 591 128 603 c 0
 139 619 143 633 138 634 c 0
 132 635 114 636 98 636 c 0
 76 638 48 657 48 681 c 0
 48 712 74 716 136 723 c 0
 192 730 293 737 293 780 c 0
 293 795 260 824 195 867 c 0
 141 901 97 934 97 939 c 0
 97 944 106 955 116 964 c 0
 126 973 144 974 161 968 c 0
 177 963 221 939 259 913 c 0
 297 886 335 865 344 865 c 0
 351 865 353 881 353 904 c 0
 353 941 347 995 347 1022 c 0
EndSplineSet
EndChar

StartChar: period
Encoding: 46 46 101
Width: 329
VWidth: 0
Flags: HW
LayerCount: 2
Fore
SplineSet
168 179 m 0
 206 179 281 129 281 94 c 0
 281 55 232 31 200 16 c 0
 184 8 164 5 143 5 c 0
 111 5 79 13 61 24 c 0
 54 29 48 48 48 65 c 0
 48 83 64 111 90 137 c 0
 119 166 142 179 168 179 c 0
EndSplineSet
EndChar

StartChar: colon
Encoding: 58 58 102
Width: 356
VWidth: 0
Flags: HW
LayerCount: 2
Fore
SplineSet
173 -10 m 0
 92 -10 68 24 68 104 c 0
 68 126 75 136 97 152 c 0
 115 167 139 179 149 179 c 0
 179 179 286 139 301 122 c 0
 307.678231129 112.459669816 310.488201507 102.748681069 310.488201507 93.192661567 c 0
 310.488201507 62.6829000419 281.844752362 33.7528183987 259 17 c 0
 233 -2 207 -10 173 -10 c 0
242 594 m 0
 247 595 261 585 276 570 c 0
 290 556 295 540 295 522 c 0
 295 489 276 453 260 426 c 0
 230 377 211 363 136 363 c 0
 74 363 61 378 51 423 c 0
 49 430 49 437 49 444 c 0
 49 479 68 505 84 527 c 0
 98 545 211 594 242 594 c 0
EndSplineSet
EndChar

StartChar: hyphen
Encoding: 45 45 103
Width: 490
VWidth: 0
Flags: HW
LayerCount: 2
Fore
SplineSet
389 431 m 0
 415 431 442 396 442 363 c 0
 442 357 441 351 439 345 c 0
 431 323 428 317 357 317 c 0
 333 317 301 318 258 319 c 0
 110 323 86 326 65 347 c 0
 47 365 44 375 54 391 c 0
 65 409 91 413 212 417 c 0
 291 418 358 423 362 425 c 0
 364 429 377 431 389 431 c 0
EndSplineSet
EndChar

StartChar: endash
Encoding: 8211 8211 104
Width: 746
VWidth: 0
Flags: HW
LayerCount: 2
Fore
SplineSet
698 418 m 0
 698 379 665 359 619 359 c 0
 603 359 583 360 557 364 c 0
 510 369 386 374 282 374 c 0
 124 375 90 379 70 396 c 0
 58 407 48 420 48 425 c 0
 48 430 55 442 64 451 c 0
 75 462 133 466 313 466 c 0
 332 466 353 466 375 466 c 0
 537 465 675 461 684 456 c 0
 691 451 698 434 698 418 c 0
EndSplineSet
EndChar

StartChar: numbersign
Encoding: 35 35 105
Width: 1474
VWidth: 232
Flags: HW
LayerCount: 2
Fore
SplineSet
695 948 m 0
 580 948 574 946 561 909 c 0
 553 889 546 859 546 841 c 0
 546 823 549 816 582 816 c 0
 618 816 792 835 794 837 c 0
 796 838 810 898 810 921 c 0
 810 947 790 948 695 948 c 0
452 932 m 0
 380 932 284 888 175 888 c 0
 133.369086814 888 107.212574813 901.263772444 107.212574813 926.9696165 c 0
 107.212574813 935.842097947 110.328638265 946.196821545 117 958 c 0
 124 969 170 987 218 999 c 0
 266 1011 351 1023 405 1029 c 0
 459 1035 506 1043 508 1048 c 0
 513 1053 532 1140 554 1242 c 0
 574 1344 600 1444 612 1468 c 0
 624 1492 635 1528 635 1550 c 0
 635 1591 641 1609 675 1609 c 0
 696 1609 720 1564 720 1533 c 0
 720 1518 717 1502 711 1482 c 0
 698 1435 610 1132 610 1062 c 0
 610 1041 625 1036 661 1036 c 0
 709 1036 832 1051 840 1059 c 0
 847 1066 874 1147 898 1237 c 0
 923 1333 960 1435 990 1485 c 0
 1018 1533 1053 1574 1066 1576 c 0
 1081 1579 1101 1569 1101 1550 c 0
 1101 1531 1089 1489 1072 1450 c 0
 1031 1360 983 1230 965 1128 c 0
 963 1116 962 1107 962 1099 c 0
 962 1073 980 1068 1064 1068 c 0
 1107 1068 1195 1070 1238 1070 c 0
 1344 1070 1350 1062 1386 1023 c 0
 1410 997 1426 968 1426 953 c 0
 1426 938 1409 921 1393 921 c 0
 1378 921 1348 933 1326 951 c 0
 1297 976 1285 985 1224 985 c 0
 1152 985 956 970 933 961 c 0
 914 954 898 931 892 903 c 0
 886 877 887 850 893 844 c 0
 895 842 907 841 924 841 c 0
 977 841 1164 868 1205 868 c 0
 1242.09190858 868 1262.87792464 849.655870902 1262.87792464 819.127782544 c 0
 1262.87792464 812.619114678 1261.93308901 805.556620687 1260 798 c 0
 1252 761 1248 760 1066 753 c 0
 898 746 878 744 854 714 c 0
 841 698 807 594 782 488 c 0
 755 378 744 323 744 288 c 0
 744 258 754 245 754 214 c 0
 754 153 727 68 711 40 c 0
 701 20 678 -18 650 -18 c 0
 623 -18 608 7 608 38 c 0
 608 49 609 63 611 79 c 0
 616 116 649 266 686 415 c 0
 723 564 753 695 753 708 c 0
 753 721 746 726 717 726 c 0
 664 726 522 707 508 696 c 0
 488 678 478 608 478 548 c 0
 478 515 480 486 486 468 c 0
 492 451 496 439 496 426 c 0
 496 408 489 390 473 360 c 0
 454 322 434 300 416 300 c 0
 384 300 365 316 365 355 c 0
 365 456 412 631 412 675 c 0
 412 691 404 697 368 697 c 0
 328 697 206 687 158 687 c 0
 92.1032168799 687 47.4752632728 691.431006149 47.4752632728 737.000213451 c 0
 47.4752632728 739.837686416 47.648295696 742.834661264 48 746 c 0
 53 777 64 777 245 789 c 0
 351 796 442 807 448 813 c 0
 456 821 472 883 472 913 c 0
 472 927 467 932 452 932 c 0
EndSplineSet
EndChar

StartChar: plus
Encoding: 43 43 106
Width: 753
VWidth: 0
Flags: HW
LayerCount: 2
Fore
SplineSet
310 839 m 0
 363 839 377 753 377 695 c 0
 378 657 378 646 415 646 c 0
 470 646 606 662 642 662 c 0
 673 662 683 654 695 627 c 0
 710 598 709 591 693 575 c 0
 685 567 678 563 667 563 c 0
 642 563 612 578 579 578 c 0
 528 578 394 556 374 544 c 0
 361 537 356 530 356 510 c 0
 356 491 362 450 362 428 c 0
 362 388 345 333 315 333 c 0
 289 333 268 370 268 403 c 0
 268 424 273 459 273 482 c 0
 273 529 271 534 219 534 c 0
 195 534 148 529 127 529 c 0
 93.3086960001 529 48.9757923262 548.864319391 48.9757923262 576.044430236 c 0
 48.9757923262 581.133905448 50.5302172 586.479891 54 592 c 0
 65 610 87 616 173 618 c 0
 272 622 278 623 285 652 c 0
 287 660 289 676 289 692 c 0
 289 725 280 764 280 794 c 0
 280 820 287 839 310 839 c 0
EndSplineSet
EndChar

StartChar: asciitilde
Encoding: 126 126 107
Width: 852
VWidth: 0
Flags: HW
LayerCount: 2
Fore
SplineSet
91 352 m 0
 63 352 48 386 48 420 c 0
 48 452 60 474 104 522 c 0
 162 585 204 612 305 612 c 0
 378 612 434 552 465 505 c 0
 480 479 503 454 524 454 c 0
 541 454 566 463 594 480 c 0
 625 497 676 542 707 578 c 0
 739 615 770 645 779 645 c 0
 797 645 804 636 804 623 c 0
 804 609 796 590 786 569 c 0
 757 498 693 443 628 406 c 0
 600 389 556 373 530 372 c 0
 462 372 436 396 409 441 c 0
 388 477 345 534 297 534 c 0
 241 534 212 505 174 469 c 0
 152 449 132 417 128 397 c 0
 122 373 110 352 91 352 c 0
EndSplineSet
EndChar

StartChar: quotedbl
Encoding: 34 34 108
Width: 641
VWidth: 0
Flags: HW
LayerCount: 2
Fore
SplineSet
102 873 m 0
 71 873 48 890 48 920 c 0
 48 930 61 948 78 959 c 0
 118 988 166 1031 184 1083 c 0
 189 1097 191 1107 191 1114 c 0
 191 1126 184 1133 166 1147 c 0
 146 1163 139 1171 139 1190 c 0
 139 1199 141 1210 143 1226 c 0
 150 1272 148 1312 184 1312 c 0
 195 1312 214 1301 228 1287 c 0
 251 1261 293 1194 293 1145 c 0
 293 1105 278 1052 267 1025 c 0
 253 993 142 873 102 873 c 0
431 1268 m 0
 431 1301 451 1320 483 1320 c 0
 515 1320 548 1300 566 1282 c 0
 589 1259 593 1249 593 1177 c 0
 593 1032 573 934 500 873 c 0
 474 852 460 843 442 843 c 0
 382 843 319 904 298 948 c 0
 290.967253999 962.435636529 287.222675287 976.323245176 287.222675287 988.090742156 c 0
 287.222675287 1008.11487288 298.065492002 1022 322 1022 c 0
 336 1022 350 1014 357 1001 c 0
 364 990 379 970 393 955 c 0
 405.209229065 942.790770935 416.271587 937.462768647 426.229179289 937.462768647 c 0
 475.808862715 937.462768647 498 1069.55072505 498 1142 c 0
 498 1172 490 1181 465 1204 c 0
 442 1225 431 1248 431 1268 c 0
EndSplineSet
EndChar

StartChar: quotesingle
Encoding: 39 39 109
Width: 228
VWidth: 0
Flags: HW
LayerCount: 2
Fore
SplineSet
63 1064 m 0
 63 1085 48 1202 48 1236 c 0
 48 1250 51 1255 58 1255 c 0
 82 1255 102 1239 119 1218 c 0
 137 1193 142 1164 148 1082 c 0
 151 1019 159 970 169 959 c 0
 176 950 180 941 180 934 c 0
 180 917 162 907 131 907 c 0
 93 907 49 930 49 967 c 0
 49 994 63 1042 63 1064 c 0
EndSplineSet
EndChar

StartChar: at
Encoding: 64 64 110
Width: 1134
VWidth: -222
Flags: HW
LayerCount: 2
Fore
SplineSet
514 453 m 0
 514 485 496 499 466 499 c 0
 402 499 364 443 364 374 c 0
 364 322 378 274 422 274 c 0
 466 274 468 282 494 364 c 0
 508 408 514 434 514 453 c 0
605 533 m 0
 624 533 652 496 652 472 c 0
 652 461 649 448 644 429 c 0
 636 402 613 348 592 307 c 0
 571 267 554 221 554 204 c 0
 554 171 585 137 615 137 c 0
 625 137 650 144 670 153 c 0
 690 161 728 188 753 213 c 0
 809 267 848 368 848 476 c 0
 845 573 828 620 786 676 c 0
 769 699 739 726 719 738 c 0
 696 753 667 759 621 759 c 0
 617 759 614 759 610 759 c 0
 569 759 526 752 514 745 c 0
 502 737 466 714 434 694 c 0
 398 671 350 624 308 570 c 0
 233 471 199 428 152 323 c 0
 135 285 124 238 124 206 c 0
 124 130 151 111 200 79 c 0
 238 56 256 53 375 53 c 0
 445 53 515 54 515 62 c 0
 515 69 502 96 484 125 c 0
 460 162 436 184 418 189 c 0
 363 197 336 209 308 256 c 0
 289 290 282 320 282 373 c 0
 282 462 302 498 350 537 c 0
 381 564 439 590 487 590 c 0
 509 590 584 533 605 533 c 0
631 838 m 0
 751 838 838 742 883 656 c 0
 909 603 925 530 925 456 c 0
 925 366 897 275 864 219 c 0
 848 193 836 166 840 166 c 0
 846 166 873 177 905 193 c 0
 939 210 986 234 1010 248 c 0
 1034 260 1061 268 1070 265 c 0
 1079 262 1086 252 1086 244 c 0
 1086 235 1061 212 1032 193 c 0
 943 140 765 53 650 16 c 0
 561 -11 529 -14 390 -15 c 0
 235 -15 230 -14 170 19 c 0
 97 60 48 111 48 196 c 0
 48 220 52 247 60 277 c 0
 89 372 166 496 220 573 c 0
 301 684 407 804 565 829 c 0
 593 832 623 837 631 838 c 0
EndSplineSet
EndChar

StartChar: asciicircum
Encoding: 94 94 111
Width: 681
VWidth: 0
Flags: HW
LayerCount: 2
Fore
SplineSet
443 1400 m 0
 454 1400 475 1389 490 1374 c 0
 505 1358 524 1317 536 1265 c 0
 547 1219 575 1130 595 1070 c 0
 616 1010 633 950 633 936 c 0
 633 915 602 892 576 892 c 0
 552 892 542 912 533 939 c 0
 521 981 466 1172 450 1211 c 0
 443 1228 432 1241 425 1239 c 0
 418 1237 398 1215 381 1190 c 0
 338 1134 208 939 160 889 c 0
 133 860 109 846 89 846 c 0
 66 846 48 858 48 879 c 0
 48 897 59 913 73 918 c 0
 81 920 118 963 154 1012 c 0
 191 1061 267 1168 322 1251 c 0
 391 1355 428 1400 443 1400 c 0
EndSplineSet
EndChar

StartChar: underscore
Encoding: 95 95 112
Width: 740
VWidth: 0
Flags: HW
LayerCount: 2
Fore
SplineSet
692 64 m 0
 692 34 643 9 612 9 c 0
 596 9 576 15 569 23 c 0
 559 32 519 37 445 37 c 0
 385 36 284 33 222 27 c 0
 190 25 165 24 146 24 c 0
 112 24 94 27 81 34 c 0
 65 43 48 68 48 90 c 0
 48 103 54 114 68 120 c 0
 78 124 177 126 300 126 c 0
 325 126 350 126 376 126 c 0
 641 126 662 124 676 105 c 0
 685 94 692 74 692 64 c 0
EndSplineSet
EndChar

StartChar: grave
Encoding: 96 96 113
Width: 396
VWidth: 0
Flags: HW
LayerCount: 2
Fore
SplineSet
132 1024 m 0
 85 1030 48 1082 48 1136 c 0
 48 1186 75 1240 99 1280 c 0
 136 1340 244 1496 292 1539 c 0
 306 1549 323 1558 332 1558 c 0
 341 1558 348 1548 348 1534 c 0
 348 1510 202 1279 198 1261 c 0
 197 1252 205 1234 220 1219 c 0
 236 1203 245 1181 245 1156 c 0
 245 1125 236 1106 198 1070 c 0
 171 1045 141 1024 132 1024 c 0
EndSplineSet
EndChar

StartChar: periodcentered
Encoding: 183 183 114
Width: 249
VWidth: 0
Flags: HW
LayerCount: 2
Fore
SplineSet
180 765 m 0
 199 763 202 756 200 717 c 0
 195 656 146 610 85 610 c 0
 62 610 48 620 48 646 c 0
 48 685 95 749 128 758 c 0
 144 763 167 766 180 765 c 0
EndSplineSet
EndChar

StartChar: guillemotleft
Encoding: 171 171 115
Width: 1121
VWidth: 0
Flags: HW
LayerCount: 2
Fore
SplineSet
1000 851 m 0
 1024 851 1072 823 1072 798 c 0
 1072 774 1028 761 980 751 c 0
 940 743 864 715 812 688 c 0
 760 661 710 633 703 624 c 0
 698 618 696 612 696 607 c 0
 696 586 732 572 753 568 c 0
 792 559 885 508 904 480 c 0
 911 470 913 452 908 440 c 0
 902 424 892 422 858 427 c 0
 787 441 648 514 594 550 c 0
 552 579 542 593 542 620 c 0
 542 650 548 655 591 667 c 0
 618 674 660 693 687 712 c 0
 754 758 820 790 905 823 c 0
 944 838 987 850 1000 851 c 0
48 616 m 0
 48 638 72 654 95 654 c 0
 108 654 170 675 230 702 c 0
 290 727 412 787 501 833 c 0
 590 879 679 918 699 918 c 0
 701 918 703 918 705 918 c 0
 734 918 759 905 759 878 c 0
 759 826 658 800 611 785 c 0
 544 764 397 689 343 656 c 0
 319 641 299 625 299 620 c 0
 299 614 327 589 359 562 c 0
 393 535 453 496 492 473 c 0
 532 451 569 428 572 422 c 0
 575 415 575 397 572 381 c 0
 567 362 557 354 540 354 c 0
 526 354 458 389 387 433 c 0
 316 478 235 525 206 538 c 0
 177 551 145 562 135 562 c 0
 106 562 48 585 48 616 c 0
EndSplineSet
EndChar

StartChar: guillemotright
Encoding: 187 187 116
Width: 832
VWidth: 0
Flags: HW
LayerCount: 2
Fore
SplineSet
52 741 m 0
 52 761 74 782 87 782 c 0
 97 782 120 773 136 760 c 0
 211 710 355 658 450 631 c 0
 473 625 479 616 479 585 c 0
 479 550 475 545 445 539 c 0
 363 520 264 452 201 393 c 0
 163 358 122 331 108 331 c 0
 88 331 48 358 48 384 c 0
 48 402 66 415 86 425 c 0
 102 432 115 443 115 449 c 0
 115 454 121 458 128 458 c 0
 136 458 176 486 220 518 c 0
 269 556 289 574 289 585 c 0
 289 600 235 619 191 638 c 0
 147 657 97 686 78 703 c 0
 59 721 52 731 52 741 c 0
254 879 m 0
 254 903 269 909 297 909 c 0
 312 909 343 900 367 887 c 0
 421 860 667 782 728 760 c 0
 762 747 784 733 784 717 c 0
 784 702 761 660 727 615 c 0
 693 572 605 474 529 399 c 0
 434 303 385 261 366 261 c 0
 335 261 312 280 312 310 c 0
 312 322 325 338 344 347 c 0
 397 375 502 488 543 533 c 0
 565 558 598 600 617 624 c 0
 634 647 643 664 643 676 c 0
 643 680 642 683 640 686 c 0
 627 707 392 782 357 782 c 0
 336 782 314 795 290 822 c 0
 270 845 254 871 254 879 c 0
EndSplineSet
EndChar

StartChar: onequarter
Encoding: 188 188 117
Width: 1656
VWidth: -138
Flags: HW
LayerCount: 2
Fore
SplineSet
1130 79 m 0
 1130 117 1140 256 1140 307 c 0
 1140 393 1118 394 1020 400 c 0
 950 404 877 417 857 427 c 0
 829 443 804 455 804 487 c 0
 804 495 806 503 809 514 c 0
 822 571 990 848 1020 890 c 0
 1045 921 1067 938 1092 938 c 0
 1113 938 1138 927 1138 911 c 0
 1138 896 1123 863 1100 834 c 0
 1074 803 1053 772 1053 768 c 0
 1053 758 928 547 928 523 c 0
 928 508 972 502 1044 502 c 0
 1153 502 1154 502 1174 609 c 0
 1186 667 1203 726 1215 738 c 0
 1227 750 1249 758 1262 755 c 0
 1278 752 1283 738 1283 683 c 0
 1283 659 1281 613 1281 588 c 0
 1281 528 1293 518 1368 518 c 0
 1398 518 1451 520 1483 520 c 0
 1552 520 1588 515 1598 505 c 0
 1611 492 1612 479 1600 459 c 0
 1587 439 1553 432 1429 423 c 0
 1343 417 1268 406 1260 398 c 0
 1251 389 1239 297 1236 193 c 0
 1232 58 1226 1 1210 -11 c 0
 1193 -24 1182 -23 1157 -1 c 0
 1138 17 1130 27 1130 79 c 0
1188 1432 m 0
 1208 1432 1216 1384 1216 1345 c 0
 1216 1309 1208 1301 1174 1284 c 0
 1149 1272 1019 1154 885 1020 c 0
 750 887 580 729 507 669 c 0
 433 607 374 567 357 567 c 0
 342 567 332 592 333 610 c 0
 333 635 372 676 455 749 c 0
 521 807 708 986 870 1146 c 0
 1041 1312 1174 1432 1188 1432 c 0
622 1522 m 0
 653 1522 660 1481 660 1410 c 0
 660 1313 621 1207 602 1137 c 0
 599 1126 597 1112 597 1098 c 0
 597 1076 601 1053 607 1034 c 0
 611.281718184 1019.89551657 613.406599826 1007.05976052 613.406599826 995.748371044 c 0
 613.406599826 962.14937344 594.658576998 942 558 942 c 0
 510 942 471 979 471 1030 c 0
 471 1065 525 1286 525 1317 c 0
 525 1321 525 1322 522 1322 c 0
 511 1322 458 1287 402 1241 c 0
 338 1190 258 1136 222 1119 c 0
 186 1102 141 1089 120 1089 c 0
 91 1089 48 1107 48 1137 c 0
 48 1168 82 1188 113 1190 c 0
 138 1193 191 1219 235 1246 c 0
 277 1273 377 1348 454 1412 c 0
 541 1483 601 1522 622 1522 c 0
EndSplineSet
EndChar

StartChar: onehalf
Encoding: 189 189 118
Width: 1813
VWidth: -240
Flags: HW
LayerCount: 2
Fore
SplineSet
1323 765 m 1
 1379 765 1412 708 1412 639 c 0
 1412 600 1397 537 1377 495 c 0
 1359 456 1289 357 1221 277 c 0
 1155 197 1101 125 1101 115 c 0
 1101 109.100251258 1108.65754775 105.636994981 1123.97264325 105.636994981 c 0
 1134.61644221 105.636994981 1148.95889447 107.309773868 1167 111 c 0
 1193 117 1437 132 1603 132 c 0
 1614.33333333 132 1625.67901235 132.049382716 1636.81344307 132.049382716 c 0
 1705.56763235 132.049382716 1766.26700816 130.166439306 1766.26700816 103.146512685 c 0
 1766.26700816 95.1603977123 1760.96443082 84.9783656377 1749 72 c 0
 1731 57 1675 42 1606 34 c 0
 1515 28 1149 -22 1029 -22 c 0
 989 -22 974 -16 954 -3 c 0
 930 12 910 33 910 42 c 0
 910 52 974 138 1054 232 c 0
 1132 326 1216 442 1242 487 c 0
 1268 532 1288 587 1288 609 c 0
 1290 630 1283 646 1274 646 c 0
 1220 646 1135 591 1102 553 c 0
 1078 529 1047 508 1029 508 c 0
 1007 508 998 522 998 558 c 0
 998 630 1110 713 1173 729 c 1
 1230 749 1269 759 1323 765 c 1
349 339 m 0
 312 339 294 362 294 383 c 0
 294 403 308 424 332 439 c 0
 444 508 516 562 642 682 c 0
 718 752 870 921 981 1056 c 0
 1093 1191 1226 1339 1276 1387 c 0
 1321 1431 1368 1473 1401 1473 c 0
 1430 1473 1444 1431 1444 1376 c 0
 1444 1341 1433 1332 1386 1312 c 0
 1352 1297 1296 1255 1263 1221 c 0
 1230 1185 1160 1096 1106 1026 c 0
 974 856 698 570 526 438 c 0
 429 365 382 339 349 339 c 0
748 948 m 0
 748 919 754 881 754 858 c 0
 754 829 747 818 728 811 c 0
 723.873678542 809.231576518 719.515703631 808.351157938 714.918488944 808.351157938 c 0
 696.119196746 808.351157938 673.319289067 823.073693929 646 852 c 0
 619 879 607 892 607 924 c 0
 607 955 619 1005 642 1102 c 0
 666 1205 683 1297 683 1318 c 0
 683 1321 683 1323 680 1323 c 0
 668 1323 610 1283 540 1228 c 0
 464 1168 361 1098 315 1074 c 0
 249 1041 196 1017 132 1017 c 0
 86 1017 48 1035 48 1075 c 0
 48 1119 94 1129 136 1129 c 0
 156 1129 208 1149 254 1173 c 0
 352 1219 568 1396 652 1453 c 0
 685 1474 729 1492 750 1492 c 0
 806 1492 825 1433 825 1375 c 0
 825 1348 805 1250 783 1158 c 0
 758 1067 748 1000 748 948 c 0
EndSplineSet
EndChar

StartChar: threequarters
Encoding: 190 190 119
Width: 1484
VWidth: -41
Flags: HW
LayerCount: 2
Fore
SplineSet
1063 508 m 0
 1063 501 1063 500 1069 500 c 0
 1122 500 1329 558 1357 573 c 0
 1373 582 1390 587 1404 587 c 0
 1423 587 1436 577 1436 551 c 0
 1436 534 1421 512 1403 501 c 0
 1365 475 1162 424 1106 414 c 0
 1072 408 1056 396 1045 370 c 0
 1037 351 1027 257 1021 161 c 0
 1013 -5 1012 -14 983 -18 c 0
 965 -20 946 -12 938 5 c 0
 930 21 928 36 930 38 c 1
 930 38 939 169 939 240 c 0
 939 361 928 362 810 363 c 0
 714 363 667 370 635 387 c 0
 610 401 589 420 589 432 c 0
 589 443 602 480 619 512 c 0
 635 544 686 635 732 714 c 0
 788 810 836 873 872 899 c 0
 901 921 936 935 948 935 c 0
 949 935 l 0
 961 933 976 920 976 904 c 0
 976 887 953 850 913 809 c 0
 876 768 816 685 780 623 c 0
 744 561 714 496 714 480 c 0
 714 461 715 455 747 455 c 0
 783 455 947 472 953 474 c 0
 957 476 965 519 971 566 c 0
 979 642 979 702 1040 702 c 0
 1067 702 1084 697 1084 673 c 0
 1084 639 1063 538 1063 508 c 0
991 1385 m 0
 1007 1396 1022 1402 1033 1402 c 0
 1049 1402 1059 1391 1059 1363 c 0
 1059 1311 1039 1295 943 1218 c 0
 882 1168 719 1022 580 890 c 0
 441 758 286 617 234 579 c 0
 182 541 130 508 118 508 c 0
 96 508 71 522 71 543 c 0
 71 550 74 558 80 566 c 0
 88 577 131 612 173 642 c 0
 293 730 430 859 542 971 c 0
 595 1025 711 1137 799 1217 c 0
 887 1297 973 1374 991 1385 c 0
361 1391 m 0
 361 1404 345 1406 327 1406 c 0
 280 1406 199 1383 187 1379 c 0
 168 1372 138 1354 121 1338 c 0
 106 1324 91 1317 79 1317 c 0
 61 1317 48 1333 48 1367 c 0
 48 1437 124 1457 191 1474 c 0
 232 1484 290 1492 325 1492 c 0
 409 1492 467 1469 467 1403 c 0
 467 1352 434 1292 410 1266 c 0
 393 1249 382 1230 382 1222 c 0
 382 1215 404 1191 430 1167 c 0
 475 1128 483 1115 483 1060 c 0
 483 1010 468 980 426 938 c 0
 384 896 342 871 285 871 c 0
 260 871 233 876 202 886 c 0
 148 902 133 911 133 950 c 0
 133 985 158 1007 193 1007 c 0
 211 1007 228 998 234 987 c 0
 238 976 258 966 281 966 c 0
 337 966 375 999 375 1057 c 0
 375 1127 270 1126 270 1199 c 0
 270 1218 292 1266 320 1307 c 0
 344 1342 361 1377 361 1391 c 0
EndSplineSet
EndChar

StartChar: quotesinglbase
Encoding: 8218 8218 120
Width: 354
VWidth: 0
Flags: HW
LayerCount: 2
Fore
SplineSet
195 426 m 0
 253 426 306 417 306 367 c 0
 306 353 293 310 276 273 c 0
 241 190 205 117 174 36 c 0
 158 -9 146 -19 114 -31 c 0
 99 -36 85 -40 73 -40 c 0
 58 -40 48 -34 48 -17 c 0
 48 7 63 30 78 47 c 0
 94 65 156 202 156 234 c 0
 156 241 146 246 134 246 c 0
 99 246 76 279 76 316 c 0
 76 390 121 426 195 426 c 0
EndSplineSet
EndChar

StartChar: quoteleft
Encoding: 8216 8216 121
Width: 480
VWidth: 0
Flags: HW
LayerCount: 2
Fore
SplineSet
209 1152 m 0
 209 1138 221 1123 226 1123 c 0
 242 1123 262 1060 262 1043 c 0
 262 1006 181 977 141 977 c 0
 123 977 110 986 82 1014 c 0
 58 1037 48 1047 48 1061 c 0
 48 1072 54 1085 65 1107 c 0
 106 1189 237 1378 294 1452 c 0
 324 1490 356 1524 365 1526 c 0
 374 1529 392 1527 405 1524 c 0
 423 1517 432 1496 432 1468 c 0
 432 1448 423 1440 391 1421 c 0
 333 1388 259 1275 228 1215 c 0
 216 1192 209 1167 209 1152 c 0
EndSplineSet
EndChar

StartChar: quotedblbase
Encoding: 8222 8222 122
Width: 536
VWidth: 0
Flags: HW
LayerCount: 2
Fore
SplineSet
152 321 m 0
 152 348 71 407 71 433 c 0
 71 443 81 469 94 490 c 0
 111 519 125 527 152 527 c 0
 225 527 265 475 265 401 c 0
 265 391 265 380 263 369 c 0
 249 273 222 229 181 140 c 0
 160 96 141 47 136 33 c 0
 129 11 107 -3 79 -3 c 0
 54 -3 48 15 48 51 c 0
 48 76 59 111 75 134 c 0
 98 167 152 273 152 321 c 0
381 328 m 0
 381 360 352 382 352 416 c 0
 352 426 354 439 356 454 c 0
 362 504 367 539 409 539 c 0
 421 539 444 525 459 509 c 0
 484 482 488 467 488 395 c 0
 488 337 479 289 459 232 c 0
 443 188 430 136 430 116 c 0
 430 97 420 69 407 53 c 0
 394 37 384 18 384 10 c 0
 384 -5 365 -12 345 -12 c 0
 317 -12 291 5 291 29 c 0
 291 55 336 182 348 196 c 0
 356 205 381 298 381 328 c 0
EndSplineSet
EndChar

StartChar: quotedblleft
Encoding: 8220 8220 123
Width: 715
VWidth: 0
Flags: HW
LayerCount: 2
Fore
SplineSet
607 1579 m 0
 637 1579 667 1572 667 1555 c 0
 667 1544 643 1510 608 1478 c 0
 573 1445 537 1397 525 1373 c 0
 515 1351 510 1340 510 1330 c 0
 510 1320 515 1313 524 1300 c 0
 534 1284 543 1262 543 1250 c 0
 541 1225 443 1178 414 1178 c 0
 396 1178 365 1209 365 1234 c 0
 365 1252 378 1280 414 1354 c 0
 450 1425 493 1493 525 1526 c 0
 566 1568 579 1579 607 1579 c 0
133 1158 m 0
 90 1158 48 1215 48 1259 c 0
 48 1282 59 1301 88 1324 c 0
 110 1341 129 1359 129 1364 c 0
 129 1369 151 1409 180 1453 c 0
 209 1497 246 1543 262 1556 c 0
 279 1570 300 1580 308 1580 c 0
 326 1580 355 1542 355 1517 c 0
 355 1488 331 1465 305 1452 c 0
 258 1432 209 1330 209 1264 c 0
 209 1198 204 1188 165 1167 c 0
 154 1160 143 1158 133 1158 c 0
EndSplineSet
EndChar

StartChar: ellipsis
Encoding: 8230 8230 124
Width: 833
VWidth: 0
Flags: HW
LayerCount: 2
Fore
SplineSet
630 400 m 0
 630 433 676 471 708 471 c 0
 741 471 785 433 785 398 c 0
 785 361 739 299 702 299 c 0
 661 299 630 358 630 400 c 0
48 390 m 0
 48 430 118 471 157 471 c 0
 191 471 262 431 262 399 c 0
 262 362 170 322 129 322 c 0
 95 322 48 355 48 390 c 0
414 322 m 0
 376 322 330 356 330 391 c 0
 330 425 361 445 387 464 c 0
 402 474 424 482 433 482 c 0
 443 482 462 475 473 466 c 0
 489 455 496 436 496 402 c 0
 496 342 470 322 414 322 c 0
EndSplineSet
EndChar

StartChar: Euro
Encoding: 8364 8364 125
Width: 1647
VWidth: -395
Flags: HW
LayerCount: 2
Fore
SplineSet
297 356 m 0
 258 356 173 353 136 353 c 0
 64 353 53 361 49 384 c 0
 46 402 49 424 60 435 c 0
 70 445 145 462 230 473 c 0
 384 495 384 496 395 563 c 0
 397.461538462 578.384615385 398.692307692 590.928994083 398.692307692 601.157487483 c 0
 398.692307692 624.171597633 392.461538462 635.461538462 380 641 c 0
 366 646 309 651 256 651 c 0
 183 651 145 660 145 690 c 0
 145 703 152 719 166 740 c 0
 190 774 213 779 328 779 c 0
 462 779 461 779 496 857 c 0
 544 967 729 1241 817 1313 c 0
 924 1398 1071 1500 1209 1556 c 0
 1270 1582 1336 1603 1360 1603 c 0
 1416 1603 1473 1579 1473 1523 c 0
 1473 1464 1373 1424 1300 1424 c 0
 1282 1424 1265 1428 1248 1428 c 0
 1209 1428 1171 1411 1092 1363 c 0
 929 1265 878 1233 766 1084 c 0
 720 1022 669 940 648 902 c 0
 631.268557326 870.130585383 619.615412592 839.53074525 619.615412592 825.878960418 c 0
 619.615412592 822.396091231 620.373882923 820.016323173 622 819 c 0
 623 818 629 817 638 817 c 0
 664 817 716 822 774 830 c 0
 851 843 1024 867 1158 883 c 0
 1269 897 1331 903 1368 903 c 0
 1404 903 1419 897 1432 884 c 0
 1443.39677745 872.603222552 1449.22149935 865.049242033 1449.22149935 857.21117466 c 0
 1449.22149935 847.167893323 1439.6581842 836.658184205 1420 817 c 0
 1391 788 1359 779 1281 779 c 0
 1103 779 924 729 750 697 c 0
 659 681 573 660 560 652 c 0
 547 642 536 610 534 576 c 0
 533.777777778 571.333333333 533.666666667 566.975308642 533.666666667 562.919067215 c 0
 533.666666667 533.181900653 539.638519118 519.664580256 551.582224022 519.664580256 c 0
 552.671785221 519.664580256 553.81104388 519.777070728 555 520 c 0
 616 528 1086 585 1142 595 c 0
 1195 606 1236 627 1265 662 c 0
 1288 691 1298 704 1309 704 c 0
 1318 704 1327 695 1344 678 c 0
 1368 654 1394 612 1394 574 c 0
 1394 554 1387 535 1369 520 c 0
 1345 499 1224 475 942 440 c 0
 726 414 537 383 524 372 c 0
 512 361 507 344 507 323 c 0
 507 269 540 196 555 171 c 0
 592 107 686 86 799 86 c 0
 838 86 879 88 920 92 c 0
 1008 100 1161 117 1262 131 c 0
 1363 144 1481 156 1524 156 c 0
 1585 156 1599 154 1599 131 c 0
 1599 84 1582 75 1520 64 c 0
 1480 56 1327 33 1185 11 c 0
 1035 -13 919 -24 819 -24 c 0
 800 -24 781 -24 763 -23 c 0
 646 -18 582 -7 539 20 c 0
 453 70 416 144 398 267 c 0
 389 343 387 356 297 356 c 0
EndSplineSet
EndChar

StartChar: uniFB00
Encoding: 64256 64256 126
Width: 1197
VWidth: -349
Flags: HW
LayerCount: 2
Fore
SplineSet
430 192 m 0
 430 168 512 64 523 64 c 0
 529 64 534 79 534 99 c 0
 534 106 546 198 546 244 c 0
 546 260 545 270 541 270 c 0
 533 270 502 255 472 234 c 0
 444 215 430 206 430 192 c 0
316 892 m 0
 316 884 317 880 323 880 c 0
 348 880 430 999 447 1022 c 0
 472 1057 516 1138 542 1200 c 0
 569 1258 585 1311 585 1323 c 0
 585 1331 572 1336 567 1336 c 0
 537 1336 474 1274 456 1254 c 0
 403 1196 361 1093 335 992 c 0
 324 950 316 911 316 892 c 0
135 -380 m 0
 100 -380 82 -356 82 -313 c 0
 82 -290 85 -258 91 -211 c 0
 101 -139 110 -4 110 92 c 0
 111 125 111 152 111 174 c 0
 111 266 105 279 78 307 c 0
 60 327 52 343 52 357 c 0
 52 381 75 397 113 413 c 0
 165 434 165 434 165 552 c 0
 165 670 165 671 122 671 c 0
 83 671 48 691 48 727 c 0
 48 760 65 767 121 774 c 0
 186 782 185 781 203 879 c 0
 223 982 265 1141 305 1218 c 0
 340 1284 426 1380 498 1412 c 0
 530 1426 580 1439 610 1439 c 0
 650 1439 668 1433 681 1404 c 0
 689 1390 694 1372 694 1352 c 0
 694 1342 692 1331 690 1320 c 0
 670 1225 602 1091 554 1010 c 0
 528 966 456 879 395 818 c 0
 317 739 281 692 269 649 c 0
 260 617 253 559 253 520 c 0
 253 478 260 448 269 448 c 0
 278 448 313 468 348 491 c 0
 461 570 584 719 671 848 c 0
 718 917 767 1013 784 1060 c 0
 822 1169 865 1247 927 1331 c 0
 950 1365 991 1421 1014 1455 c 0
 1043 1491 1069 1513 1089 1513 c 0
 1116 1513 1149 1481 1149 1448 c 0
 1149 1429 1138 1403 1111 1349 c 0
 1034 1199 919 1053 836 892 c 0
 794 815 747 715 729 671 c 0
 723 654 685 529 685 481 c 0
 685 470 688 463 693 463 c 0
 699 463 735 474 771 484 c 0
 807 496 887 529 948 559 c 0
 1008 589 1076 617 1098 621 c 0
 1133 629 1141 624 1141 599 c 0
 1141 582 1123 558 1101 541 c 0
 1013 480 912 442 786 389 c 0
 670 340 659 333 641 280 c 0
 628 238 609 53 609 -25 c 0
 609 -73 618 -91 645 -135 c 0
 667 -173 676 -194 676 -212 c 0
 676 -248 648 -277 617 -277 c 0
 594 -277 571 -261 551 -235 c 0
 534 -212 500 -143 471 -82 c 0
 442 -21 392 61 360 104 c 0
 326 147 298 194 298 211 c 0
 298 228 321 256 347 276 c 0
 372 297 435 334 486 360 c 0
 572 406 577 414 594 480 c 0
 602 512 607 542 607 558 c 0
 607 563 606 568 603 568 c 0
 593 568 552 535 504 489 c 0
 451 438 369 375 320 352 c 0
 232 308 231 308 227 64 c 0
 226 -71 217 -216 209 -260 c 0
 197 -326 188 -380 135 -380 c 0
EndSplineSet
Ligature2: "liga" f f
EndChar

StartChar: uniFB01
Encoding: 64257 64257 127
Width: 1229
VWidth: -442
Flags: HW
LayerCount: 2
Fore
SplineSet
1136 967 m 0
 1087 967 1049 1024 1049 1074 c 0
 1049 1111 1076 1138 1109 1138 c 0
 1159 1138 1176 1088 1179 1031 c 0
 1179.17116461 1026.37855554 1179.26176158 1022.07938164 1179.26176158 1018.08116597 c 0
 1179.26176158 975.361597213 1168.91903703 967 1136 967 c 0
689 1241 m 0
 719 1308 749 1366 749 1392 c 0
 749 1412 736 1420 719 1420 c 0
 699 1420 673 1409 661 1395 c 0
 627 1359 542 1111 532 1052 c 0
 529 1038 528 1027 528 1022 c 0
 528 1019 528 1018 530 1018 c 0
 535 1018 549 1033 580 1067 c 0
 612 1102 661 1181 689 1241 c 0
385 131 m 0
 385 -35 403 -233 403 -318 c 0
 403 -370 398 -375 369 -379 c 0
 366.484185769 -379.359402033 363.824849515 -379.532225435 361.063256923 -379.532225435 c 0
 340.773288819 -379.532225435 314.96338848 -370.202989835 300 -357 c 0
 276 -335 269 -308 269 -225 c 0
 269 7 161 207 77 357 c 0
 58 390 50 408 50 421 c 0
 50 432 56 439 69 452 c 0
 82.0909090909 465.090909091 90.4214876033 471.636363636 102.755071375 471.636363636 c 0
 113.033057851 471.636363636 126.090909091 467.090909091 147 458 c 0
 174 447 217 434 241 426 c 0
 252.717490566 422.528150944 264.058301885 420.751358494 274.368547216 420.751358494 c 0
 287.815660373 420.751358494 299.509716981 423.773792453 308 430 c 0
 323 443 334 494 342 598 c 0
 346 650 349 685 349 706 c 0
 349 732 345 740 335 740 c 0
 330 740 323 737 315 735 c 0
 288 726 195 696 126 696 c 0
 82 696 48 709 48 748 c 0
 48 772 66 799 91 819 c 0
 111.296991378 835.350354165 122.693442592 843.435921036 133.07505228 843.435921036 c 0
 141.106908007 843.435921036 148.531327585 838.596283047 159 829 c 0
 170 819 184 815 201 815 c 0
 250 815 314 848 341 865 c 0
 384 892 393 912 425 1060 c 0
 446 1150 481 1278 503 1341 c 0
 532 1426 558 1467 601 1502 c 0
 635 1530 675 1550 702 1550 c 0
 755 1550 829 1513 846 1479 c 0
 850 1465 856 1428 856 1400 c 0
 856 1371 825 1289 784 1208 c 0
 736 1113 675 1023 595 938 c 0
 477 808 479 809 454 669 c 0
 440 592 429 510 429 486 c 0
 429 458 438 441 453 441 c 0
 466 441 520 458 577 479 c 0
 678 515 887 622 950 685 c 0
 965 705 995 743 1010 772 c 0
 1025 801 1054 833 1069 843 c 0
 1077.06303621 848.131023046 1083.51419095 850.844223872 1089.63343817 850.844223872 c 0
 1100.21056131 850.844223872 1109.79603951 842.737953909 1125 825 c 0
 1143 805 1150 786 1150 746 c 0
 1150 715 1142 644 1142 613 c 0
 1142 575 1149 559 1164 545 c 0
 1176 533 1181 520 1181 509 c 0
 1181 474 1131 445 1082 445 c 0
 1030 445 998 477 987 521 c 0
 982 547 980 558 970 558 c 0
 961 558 946 550 920 534 c 0
 809 468 699 406 546 354 c 0
 413 306 405 299 392 249 c 0
 386 227 385 184 385 131 c 0
EndSplineSet
Ligature2: "liga" f i
EndChar

StartChar: uniFB02
Encoding: 64258 64258 128
Width: 1591
VWidth: -158
Flags: HW
LayerCount: 2
Fore
SplineSet
681 1450 m 0
 670 1450 635 1429 604 1402 c 0
 534 1347 489 1218 462 1126 c 0
 453.794366383 1100.63713246 449.48399691 1076.38719753 449.48399691 1064.04293379 c 0
 449.48399691 1059.83918826 449.98386677 1057.01613323 451 1056 c 0
 451.433410853 1055.56658915 452.183810089 1055.35624419 453.216851157 1055.35624419 c 0
 461.717868224 1055.35624419 489.358934112 1069.60046512 517 1091 c 0
 581 1139 648 1253 682 1326 c 0
 692 1350 700 1388 700 1409 c 0
 700 1431 692 1450 681 1450 c 0
960 740 m 0
 960 793 983 897 983 940 c 0
 983 946 983 951 981 951 c 0
 973 951 897 887 807 804 c 0
 716 719 580 608 507 559 c 0
 378 469 374 466 363 388 c 0
 356 345 353 163 353 -20 c 0
 353 -46 353 -72 353 -95 c 0
 353 -262 349 -358 339 -368 c 0
 329 -378 307 -382 286 -379 c 0
 265 -376 236 -354 222 -327 c 0
 202 -295 188 -215 175 -81 c 0
 167 30 147 173 133 239 c 0
 119 305 97 383 79 411 c 0
 64 439 48 473 48 484 c 0
 48 546 146 555 212 555 c 0
 243 556 259 569 269 594 c 0
 280 619 301 769 301 825 c 0
 301 848 296 854 284 854 c 0
 274 854 254 849 241 849 c 0
 196 849 160 880 160 920 c 0
 160 934 167 958 175 971 c 0
 188 991 196 991 223 976 c 0
 241 965 269 955 287 955 c 0
 307 955 320 968 327 992 c 0
 338 1063 386 1252 413 1314 c 0
 445 1390 543 1507 614 1538 c 0
 641 1549 677 1559 695 1560 c 0
 715 1560 748 1548 772 1528 c 0
 803 1504 812 1479 812 1443 c 0
 812 1415 798 1348 780 1298 c 0
 735 1169 615 1043 513 965 c 0
 409 884 408 846 388 702 c 0
 385 681 383 666 383 655 c 0
 383 641 386 635 395 635 c 0
 408 635 432 649 475 673 c 0
 623 751 892 1020 996 1154 c 0
 1049 1223 1121 1338 1157 1408 c 0
 1196 1484 1232 1543 1254 1543 c 0
 1283 1543 1339 1504 1339 1482 c 0
 1339 1475 1284 1368 1218 1245 c 0
 1116 1059 1095 1002 1073 887 c 0
 1063 827 1054 778 1054 737 c 0
 1054 683 1069 645 1116 615 c 0
 1143 600 1172 594 1201 594 c 0
 1259 594 1319 619 1368 645 c 0
 1404 667 1458 685 1483 685 c 0
 1516 685 1543 673 1543 646 c 0
 1543 594 1400 516 1357 503 c 0
 1318 489 1259 478 1228 478 c 0
 1049 478 960 574 960 740 c 0
EndSplineSet
Ligature2: "liga" f l
EndChar

StartChar: uniFB03
Encoding: 64259 64259 129
Width: 1510
VWidth: -434
Flags: HW
LayerCount: 2
Fore
SplineSet
1313 1074 m 0
 1313 1132 1335 1190 1388 1190 c 0
 1410 1190 1417 1178 1417 1142 c 0
 1417 1115 1426 1080 1437 1062 c 0
 1446 1050 1449 1040 1449 1033 c 0
 1449 1016 1427 1012 1393 1012 c 0
 1344 1012 1313 1030 1313 1074 c 0
798 299 m 0
 796 302 793 303 788 303 c 0
 759 303 685 264 685 259 c 0
 685 232 825 -24 839 -37 c 0
 861 -59 864 -56 854 -13 c 0
 848 19 816 281 798 299 c 0
647 1269 m 0
 633 1269 599 1238 572 1202 c 0
 547 1164 501 1090 476 1034 c 0
 451 983 434 933 434 917 c 0
 434 913 436 911 439 911 c 0
 450 911 482 936 520 975 c 0
 600 1058 637 1111 661 1219 c 0
 669 1258 667 1269 647 1269 c 0
1002 -316 m 0
 1002 -354 985 -371 951 -371 c 0
 926 -371 898 -352 873 -318 c 0
 852 -291 814 -231 789 -188 c 0
 765 -143 699 -20 644 91 c 0
 588 202 542 301 542 315 c 0
 542 363 587 375 637 386 c 0
 668 393 720 412 754 427 c 0
 811.06557377 456.983606557 812.00107498 457.966675625 812.00107498 572.912195294 c 0
 812.00107498 576.808653588 812 580.836065574 812 585 c 0
 812 655 806 712 798 712 c 0
 790 712 779 698 775 683 c 0
 771 668 702 593 628 516 c 0
 554 438 453 354 405 329 c 0
 320 280 318 278 318 92 c 0
 318 -28 327 -124 342 -174 c 0
 355 -217 367 -278 367 -310 c 0
 367 -357 351 -380 328 -380 c 0
 313 -380 296 -370 278 -353 c 0
 258 -333 233 -283 223 -237 c 0
 195 -128 132 99 86 191 c 0
 65 234 48 274 48 282 c 0
 48 290 80 308 119 322 c 0
 158 337 199 358 209 371 c 0
 222 386 251 617 251 679 c 0
 251 722 240 730 213 751 c 0
 191 769 179 789 179 805 c 0
 179 825 197 840 237 840 c 0
 280 840 287 847 311 931 c 0
 352 1070 426 1218 521 1313 c 0
 592 1387 611 1397 668 1397 c 0
 751 1397 779 1355 779 1278 c 0
 779 1125 703 1010 626 922 c 0
 592 886 527 831 479 803 c 0
 394 753 391 750 364 632 c 0
 349 566 336 498 335 478 c 0
 335 457 344 441 357 441 c 0
 370 441 433 491 502 555 c 0
 582 629 663 729 740 845 c 0
 837 992 860 1043 881 1142 c 0
 895 1208 918 1298 929 1341 c 0
 951 1419 952 1420 1021 1430 c 0
 1059 1434 1095 1442 1102 1442 c 0
 1103 1442 1105 1442 1106 1442 c 0
 1131 1442 1162 1386 1162 1360 c 0
 1162 1340 1124 1257 1078 1174 c 0
 1012 1059 984 987 959 872 c 0
 941 789 921 683 917 637 c 0
 915 621 914 606 914 592 c 0
 914 568 917 545 924 545 c 0
 937 545 1012 593 1098 658 c 0
 1186 725 1273 805 1293 833 c 0
 1315 869 1338 887 1363 887 c 0
 1408 887 1423 868 1423 828 c 0
 1423 813 1420 796 1417 775 c 0
 1409 736 1403 677 1402 645 c 0
 1402 606 1413 576 1435 554 c 0
 1452.6607376 538.105336156 1462.52393389 515.192885125 1462.52393389 493.525266779 c 0
 1462.52393389 490.655270863 1462.35088936 487.807114875 1462 485 c 0
 1459 449 1430 444 1379 444 c 0
 1318 444 1274 516 1274 579 c 0
 1274 610 1269 633 1262 630 c 0
 1254 629 1177 571 1087 505 c 0
 997 439 920 374 916 361 c 0
 915 359 915 356 915 351 c 0
 915 322 925 241 938 155 c 0
 953 54 978 -94 989 -174 c 0
 997 -230 1002 -283 1002 -316 c 0
EndSplineSet
Ligature2: "liga" f f i
EndChar

